<?xml version="1.0" encoding="utf-8"?>
<!-- Generator: Adobe Illustrator 24.1.2, SVG Export Plug-In . SVG Version: 6.00 Build 0)  -->
<svg version="1.1" id="Layer_2" xmlns="http://www.w3.org/2000/svg" xmlns:xlink="http://www.w3.org/1999/xlink" x="0px" y="0px"
	 viewBox="0 0 200 200" style="enable-background:new 0 0 200 200;" xml:space="preserve">
<style type="text/css">
	.st0{fill:#443322;}
	.st1{fill:#F9B233;}
	.st2{fill:#E94E1B;}
</style>
<g>
	<g>
		<path class="st0" d="M131,100.2c0-14.8-10.4-27.1-24.2-30.2l0.1,1.4c13.1,3.1,22.8,14.9,22.8,28.9c0,11.5-6.6,21.6-16.3,26.5v1.5
			C123.8,123.1,131,112.5,131,100.2z"/>
		<path class="st0" d="M69,100.2c0,12.3,7.2,22.9,17.6,27.9v-1.5c-9.6-4.9-16.3-14.9-16.3-26.5c0-14,9.7-25.8,22.8-28.9l0.1-1.4
			C79.4,73,69,85.4,69,100.2z"/>
		<path class="st0" d="M131.9,100.2c0,12.8-7.6,23.8-18.5,28.9v1.5c0,0.5-0.1,1-0.3,1.5c12.5-5.2,21.4-17.5,21.4-31.9
			c0-16.8-12-30.8-27.9-33.9l0.2,2.7C121.1,72.1,131.9,84.9,131.9,100.2z"/>
		<path class="st0" d="M86.6,129.1C75.7,124,68.1,113,68.1,100.2c0-15.3,10.8-28.1,25.1-31.2l0.2-2.7c-15.9,3.1-27.9,17.1-27.9,33.9
			c0,14.4,8.8,26.7,21.4,31.9c-0.2-0.5-0.3-0.9-0.3-1.5V129.1z"/>
		<path class="st1" d="M128.8,100.2c0-0.4-0.3-0.7-0.7-0.7h-14.7v1.3h14.7C128.5,100.8,128.8,100.5,128.8,100.2z"/>
		<path class="st1" d="M71.2,100.2c0,0.4,0.3,0.7,0.7,0.7h14.7v-1.3H71.9C71.5,99.5,71.2,99.8,71.2,100.2z"/>
		<path class="st1" d="M119.9,120.7c0.2,0,0.3-0.1,0.5-0.2c0.3-0.3,0.3-0.7,0-0.9l-7-7v1.9l6,6C119.6,120.7,119.7,120.7,119.9,120.7
			z"/>
		<path class="st1" d="M79.6,79.8c-0.3,0.3-0.3,0.7,0,0.9l8.4,8.4c0.2-0.4,0.4-0.8,0.6-1.2l-8.1-8.1C80.3,79.5,79.9,79.5,79.6,79.8z
			"/>
		<path class="st1" d="M120.4,79.8c-0.3-0.3-0.7-0.3-0.9,0l-8.1,8.1c0.2,0.4,0.4,0.8,0.6,1.2l8.4-8.4
			C120.6,80.5,120.6,80.1,120.4,79.8z"/>
		<path class="st1" d="M79.6,120.5c0.1,0.1,0.3,0.2,0.5,0.2c0.2,0,0.3-0.1,0.5-0.2l6-6v-1.9l-7,7C79.4,119.9,79.4,120.3,79.6,120.5z
			"/>
		<path class="st1" d="M126,111.6c0.3,0,0.5-0.2,0.6-0.4c0.1-0.3,0-0.7-0.4-0.9l-12.8-5.3v1.4l12.3,5.1
			C125.8,111.6,125.9,111.6,126,111.6z"/>
		<path class="st1" d="M73.4,89.1c-0.1,0.3,0,0.7,0.4,0.9l12.9,5.3c0-0.5,0-0.9,0.1-1.4l-12.4-5.2C73.9,88.6,73.5,88.8,73.4,89.1z"
			/>
		<path class="st1" d="M111,73.6c-0.3-0.1-0.7,0-0.9,0.4l-2.8,6.7l0,0.1c0,0.7,0.2,1.5,0.5,2.1l3.5-8.4
			C111.5,74.1,111.4,73.7,111,73.6z"/>
		<path class="st1" d="M126.6,89.1c-0.1-0.3-0.5-0.5-0.9-0.4l-12.4,5.2c0,0.5,0.1,0.9,0.1,1.4l12.9-5.3
			C126.6,89.9,126.7,89.5,126.6,89.1z"/>
		<path class="st1" d="M73.4,111.2c0.1,0.3,0.3,0.4,0.6,0.4c0.1,0,0.2,0,0.3,0l12.3-5.1V105l-12.8,5.3
			C73.4,110.5,73.3,110.8,73.4,111.2z"/>
		<path class="st1" d="M89,73.6c-0.3,0.1-0.5,0.5-0.4,0.9l3.5,8.4c0.3-0.7,0.4-1.4,0.5-2.1l0-0.1l-2.8-6.7
			C89.7,73.6,89.3,73.4,89,73.6z"/>
		<path class="st1" d="M71.8,105.8c0.1,0.3,0.3,0.5,0.6,0.5c0,0,0.1,0,0.1,0l14.1-2.8v-1.3L72.3,105
			C71.9,105.1,71.7,105.4,71.8,105.8z"/>
		<path class="st1" d="M128.2,94.5c-0.1-0.4-0.4-0.6-0.8-0.5l-14.1,2.8v1.3l14.3-2.8C128.1,95.2,128.3,94.9,128.2,94.5z"/>
		<path class="st1" d="M76.1,84.2c-0.2,0.3-0.1,0.7,0.2,0.9L87,92.3c0.1-0.5,0.2-0.9,0.4-1.3L77,84C76.7,83.8,76.3,83.9,76.1,84.2z"
			/>
		<path class="st1" d="M123.4,116.5c0.2,0,0.4-0.1,0.5-0.3c0.2-0.3,0.1-0.7-0.2-0.9l-10.4-6.9v1.6l9.6,6.4
			C123.1,116.4,123.3,116.5,123.4,116.5z"/>
		<path class="st1" d="M84,124.1c0.1,0.1,0.2,0.1,0.4,0.1c0.2,0,0.4-0.1,0.5-0.3l1.7-2.5V119l-2.8,4.2
			C83.6,123.5,83.7,123.9,84,124.1z"/>
		<path class="st1" d="M116,76.2c-0.3-0.2-0.7-0.1-0.9,0.2l-5.8,8.6c0.3,0.3,0.6,0.7,0.9,1.1l6-9C116.4,76.8,116.3,76.4,116,76.2z"
			/>
		<path class="st1" d="M127.6,106.3c0.3,0,0.6-0.2,0.6-0.5c0.1-0.4-0.2-0.7-0.5-0.8l-14.3-2.8v1.3l14.1,2.8
			C127.5,106.3,127.6,106.3,127.6,106.3z"/>
		<path class="st1" d="M71.8,94.5c-0.1,0.4,0.2,0.7,0.5,0.8l14.3,2.8v-1.3L72.5,94C72.2,94,71.8,94.2,71.8,94.5z"/>
		<path class="st1" d="M123.9,84.2c-0.2-0.3-0.6-0.4-0.9-0.2l-10.4,6.9c0.1,0.4,0.3,0.9,0.4,1.3l10.7-7.2
			C124.1,84.9,124.1,84.5,123.9,84.2z"/>
		<path class="st1" d="M76.1,116.2c0.1,0.2,0.3,0.3,0.5,0.3c0.1,0,0.3,0,0.4-0.1l9.6-6.4v-1.6l-10.4,6.9
			C75.9,115.5,75.9,115.9,76.1,116.2z"/>
		<path class="st1" d="M84,76.2c-0.3,0.2-0.4,0.6-0.2,0.9l6,9c0.3-0.4,0.6-0.7,0.9-1.1l-5.8-8.6C84.7,76.1,84.3,76,84,76.2z"/>
		<path class="st1" d="M115.6,124.2c0.1,0,0.3,0,0.4-0.1c0.3-0.2,0.4-0.6,0.2-0.9l-2.8-4.2v2.4l1.7,2.5
			C115.2,124.1,115.4,124.2,115.6,124.2z"/>
		<path class="st1" d="M94.9,148.6c1.1-0.3,2.4-0.7,3.3-1.5c0.9-0.7,1.2-1.6,1.3-2.3c0.1-0.7,0-1.2,0-1.2s-0.5-0.1-1.2-0.1
			c-0.7,0.1-1.6,0.3-2.5,1c-0.9,0.8-1.6,1.8-2,2.7c-0.5,0.9-0.7,1.6-0.7,1.6s0.2,0,0.6,0C93.9,148.8,94.3,148.8,94.9,148.6z"/>
		<path class="st1" d="M98.2,143.1c0.7,0.1,1.2,0,1.2,0s0.1-0.5,0-1.2c-0.1-0.7-0.4-1.6-1-2.4c-0.7-0.8-1.7-1.4-2.4-1.8
			c-0.4-0.2-0.7-0.4-1-0.5c-0.2-0.1-0.4-0.2-0.4-0.2s0,0.8,0.2,1.7c0.2,1,0.5,2.2,1.2,3C96.6,142.6,97.5,142.9,98.2,143.1z"/>
		<path class="st1" d="M88.5,147.6c1.1,0,2.5-0.4,3.4-1c1-0.6,1.4-1.5,1.6-2.2c0.2-0.7,0.1-1.2,0.1-1.2s-0.5-0.2-1.2-0.2
			c-0.7,0-1.6,0.2-2.6,0.7c-1.9,1.1-3.3,3.8-3.3,3.8S87.4,147.6,88.5,147.6z"/>
		<path class="st1" d="M92.6,142.5c0.7,0.2,1.2,0.2,1.2,0.2s0.2-0.5,0.2-1.2c0-0.7-0.1-1.6-0.7-2.5c-0.6-0.9-1.5-1.5-2.2-2.1
			c-0.7-0.5-1.3-0.8-1.3-0.8s-0.3,3,0.8,4.9C91.1,142,91.9,142.3,92.6,142.5z"/>
		<path class="st1" d="M82.4,145.7c1.1,0,2.5,0,3.5-0.5c1.1-0.5,1.6-1.3,1.8-2c0.3-0.6,0.3-1.1,0.3-1.1s-0.5-0.2-1.1-0.3
			c-0.7-0.1-1.6-0.2-2.6,0.3c-1,0.5-2,1.3-2.7,2.1c-0.7,0.7-1.1,1.4-1.1,1.4s0.2,0.1,0.6,0.1C81.3,145.6,81.8,145.7,82.4,145.7z"/>
		<path class="st1" d="M87,141.3c0.6,0.3,1.1,0.3,1.1,0.3s0.2-0.5,0.3-1.1c0.1-0.7,0.1-1.6-0.4-2.5c-0.5-1-1.2-1.8-1.9-2.4
			c-0.3-0.3-0.6-0.5-0.8-0.7c-0.2-0.2-0.3-0.3-0.3-0.3s-0.2,0.7-0.3,1.7c-0.1,1,0,2.2,0.4,3.2C85.6,140.4,86.4,141,87,141.3z"/>
		<path class="st1" d="M80.1,143c1.1-0.3,1.7-1,2.1-1.6c0.4-0.6,0.4-1.1,0.4-1.1s-0.4-0.3-1.1-0.5c-0.7-0.2-1.6-0.3-2.7,0
			c-1.1,0.4-2.1,1-2.9,1.6c-0.8,0.6-1.3,1.2-1.3,1.2s0.8,0.3,1.9,0.6C77.6,143.2,79,143.3,80.1,143z"/>
		<path class="st1" d="M81.7,139.2c0.6,0.4,1.1,0.5,1.1,0.5s0.3-0.4,0.5-1.1c0.2-0.7,0.3-1.6,0-2.6c-0.3-1-1-1.9-1.6-2.6
			c-0.5-0.7-1-1.2-1-1.2s-0.3,0.7-0.5,1.7c-0.2,1-0.4,2.2-0.1,3.3C80.5,138.2,81.1,138.8,81.7,139.2z"/>
		<path class="st1" d="M72.8,140c0.6,0.1,1.3,0.1,1.8,0c1.1-0.2,1.9-0.8,2.3-1.4c0.4-0.5,0.6-1,0.6-1s-0.4-0.3-1-0.6
			c-0.3-0.1-0.7-0.3-1.2-0.3c-0.4-0.1-0.9-0.1-1.5,0c-2.2,0.3-4.6,2.2-4.6,2.2s0.8,0.4,1.8,0.8C71.6,139.7,72.2,139.9,72.8,140z"/>
		<path class="st1" d="M76.7,136.5c0.5,0.4,1,0.6,1,0.6s0.3-0.4,0.6-1c0.3-0.6,0.5-1.5,0.3-2.6c-0.1-0.5-0.3-1-0.5-1.5
			c-0.2-0.5-0.4-0.9-0.7-1.3c-0.5-0.8-0.9-1.2-0.9-1.2s-1.5,2.6-1.2,4.8c0.1,0.5,0.2,1,0.5,1.4C76.2,136,76.5,136.3,76.7,136.5z"/>
		<path class="st1" d="M69.6,136.3c1.1,0,2-0.6,2.5-1.1c0.5-0.5,0.7-0.9,0.7-0.9s-0.1-0.1-0.2-0.2c-0.2-0.1-0.4-0.3-0.7-0.5
			c-0.6-0.4-1.4-0.8-2.5-0.8c-1.1,0-2.4,0.5-3.3,0.8c-0.9,0.4-1.6,0.8-1.6,0.8s0.6,0.6,1.7,1C67.1,135.9,68.4,136.4,69.6,136.3z"/>
		<path class="st1" d="M72.8,133.7c0.2,0.1,0.3,0.2,0.3,0.2s0.4-0.3,0.8-0.9c0.4-0.6,0.7-1.4,0.6-2.5c0-1.1-0.4-2.1-0.8-2.9
			c-0.4-0.8-0.7-1.4-0.7-1.4s-0.5,0.6-0.9,1.5c-0.5,0.9-0.9,2-0.9,3.1c0,1.1,0.5,1.9,0.9,2.4C72.4,133.4,72.6,133.6,72.8,133.7z"/>
		<path class="st1" d="M62.5,131.2c0.3,0.1,0.6,0.3,0.8,0.4c0.6,0.2,1.2,0.4,1.8,0.5c1.2,0.1,2-0.3,2.5-0.7c0.6-0.4,0.8-0.8,0.8-0.8
			s-0.3-0.4-0.8-0.9c-0.5-0.5-1.4-0.9-2.5-1c-2.2-0.3-5,0.9-5,0.9s0.6,0.6,1.5,1.2C62,130.8,62.2,131,62.5,131.2z"/>
		<path class="st1" d="M68.1,129.2c0.4,0.6,0.8,0.9,0.8,0.9s0.4-0.3,0.9-0.8c0.4-0.5,0.9-1.4,1-2.4c0-0.5,0-1.1-0.1-1.6
			c0-0.3-0.1-0.5-0.2-0.7c0-0.2-0.1-0.5-0.2-0.7c-0.2-0.9-0.5-1.5-0.5-1.5s-2.1,2.1-2.4,4.3C67.3,127.8,67.7,128.6,68.1,129.2z"/>
		<path class="st1" d="M58.1,125.4c0.9,0.7,1.9,1.6,3.1,1.8c1.2,0.2,2-0.1,2.7-0.4c0.6-0.3,0.9-0.7,0.9-0.7s-0.2-0.5-0.7-1
			c-0.5-0.5-1.2-1.1-2.3-1.4c-2.2-0.6-5.1,0.3-5.1,0.3S57.3,124.6,58.1,125.4z"/>
		<path class="st1" d="M67.2,118.3c0,0-2.4,1.8-2.9,3.9c-0.3,1-0.1,2,0.3,2.6c0.3,0.6,0.7,0.9,0.7,0.9s0.5-0.2,1-0.7
			c0.5-0.5,1.1-1.2,1.3-2.2c0.2-1,0.2-2.2,0-3C67.4,118.9,67.2,118.3,67.2,118.3z"/>
		<path class="st1" d="M55.2,119.6c0.8,0.8,1.8,1.7,2.9,2.2c1.1,0.4,2,0.3,2.6,0c0.7-0.3,1-0.6,1-0.6s-0.1-0.5-0.5-1.1
			c-0.4-0.6-1-1.3-2.1-1.7c-1.1-0.4-2.3-0.5-3.3-0.5c-1,0-1.7,0.1-1.7,0.1s0.1,0.2,0.3,0.5C54.5,118.8,54.8,119.2,55.2,119.6z"/>
		<path class="st1" d="M65.2,114.2c0-0.3,0-0.4,0-0.4s-0.7,0.4-1.4,1c-0.8,0.6-1.7,1.5-2.1,2.5c-0.4,1-0.3,1.9,0,2.6
			c0.2,0.7,0.5,1.1,0.5,1.1s0.5-0.1,1.1-0.6c0.6-0.4,1.2-1.1,1.6-2.1c0.4-1,0.4-2.1,0.4-3C65.2,114.9,65.2,114.5,65.2,114.2z"/>
		<path class="st1" d="M54.1,115c0.4,0.4,0.9,0.8,1.5,1.1c1,0.5,2,0.5,2.6,0.3c0.7-0.2,1.1-0.4,1.1-0.4s-0.1-0.5-0.4-1.1
			c-0.3-0.6-0.9-1.4-1.8-1.9c-1.9-1.1-5-1.1-5-1.1s0.3,0.8,0.9,1.7C53.4,114,53.7,114.5,54.1,115z"/>
		<path class="st1" d="M59.8,115.8c0,0,0.5-0.1,1.1-0.4c0.6-0.3,1.4-0.9,1.8-1.8c0.2-0.5,0.4-1,0.5-1.5c0.1-0.5,0.2-1,0.3-1.4
			c0.1-0.9,0.1-1.5,0.1-1.5s-2.8,1.1-3.9,3c-0.6,1-0.5,1.9-0.4,2.5C59.6,115.4,59.8,115.8,59.8,115.8z"/>
		<path class="st1" d="M55.9,107.1c-0.9-0.7-2.1-1.1-3.1-1.4c-0.5-0.1-0.9-0.2-1.2-0.3c-0.3-0.1-0.5-0.1-0.5-0.1s0,0.2,0.2,0.5
			c0.1,0.3,0.3,0.8,0.6,1.3c0.5,1,1.2,2.2,2.1,2.8c1,0.7,1.9,0.8,2.6,0.7c0.7-0.1,1.2-0.3,1.2-0.3s0-0.5-0.3-1.2
			C57.2,108.6,56.8,107.8,55.9,107.1z"/>
		<path class="st1" d="M59.3,110.1c0.7-0.2,1.4-0.7,2-1.6c0.7-0.9,1-1.9,1.2-2.8c0.1-0.4,0.2-0.8,0.2-1.1c0-0.3,0.1-0.4,0.1-0.4
			s-0.2,0.1-0.5,0.1c-0.3,0.1-0.7,0.2-1.1,0.4c-0.9,0.4-1.9,1-2.6,1.9c-0.7,0.9-0.8,1.8-0.8,2.5c0.1,0.7,0.3,1.1,0.3,1.1
			S58.7,110.3,59.3,110.1z"/>
		<path class="st1" d="M53.1,103.9c0.8,0.8,1.7,1,2.4,1c0.7,0,1.2-0.1,1.2-0.1s0.1-0.5,0-1.2c-0.1-0.7-0.5-1.6-1.3-2.4
			c-0.8-0.8-1.9-1.4-2.8-1.8c-0.9-0.4-1.7-0.6-1.7-0.6s0.1,0.9,0.4,1.9C51.7,101.9,52.3,103.1,53.1,103.9z"/>
		<path class="st1" d="M58.4,104.7c0.7-0.1,1.6-0.5,2.3-1.3c0.7-0.8,1.2-1.8,1.5-2.6c0.4-0.8,0.5-1.4,0.5-1.4s-0.7,0.1-1.7,0.4
			c-0.9,0.3-2.1,0.8-2.9,1.5c-0.7,0.8-1,1.7-1,2.4c-0.1,0.7,0.1,1.2,0.1,1.2S57.7,104.8,58.4,104.7z"/>
		<path class="st1" d="M53.1,93.2c-0.9-0.5-1.6-0.8-1.6-0.8s0,0.2,0,0.6c0,0.3,0.1,0.8,0.2,1.4c0.2,1.1,0.6,2.4,1.3,3.3
			c0.7,0.9,1.6,1.2,2.3,1.3c0.7,0.1,1.2,0,1.2,0s0.1-0.5,0.1-1.2c-0.1-0.7-0.2-1.6-0.9-2.5C55,94.5,53.9,93.7,53.1,93.2z"/>
		<path class="st1" d="M57.1,99.1c0,0,0.5,0.1,1.2,0.1c0.7-0.1,1.6-0.3,2.4-1c0.8-0.7,1.5-1.6,1.9-2.4c0.2-0.4,0.4-0.7,0.5-1
			c0.1-0.2,0.2-0.4,0.2-0.4s-0.8,0-1.7,0.1c-1,0.1-2.2,0.5-3,1.1c-0.8,0.7-1.3,1.5-1.4,2.2C57,98.6,57.1,99.1,57.1,99.1z"/>
		<path class="st1" d="M57.1,93.3c0,0,0.2-0.5,0.2-1.2c0-0.7,0-1.6-0.6-2.6c-0.6-1-1.5-1.8-2.3-2.5c-0.8-0.6-1.4-1-1.4-1
			s0,0.2-0.1,0.6c0,0.4,0,0.8,0,1.4c0.1,1.1,0.2,2.5,0.9,3.5c0.6,1,1.4,1.4,2.1,1.6C56.6,93.4,57.1,93.3,57.1,93.3z"/>
		<path class="st1" d="M61.4,93c0.9-0.6,1.7-1.4,2.2-2.1c0.3-0.3,0.5-0.7,0.6-0.9c0.2-0.2,0.2-0.4,0.2-0.4s-0.7-0.1-1.7-0.1
			c-1,0-2.2,0.2-3.1,0.7c-0.9,0.5-1.5,1.3-1.7,2c-0.2,0.7-0.2,1.2-0.2,1.2s0.5,0.2,1.2,0.2C59.5,93.7,60.5,93.6,61.4,93z"/>
		<path class="st1" d="M55.4,80c0,0-0.1,0.2-0.1,0.6c-0.1,0.3-0.1,0.8-0.2,1.4c-0.1,0.6-0.1,1.2,0,1.8c0.1,0.6,0.2,1.2,0.4,1.8
			c0.5,1.1,1.2,1.6,1.8,1.9c0.6,0.3,1.1,0.3,1.1,0.3s0.3-0.4,0.4-1.1c0.1-0.3,0.1-0.7,0.1-1.2c0-0.4-0.1-0.9-0.3-1.5
			c-0.4-1-1.2-2-1.9-2.8C56,80.5,55.4,80,55.4,80z"/>
		<path class="st1" d="M66.2,85.1c0,0-0.7-0.2-1.7-0.3c-1-0.1-2.2-0.1-3.2,0.3c-0.5,0.2-0.9,0.5-1.2,0.8c-0.3,0.3-0.5,0.7-0.7,1
			c-0.3,0.6-0.4,1.1-0.4,1.1s0.4,0.2,1.1,0.4c0.7,0.1,1.6,0.1,2.6-0.3c0.5-0.2,0.9-0.5,1.3-0.8c0.4-0.3,0.8-0.6,1.1-1
			c0.3-0.3,0.6-0.6,0.7-0.8C66.1,85.2,66.2,85.1,66.2,85.1z"/>
		<path class="st1" d="M58.6,74.3c0,0-0.3,0.8-0.6,1.9c-0.1,0.5-0.2,1.1-0.3,1.8c0,0.6,0,1.2,0.2,1.8c0.3,1.1,1,1.8,1.6,2.1
			c0.6,0.4,1.1,0.5,1.1,0.5s0.3-0.4,0.6-1.1c0.2-0.7,0.4-1.6,0.1-2.7C60.7,76.5,58.6,74.3,58.6,74.3z"/>
		<path class="st1" d="M61.6,81.6c-0.4,0.6-0.5,1.1-0.5,1.1s0.4,0.3,1.1,0.5c0.7,0.2,1.6,0.4,2.6,0.1c0.5-0.1,1-0.4,1.4-0.6
			c0.4-0.3,0.9-0.5,1.2-0.8c0.7-0.5,1.1-1,1.1-1s-2.7-1.2-4.9-0.7C62.6,80.3,62,81,61.6,81.6z"/>
		<path class="st1" d="M101.7,139.5c-0.7,0.8-1,1.7-1,2.4c-0.1,0.7,0,1.2,0,1.2s0.5,0.1,1.2,0c0.7-0.1,1.6-0.5,2.2-1.3
			c0.7-0.8,1.1-2,1.2-3c0.2-1,0.2-1.7,0.2-1.7s-0.2,0.1-0.4,0.2c-0.3,0.1-0.6,0.3-1,0.5C103.3,138.1,102.3,138.7,101.7,139.5z"/>
		<path class="st1" d="M101.9,147.2c0.9,0.7,2.2,1.2,3.3,1.5c0.5,0.2,1,0.2,1.4,0.2c0.4,0,0.6,0,0.6,0s-0.3-0.7-0.7-1.6
			c-0.5-0.9-1.2-1.9-2-2.7c-0.9-0.7-1.8-1-2.5-1c-0.7-0.1-1.2,0.1-1.2,0.1s-0.1,0.5,0,1.2C100.7,145.5,101,146.4,101.9,147.2z"/>
		<path class="st1" d="M106.8,139c-0.6,0.9-0.7,1.8-0.7,2.5c0,0.7,0.2,1.2,0.2,1.2s0.5,0,1.2-0.2c0.7-0.2,1.5-0.6,2.1-1.5
			c1.1-1.9,0.8-4.9,0.8-4.9s-0.6,0.3-1.3,0.8C108.3,137.5,107.4,138.1,106.8,139z"/>
		<path class="st1" d="M108.1,146.6c1,0.6,2.3,1,3.4,1c1.1,0.1,2,0,2,0s-1.4-2.7-3.3-3.8c-0.9-0.5-1.9-0.7-2.6-0.7
			c-0.7,0-1.2,0.2-1.2,0.2s0,0.5,0.1,1.2C106.7,145.1,107.1,145.9,108.1,146.6z"/>
		<path class="st1" d="M114.6,134.8c-0.2,0.2-0.5,0.4-0.8,0.7c-0.6,0.6-1.4,1.5-1.9,2.4c-0.5,0.9-0.5,1.8-0.4,2.5
			c0.1,0.7,0.3,1.1,0.3,1.1s0.5,0,1.1-0.3c0.6-0.3,1.4-0.9,1.8-1.9c0.4-1,0.5-2.2,0.4-3.2c-0.1-1-0.3-1.7-0.3-1.7
			S114.8,134.6,114.6,134.8z"/>
		<path class="st1" d="M117.6,145.7c0.6,0,1-0.1,1.4-0.1c0.4,0,0.6-0.1,0.6-0.1s-0.4-0.6-1.1-1.4c-0.7-0.7-1.7-1.6-2.7-2.1
			c-1-0.5-1.9-0.4-2.6-0.3c-0.7,0.1-1.1,0.3-1.1,0.3s0,0.5,0.3,1.1c0.3,0.6,0.8,1.4,1.8,2C115.2,145.7,116.5,145.7,117.6,145.7z"/>
		<path class="st1" d="M118.3,133.4c-0.6,0.6-1.2,1.5-1.6,2.6c-0.3,1-0.2,2,0,2.6c0.2,0.7,0.5,1.1,0.5,1.1s0.5-0.1,1.1-0.5
			c0.6-0.4,1.3-1,1.6-2c0.3-1,0.2-2.3-0.1-3.3c-0.2-1-0.5-1.7-0.5-1.7S118.8,132.7,118.3,133.4z"/>
		<path class="st1" d="M123.5,143c1.1-0.2,1.9-0.6,1.9-0.6s-0.5-0.6-1.3-1.2c-0.8-0.6-1.8-1.3-2.9-1.6c-1.1-0.3-2-0.2-2.7,0
			c-0.7,0.2-1.1,0.5-1.1,0.5s0.1,0.5,0.4,1.1c0.4,0.6,1,1.3,2.1,1.6C121,143.3,122.4,143.2,123.5,143z"/>
		<path class="st1" d="M122.5,130.7c-0.2,0.4-0.5,0.8-0.7,1.3c-0.2,0.5-0.4,1-0.5,1.5c-0.2,1,0,1.9,0.3,2.6c0.3,0.6,0.6,1,0.6,1
			s0.5-0.2,1-0.6c0.3-0.2,0.6-0.5,0.8-0.9c0.2-0.4,0.4-0.9,0.5-1.4c0.3-2.2-1.2-4.8-1.2-4.8S122.9,130,122.5,130.7z"/>
		<path class="st1" d="M127.2,140c0.6-0.1,1.2-0.3,1.7-0.5c1-0.4,1.8-0.8,1.8-0.8s-2.4-1.9-4.6-2.2c-0.6-0.1-1,0-1.5,0
			c-0.5,0.1-0.8,0.2-1.2,0.3c-0.6,0.3-1,0.6-1,0.6s0.2,0.5,0.6,1c0.4,0.5,1.1,1.2,2.3,1.4C126,140.1,126.6,140.1,127.2,140z"/>
		<path class="st1" d="M126.3,127.5c-0.4,0.8-0.8,1.9-0.8,2.9c0,1.1,0.3,1.9,0.6,2.5c0.4,0.6,0.8,0.9,0.8,0.9s0.1-0.1,0.3-0.2
			c0.2-0.1,0.4-0.3,0.6-0.6c0.4-0.5,0.9-1.3,0.9-2.4c0-1.1-0.4-2.2-0.9-3.1c-0.5-0.9-0.9-1.5-0.9-1.5S126.7,126.8,126.3,127.5z"/>
		<path class="st1" d="M135.6,134.4c0,0-0.6-0.4-1.6-0.8c-0.9-0.4-2.1-0.8-3.3-0.8c-1.1,0-2,0.4-2.5,0.8c-0.3,0.2-0.5,0.4-0.7,0.5
			c-0.2,0.1-0.2,0.2-0.2,0.2s0.2,0.5,0.7,0.9c0.5,0.5,1.3,1,2.5,1.1c1.1,0,2.4-0.4,3.4-0.9C134.9,135,135.6,134.4,135.6,134.4z"/>
		<path class="st1" d="M129.7,123.9c-0.1,0.2-0.1,0.5-0.2,0.7c-0.1,0.2-0.1,0.5-0.2,0.7c-0.1,0.5-0.1,1-0.1,1.6
			c0.1,1.1,0.6,1.9,1,2.4c0.4,0.5,0.9,0.8,0.9,0.8s0.4-0.3,0.8-0.9c0.4-0.6,0.8-1.4,0.7-2.5c-0.3-2.2-2.4-4.3-2.4-4.3
			S129.9,123,129.7,123.9z"/>
		<path class="st1" d="M137.5,131.2c0.3-0.2,0.5-0.3,0.7-0.5c0.9-0.6,1.5-1.2,1.5-1.2s-2.8-1.2-5-0.9c-1.1,0.1-1.9,0.6-2.5,1
			c-0.5,0.5-0.8,0.9-0.8,0.9s0.3,0.4,0.8,0.8c0.6,0.4,1.4,0.8,2.5,0.7c0.6-0.1,1.2-0.2,1.8-0.5C137,131.4,137.2,131.3,137.5,131.2z"
			/>
		<path class="st1" d="M134.8,125.7c0,0,0.4-0.3,0.7-0.9c0.4-0.6,0.5-1.5,0.3-2.6c-0.5-2.1-2.9-3.9-2.9-3.9s-0.2,0.6-0.3,1.5
			c-0.2,0.9-0.2,2,0,3c0.2,1,0.8,1.8,1.3,2.2C134.3,125.5,134.8,125.7,134.8,125.7z"/>
		<path class="st1" d="M143.3,124c0,0-2.9-0.9-5.1-0.3c-1.1,0.3-1.7,0.9-2.3,1.4c-0.5,0.5-0.7,1-0.7,1s0.3,0.4,0.9,0.7
			c0.6,0.3,1.5,0.6,2.7,0.4c1.2-0.2,2.2-1.1,3.1-1.8C142.7,124.6,143.3,124,143.3,124z"/>
		<path class="st1" d="M136.8,120.4c0.6,0.4,1.1,0.6,1.1,0.6s0.3-0.4,0.5-1.1c0.2-0.7,0.3-1.6,0-2.6c-0.4-1-1.3-1.9-2.1-2.5
			c-0.8-0.6-1.4-1-1.4-1s0,0.2,0,0.4c0,0.3,0,0.7,0,1.1c-0.1,0.9,0,2,0.4,3C135.6,119.3,136.2,120,136.8,120.4z"/>
		<path class="st1" d="M144.8,119.6c0.4-0.4,0.6-0.8,0.8-1.1c0.2-0.3,0.3-0.5,0.3-0.5s-0.7-0.1-1.7-0.1c-1,0-2.2,0.1-3.3,0.5
			c-1.1,0.4-1.7,1.1-2.1,1.7c-0.4,0.6-0.5,1.1-0.5,1.1s0.4,0.3,1,0.6c0.7,0.3,1.6,0.4,2.6,0C143.1,121.4,144.1,120.5,144.8,119.6z"
			/>
		<path class="st1" d="M140.2,115.8c0,0,0.3-0.4,0.4-1.1c0.2-0.7,0.2-1.6-0.4-2.5c-1.1-1.9-3.9-3-3.9-3s0,0.6,0.1,1.5
			c0.1,0.4,0.2,0.9,0.3,1.4c0.1,0.5,0.3,1,0.5,1.5c0.5,0.9,1.2,1.5,1.8,1.8C139.7,115.7,140.2,115.8,140.2,115.8z"/>
		<path class="st1" d="M147.9,111.8c0,0-3.1,0-5,1.1c-0.9,0.6-1.5,1.3-1.8,1.9c-0.3,0.6-0.4,1.1-0.4,1.1s0.4,0.3,1.1,0.4
			c0.7,0.2,1.6,0.2,2.6-0.3c0.5-0.3,1-0.7,1.5-1.1c0.4-0.4,0.8-1,1.1-1.4C147.5,112.6,147.9,111.8,147.9,111.8z"/>
		<path class="st1" d="M142.1,109.2c0-0.7-0.1-1.6-0.8-2.5c-0.7-0.9-1.7-1.5-2.6-1.9c-0.4-0.2-0.8-0.3-1.1-0.4
			c-0.3-0.1-0.5-0.1-0.5-0.1s0,0.2,0.1,0.4c0,0.3,0.1,0.6,0.2,1.1c0.2,0.9,0.6,1.9,1.2,2.8c0.6,0.8,1.4,1.3,2,1.6
			c0.7,0.2,1.2,0.3,1.2,0.3S142.1,109.9,142.1,109.2z"/>
		<path class="st1" d="M148.8,105.9c0.1-0.3,0.2-0.5,0.2-0.5s-0.2,0-0.5,0.1c-0.3,0.1-0.7,0.1-1.2,0.3c-1,0.3-2.2,0.7-3.1,1.4
			c-0.9,0.7-1.3,1.5-1.5,2.2c-0.3,0.7-0.3,1.2-0.3,1.2s0.5,0.2,1.2,0.3c0.7,0.1,1.6,0,2.6-0.7c0.9-0.7,1.6-1.8,2.1-2.8
			C148.5,106.7,148.7,106.3,148.8,105.9z"/>
		<path class="st1" d="M142.8,104.8c0,0,0.1-0.5,0.1-1.2c-0.1-0.7-0.3-1.6-1-2.4c-0.7-0.8-1.9-1.2-2.9-1.5c-0.9-0.3-1.7-0.4-1.7-0.4
			s0.2,0.6,0.5,1.4c0.3,0.8,0.8,1.8,1.5,2.6c0.7,0.8,1.6,1.1,2.3,1.3C142.3,104.8,142.8,104.8,142.8,104.8z"/>
		<path class="st1" d="M147.5,99.5c-0.9,0.4-2,1-2.8,1.8c-0.8,0.8-1.2,1.7-1.3,2.4c-0.1,0.7,0,1.2,0,1.2s0.5,0.2,1.2,0.1
			c0.7,0,1.6-0.2,2.4-1c0.8-0.8,1.4-2,1.8-3.1c0.3-1.1,0.4-1.9,0.4-1.9S148.4,99.1,147.5,99.5z"/>
		<path class="st1" d="M142.9,97.9c-0.1-0.7-0.5-1.5-1.4-2.2c-0.9-0.7-2-1-3-1.1c-1-0.1-1.7-0.1-1.7-0.1s0.1,0.2,0.2,0.4
			c0.1,0.2,0.3,0.6,0.5,1c0.4,0.8,1.1,1.7,1.9,2.4c0.8,0.7,1.7,0.9,2.4,1c0.7,0.1,1.2-0.1,1.2-0.1S143,98.6,142.9,97.9z"/>
		<path class="st1" d="M144.3,95.4c-0.7,0.9-0.9,1.8-0.9,2.5c-0.1,0.7,0.1,1.2,0.1,1.2s0.5,0.1,1.2,0c0.7-0.1,1.6-0.4,2.3-1.3
			c0.7-0.9,1.1-2.2,1.3-3.3c0.1-0.5,0.2-1,0.2-1.4c0-0.4,0-0.6,0-0.6s-0.7,0.3-1.6,0.8C146.1,93.7,145,94.5,144.3,95.4z"/>
		<path class="st1" d="M135.6,89.7c0,0,0.1,0.1,0.2,0.4c0.2,0.2,0.3,0.5,0.6,0.9c0.5,0.7,1.3,1.5,2.2,2.1c0.9,0.5,1.8,0.7,2.5,0.6
			c0.7,0,1.2-0.2,1.2-0.2s0-0.5-0.2-1.2c-0.2-0.7-0.7-1.5-1.7-2c-1-0.5-2.2-0.7-3.1-0.7C136.3,89.6,135.6,89.7,135.6,89.7z"/>
		<path class="st1" d="M146.9,86.1c0,0-0.7,0.4-1.4,1c-0.8,0.6-1.7,1.5-2.3,2.5c-0.6,1-0.6,1.9-0.6,2.6c0,0.7,0.2,1.2,0.2,1.2
			s0.5,0,1.2-0.2c0.7-0.2,1.5-0.6,2.1-1.6c0.6-1,0.8-2.3,0.9-3.5c0-0.6,0-1.1,0-1.4C147,86.3,146.9,86.1,146.9,86.1z"/>
		<path class="st1" d="M140,85.8c-0.3-0.3-0.7-0.6-1.2-0.8c-1-0.4-2.2-0.4-3.2-0.3c-1,0.1-1.7,0.3-1.7,0.3s0.1,0.1,0.3,0.3
			c0.2,0.2,0.4,0.5,0.7,0.8c0.3,0.3,0.7,0.6,1.1,1c0.4,0.3,0.8,0.6,1.3,0.8c1,0.4,1.9,0.4,2.6,0.3c0.7-0.1,1.1-0.4,1.1-0.4
			s-0.1-0.5-0.4-1.1C140.5,86.5,140.3,86.2,140,85.8z"/>
		<path class="st1" d="M144.7,80.6c-0.1-0.4-0.1-0.6-0.1-0.6s-0.6,0.5-1.3,1.2c-0.7,0.7-1.5,1.7-1.9,2.8c-0.2,0.5-0.3,1-0.3,1.5
			c0,0.5,0,0.9,0.1,1.2c0.1,0.7,0.4,1.1,0.4,1.1s0.5,0,1.1-0.3c0.6-0.3,1.4-0.8,1.8-1.9c0.2-0.5,0.4-1.1,0.4-1.8c0-0.6,0-1.2,0-1.8
			C144.9,81.4,144.8,80.9,144.7,80.6z"/>
		<path class="st1" d="M136.3,80.1c-2.1-0.5-4.9,0.7-4.9,0.7s0.4,0.5,1.1,1c0.3,0.3,0.8,0.5,1.2,0.8c0.4,0.3,0.9,0.5,1.4,0.6
			c1,0.3,1.9,0.1,2.6-0.1c0.7-0.2,1.1-0.5,1.1-0.5s-0.1-0.5-0.5-1.1C138,81,137.4,80.3,136.3,80.1z"/>
		<path class="st1" d="M141.4,74.3c0,0-2.1,2.2-2.7,4.3c-0.2,1.1-0.1,2,0.1,2.7c0.2,0.7,0.6,1.1,0.6,1.1s0.5-0.1,1.1-0.5
			c0.6-0.4,1.3-1,1.6-2.1c0.2-0.6,0.2-1.2,0.2-1.8c0-0.6-0.1-1.2-0.3-1.8C141.7,75.1,141.4,74.3,141.4,74.3z"/>
		<path class="st1" d="M62.5,75.2c-1.1,2.1,0.3,3.9,0.3,3.9s2.3,0.1,3.4-2c1.1-2.1,0.6-5.6,0.6-5.6S63.6,73.1,62.5,75.2z"/>
		<path class="st1" d="M133.1,71.6c0,0-0.5,3.5,0.6,5.6c1.1,2.1,3.4,2,3.4,2s1.4-1.8,0.3-3.9C136.3,73.1,133.1,71.6,133.1,71.6z"/>
		<path class="st1" d="M94.6,57.9h10.7l-0.7-4.8h0c-0.2,0.1-0.3,0.2-0.5,0.2h-8.2c-0.2,0-0.4-0.1-0.5-0.2h0L94.6,57.9z"/>
		<path class="st2" d="M111.8,130.6V95.7c0-3.6-1.4-7.1-3.8-9.7c-1.3-1.4-2.1-3.2-2.2-5.2l-0.1-2l-0.5-9.4l-0.6-9.9l0-0.2h-9.3
			l0,0.2l-0.5,9.9l0,0.5l-0.5,8.9h0l-0.1,2c-0.1,1.9-0.9,3.8-2.2,5.2c-2.4,2.6-3.8,6.1-3.8,9.7v34.9c0,1.7,1.4,3.1,3.1,3.1h17.4
			C110.4,133.7,111.8,132.3,111.8,130.6z M95.5,74.7c0-3.5,2-6.3,4.5-6.3c2.5,0,4.5,2.8,4.5,6.3c0,3.5-2,6.3-4.5,6.3
			C97.5,81,95.5,78.2,95.5,74.7z M89.8,113.5v-1.4v-5.3v-1.4c0-5.6,4.5-10.1,10.1-10.1h0.2c5.6,0,10.1,4.5,10.1,10.1v1.4v5.3v1.4
			c0,5.6-4.5,10.1-10.1,10.1h-0.2C94.3,123.5,89.8,119,89.8,113.5z"/>
		<path class="st2" d="M104.1,53.3c0.2,0,0.4-0.1,0.5-0.2c0.3-0.2,0.5-0.5,0.5-0.9v0c0-0.6-0.4-1.1-1-1.1h-8.2c-0.6,0-1,0.5-1,1.1v0
			c0,0.4,0.2,0.7,0.5,0.9c0.2,0.1,0.3,0.2,0.5,0.2H104.1z"/>
		<path class="st1" d="M94.3,106.8v-1.4c0-3.1,2.5-5.6,5.6-5.6h0.2c3.1,0,5.6,2.5,5.6,5.6v1.4h3.5v-1.4c0-5.1-4.1-9.2-9.2-9.2h-0.2
			c-5.1,0-9.2,4.1-9.2,9.2v1.4H94.3z"/>
		<path class="st1" d="M99.9,122.6h0.2c5.1,0,9.2-4.1,9.2-9.2v-1.4h-3.5v1.4c0,3.1-2.5,5.6-5.6,5.6h-0.2c-3.1,0-5.6-2.5-5.6-5.6
			v-1.4h-3.5v1.4C90.7,118.5,94.8,122.6,99.9,122.6z"/>
		<path class="st0" d="M104.8,106.8v-1.4c0-2.6-2.1-4.7-4.7-4.7h-0.2c-2.6,0-4.7,2.1-4.7,4.7v1.4H104.8z"/>
		<path class="st0" d="M95.2,112.1v1.4c0,2.6,2.1,4.7,4.7,4.7h0.2c2.6,0,4.7-2.1,4.7-4.7v-1.4H95.2z"/>
		<rect x="90.7" y="107.6" class="st2" width="18.6" height="3.5"/>
		<path class="st0" d="M103.4,74.7c0-2.6-1.5-4.7-3.4-4.7c-1.9,0-3.4,2.1-3.4,4.7c0,2.6,1.5,4.7,3.4,4.7
			C101.9,79.4,103.4,77.3,103.4,74.7z"/>
		<path class="st0" d="M68.9,62.9c-0.3-0.1-0.6-0.1-0.9-0.1c-0.3,0.1-0.6,0.2-0.9,0.4s-0.6,0.4-1,0.8c-0.3,0.3-0.6,0.6-0.8,0.9
			c-0.2,0.3-0.4,0.6-0.5,1c-0.1,0.3-0.1,0.6,0,0.9c0.1,0.3,0.2,0.6,0.5,0.9l4.5,4.8c0.3,0.3,0.6,0.5,0.9,0.6c0.3,0.1,0.6,0.1,0.9,0
			c0.3-0.1,0.6-0.2,1-0.4c0.3-0.2,0.7-0.5,1-0.8c0.3-0.3,0.6-0.6,0.8-0.9c0.2-0.3,0.4-0.6,0.5-0.9c0.1-0.3,0.1-0.6,0-0.9
			c-0.1-0.3-0.3-0.6-0.5-0.9l-1.5-1.6c-0.3-0.3-0.6-0.4-1-0.4c-0.4,0-0.8,0.2-1.3,0.6c0.4-0.5,0.6-0.9,0.7-1.3
			c0-0.4-0.1-0.7-0.5-1.1l-0.9-1C69.5,63.2,69.2,63,68.9,62.9z M69.1,67.5l-0.4,0.4l-1.8-1.9c-0.3-0.3-0.3-0.6,0.1-1
			c0.4-0.3,0.7-0.3,1,0l1.2,1.2c0.2,0.2,0.3,0.5,0.3,0.7C69.4,67.1,69.3,67.3,69.1,67.5z M71.2,68.4l1.5,1.6c0.3,0.3,0.3,0.6-0.1,1
			c-0.4,0.3-0.7,0.3-1,0l-2.2-2.4l0.4-0.4C70.3,67.9,70.8,67.9,71.2,68.4z"/>
		<polygon class="st0" points="75.2,57.5 70.6,60.5 76.3,69.1 80.9,66.1 80.1,64.9 77.6,66.6 75.6,63.6 78,62 77.3,60.9 74.9,62.5 
			73.5,60.3 75.9,58.7 		"/>
		<path class="st0" d="M80.5,56c0.4-0.2,0.7-0.1,0.9,0.3l0.6,1.4l2.1-0.9l-0.5-1.2c-0.2-0.4-0.4-0.7-0.6-0.9
			c-0.2-0.2-0.5-0.3-0.8-0.4c-0.3,0-0.6,0-1,0.1c-0.4,0.1-0.7,0.2-1.2,0.4c-0.9,0.4-1.5,0.9-1.9,1.3c-0.3,0.5-0.3,1.1,0,1.8l0.4,0.9
			c0.2,0.4,0.4,0.7,0.6,0.9c0.3,0.2,0.6,0.4,1.1,0.5l2.6,0.7c0.3,0.1,0.5,0.2,0.6,0.3c0.2,0.2,0.3,0.3,0.4,0.5l0.4,0.8
			c0.1,0.3,0.1,0.5,0.1,0.6c-0.1,0.2-0.2,0.3-0.4,0.4c-0.4,0.2-0.7,0.1-0.9-0.3l-0.8-1.7L80,62.5l0.7,1.5c0.2,0.4,0.4,0.7,0.6,0.9
			c0.2,0.2,0.5,0.3,0.8,0.4c0.3,0,0.6,0,1-0.1c0.4-0.1,0.7-0.2,1.2-0.4c0.9-0.4,1.5-0.8,1.9-1.3c0.4-0.5,0.4-1.1,0.1-1.7l-0.5-1.2
			c-0.2-0.4-0.4-0.8-0.7-1c-0.3-0.2-0.6-0.4-1-0.5l-2.7-0.7c-0.1,0-0.2-0.1-0.3-0.1c-0.1,0-0.2-0.1-0.2-0.2
			c-0.1-0.1-0.1-0.1-0.2-0.2c-0.1-0.1-0.1-0.2-0.2-0.3l-0.3-0.6C80,56.5,80.1,56.2,80.5,56z"/>
		<polygon class="st0" points="90.9,51.6 84.7,53.2 85,54.5 86.9,54 89.2,62.7 91.5,62.1 89.3,53.4 91.2,52.9 		"/>
		<path class="st0" d="M114.4,53.1c-0.2-0.2-0.5-0.4-0.8-0.6c-0.3-0.2-0.7-0.3-1.1-0.4c-0.4-0.1-0.9-0.2-1.3-0.2
			c-0.4,0-0.8,0-1.1,0.1c-0.3,0.1-0.6,0.2-0.8,0.5c-0.2,0.2-0.4,0.5-0.5,0.9l-1.6,6.4c-0.1,0.4-0.1,0.7,0,1.1
			c0.1,0.3,0.3,0.6,0.5,0.8c0.2,0.2,0.5,0.4,0.9,0.6c0.4,0.2,0.8,0.3,1.2,0.4c0.4,0.1,0.8,0.2,1.2,0.2c0.4,0,0.7,0,1-0.1
			c0.3-0.1,0.6-0.3,0.8-0.5c0.2-0.2,0.4-0.5,0.5-0.9l0.6-2.2c0.1-0.4,0-0.7-0.2-1c-0.2-0.3-0.6-0.6-1.2-0.8c0.6,0.1,1.1,0.1,1.4-0.1
			c0.3-0.2,0.6-0.5,0.7-1l0.3-1.3c0.1-0.4,0.1-0.8,0-1.1C114.8,53.6,114.7,53.4,114.4,53.1z M111.5,58.8l-0.6,2.2
			c-0.1,0.4-0.4,0.6-0.9,0.5c-0.5-0.1-0.6-0.4-0.5-0.8l0.8-3.1l0.5,0.1C111.4,57.8,111.7,58.2,111.5,58.8z M112.7,54.2l-0.4,1.6
			c-0.1,0.3-0.2,0.5-0.4,0.6c-0.2,0.1-0.4,0.1-0.7,0l-0.5-0.1l0.6-2.5c0.1-0.4,0.4-0.6,0.9-0.5C112.6,53.5,112.8,53.8,112.7,54.2z"
			/>
		<polygon class="st0" points="113.6,63.5 118.6,65.7 119.2,64.4 116.5,63.2 117.9,60 120.5,61.2 121.1,59.9 118.5,58.8 119.5,56.4 
			122.2,57.6 122.8,56.3 117.8,54.1 		"/>
		<polygon class="st0" points="119.3,66.1 123.8,69.1 124.6,67.9 122.1,66.3 124.1,63.3 126.5,64.9 127.2,63.8 124.8,62.2 126.2,60 
			128.7,61.7 129.5,60.5 124.9,57.5 		"/>
		<path class="st0" d="M134.8,64.9c-0.2-0.3-0.5-0.6-0.8-0.9c-0.3-0.3-0.7-0.6-1-0.8c-0.3-0.2-0.7-0.4-1-0.4c-0.3-0.1-0.6-0.1-0.9,0
			c-0.3,0.1-0.6,0.3-0.9,0.6l-5.8,6.2l1.8,1.7l3.1-3.3l0.4,0.4c0.4,0.4,0.4,0.9,0,1.3l-2.4,2.6l1.7,1.6l2.6-2.7
			c0.3-0.3,0.4-0.6,0.3-1c-0.1-0.4-0.3-0.8-0.7-1.3c0.5,0.4,0.9,0.6,1.3,0.6c0.4,0,0.7-0.2,1.1-0.6l1.1-1.2c0.3-0.3,0.5-0.6,0.5-0.9
			c0.1-0.3,0.1-0.6,0-0.9C135.2,65.5,135,65.2,134.8,64.9z M133.2,65.9l-1.4,1.5c-0.2,0.2-0.5,0.4-0.7,0.4c-0.2,0-0.4-0.1-0.6-0.3
			l-0.4-0.4l2-2.2c0.3-0.3,0.6-0.3,1,0S133.5,65.6,133.2,65.9z"/>
	</g>
</g>
</svg>
