<?xml version="1.0" encoding="utf-8"?>
<!-- Generator: Adobe Illustrator 24.1.2, SVG Export Plug-In . SVG Version: 6.00 Build 0)  -->
<svg version="1.1" id="Objects" xmlns="http://www.w3.org/2000/svg" xmlns:xlink="http://www.w3.org/1999/xlink" x="0px" y="0px"
	 viewBox="0 0 500 500" style="enable-background:new 0 0 500 500;" xml:space="preserve">
<style type="text/css">
	.st0{fill:#FCB641;}
	.st1{fill:#FFFFFF;}
	.st2{fill:#E8940F;}
	.st3{fill:#B36D00;}
	.st4{fill:#FDD403;}
	.st5{fill:#3B1100;}
	.st6{fill:#BED724;}
	.st7{fill:#60A43A;}
	.st8{fill:#87431F;}
	.st9{fill:#B2832B;}
	.st10{fill:#572B14;}
	.st11{fill:#D95E55;}
	.st12{fill:#C2392F;}
	.st13{fill:#912B23;}
	.st14{fill:#FFFEFF;}
	.st15{fill:#ED9F03;}
</style>
<g>
	<g>
		<g>
			<g>
				<path class="st0" d="M350.5,308.9c-0.1-0.5-0.1-1.1-0.2-1.7c-0.9,1.3-2.4,2.2-3.6,3.1c-2.8,1.8-5.8,3.3-9,4.4
					c-0.2,0.1-0.4-0.3-0.2-0.4c2.1-1.2,4.2-2.5,6.2-3.9c2.2-1.6,5-3.4,5.8-6.1c0-0.1,0.1-0.2,0.2-0.3c-0.3-1.5-0.6-2.9-1-3.7
					c-5-15.2-28.1-17.7-42-19.5c-34.3-4.4-69.1-5.3-103.5-2c-9.1,0.9-18.3,2-27.3,3.4c-6.4,1-13,2.5-18.8,5.4
					c-6.6,3.4-11.5,8.9-12.9,16.3c-0.1,0.5-0.2,0.9-0.2,1.4c3.6,5.3,8.6,8.2,14.8,9.7c0.2,0,0.1,0.3,0,0.3c-5.8,0.1-11.3-2.9-15-7.2
					c-0.1,1.1-0.1,2.2-0.1,3.3c0,0.9,0.2,2.1,0.2,3c0.3,4.1,1.1,8.2,1.9,12.1c4.5,12.4,16.4,21.5,29,26c16.6,5.9,35,7.8,52.5,8.7
					c18.2,0.9,36.6,0,54.7-2.3c9.6-1.2,19.2-2.9,28.6-4.9c8.3-1.8,17-3.4,24.2-8.1C347.2,337.5,352.8,323,350.5,308.9z"/>
				<path class="st1" d="M186.5,347.6c-4.1-1-7.2-3.2-10.8-5.1c-2.9-1.5-5.8-3-8.7-4.6c-6.1-3.3-12.3-7.1-17.3-12
					c-0.4-0.4-1.2,0.1-0.9,0.7c4.3,6.3,8.9,11.7,15.5,15.8c6.2,3.8,14.2,8.3,21.8,7.5C187.5,349.9,188,347.9,186.5,347.6z"/>
				<path class="st2" d="M350.5,308.9c-0.1-0.5-0.1-1.1-0.2-1.7c-0.9,1.3-2.4,2.2-3.6,3.1c-2.8,1.8-5.8,3.3-9,4.4
					c-0.2,0.1-0.4-0.3-0.2-0.4c2.1-1.2,4.2-2.5,6.2-3.9c2.2-1.6,5-3.4,5.8-6.1c0-0.1,0.1-0.2,0.2-0.3c-0.3-1.5-0.6-2.9-1-3.7
					c-5-15.2-28.1-17.7-42-19.5c-34.3-4.4-69.1-5.3-103.5-2c-9.1,0.9-18.3,2-27.3,3.4c-6.4,1-13,2.5-18.8,5.4
					c-5.2,2.7-9.3,6.6-11.5,11.8c0.1,0.5,0.2,1,0.3,1.5c0.9,4.7,5.3,9.3,9.7,13.2c1,0.4,2.1,0.7,3.2,1c0.2,0,0.1,0.3,0,0.3
					c-0.6,0-1.2,0-1.9-0.1c1.8,1.6,3.5,3,4.9,4.3c4,3.8,11.1,9.3,16.8,9.9l10.9,5.5c2.9,1,5.6-0.1,8.5,0.8c2,0.6,3.4,2.4,5.5,2.9
					c2,0.5,4.4-0.6,6.4-0.1c2.2,0.6,3.2,2.9,5.3,3.5c5.6,1.9,9.6-3.1,15-1.9c2.7,0.6,4.3,3.6,7.3,3.8c2.2,0.2,4.8-1.8,6.8-2.3
					c5.6-1.4,8.2,0,13.2,0.5c5.9,0.6,10.3-4,16.1-3.7c4.6,0.2,7.3,2.5,7.5,7.3c0.1,5.2-2.3,6-7,7.7c-11,3.9-22.5,3.8-34.2,3.8
					c-11.5,0-22.4,1.4-33.6,2.2c7,0.8,14.1,1.4,21,1.7c18.2,0.9,36.6,0,54.7-2.3c9.6-1.2,19.2-2.9,28.6-4.9c8.3-1.8,17-3.4,24.2-8.1
					C347.2,337.5,352.8,323,350.5,308.9z"/>
				<path class="st3" d="M350.3,307.2c-0.9,1.3-2.4,2.2-3.6,3.1c-2.8,1.8-5.8,3.3-9,4.4c-0.2,0.1-0.4-0.3-0.2-0.4
					c2.1-1.2,4.2-2.5,6.2-3.9c2.2-1.6,5-3.4,5.8-6.1c0-0.1,0.1-0.2,0.2-0.3c-0.3-1.5-0.6-2.9-1-3.7c-5-15.2-28.1-17.7-42-19.5
					c-11.6-1.5-23.2-2.6-34.8-3.2l4.9,3.4c0,0,48.9,13.6,54.4,21.2c5.5,7.6,9.6,18.1-4.5,34.8c-11.4,13.5-39.3,20.3-50.6,22.7
					c1.9-0.2,3.9-0.4,5.8-0.7c9.6-1.2,19.2-2.9,28.6-4.9c8.3-1.8,17-3.4,24.2-8.1c12.5-8.2,18-22.7,15.7-36.8
					C350.4,308.4,350.3,307.8,350.3,307.2z"/>
				<g>
					<path class="st4" d="M350.5,308.9c-0.1-0.5-0.1-1.1-0.2-1.7c-0.7,1-1.8,1.8-2.8,2.5c0.1,0.9,0.1,1.8,0.1,2.7
						c-0.4,11.3-4,24.1-14.6,30.7c-7.9,4.9-30.9,11.4-42.6,14.5c6.8-1,13.5-2.3,20.2-3.7c8.3-1.8,17-3.4,24.2-8.1
						C347.2,337.5,352.8,323,350.5,308.9z"/>
					<path class="st4" d="M347.2,307.7c1.1-1,2-2.1,2.4-3.4c0-0.1,0.1-0.2,0.2-0.3c-0.3-1.5-0.6-2.9-1-3.7
						c-5-15.2-28.1-17.7-42-19.5c-13-1.7-26-2.8-39.1-3.5c1.2,0.4,3.1,0.6,5.8,0.9C331.9,282.9,345,296.7,347.2,307.7z"/>
				</g>
				<g>
					<path class="st5" d="M351.4,302.6c-2.4-12.8-17-19.3-29-21.5c-19-3.5-38.6-5.1-57.9-5.9c-19.9-0.8-39.8-0.4-59.7,1.4
						c-9.7,0.9-19.3,2-28.9,3.5c-6.8,1.1-13.7,2.6-19.8,5.7c-6.6,3.4-11.8,9-13.6,16.3c-0.2,1-0.4,1.9-0.5,2.9
						c-0.1,0.2-0.2,0.4-0.1,0.7c-0.4,3.8-0.1,7.6,0.7,11.4c-0.7,13.5,8.9,25.7,20.3,32.4c16,9.4,36.3,11.7,54.4,13.3
						c20.5,1.8,41.2,1.2,61.6-1.2c10.3-1.2,20.6-2.9,30.8-5.1c8.8-1.8,18.1-3.4,25.8-8.3C350.6,338.4,357.1,319.4,351.4,302.6z
						 M334.7,345.7c-7.2,4.7-15.9,6.4-24.2,8.1c-9.5,2-19,3.7-28.6,4.9c-18.1,2.3-36.4,3.3-54.7,2.3c-17.5-0.9-35.9-2.8-52.5-8.7
						c-12.6-4.5-24.5-13.7-29-26c-0.8-3.9-1.5-8-1.9-12.1c0-0.9-0.1-2.1-0.2-3c0-1.1,0-2.2,0.1-3.3c3.8,4.3,9.2,7.3,15,7.2
						c0.2,0,0.2-0.2,0-0.3c-6.1-1.6-11.2-4.4-14.8-9.7c0.1-0.5,0.1-0.9,0.2-1.4c1.5-7.4,6.3-12.9,12.9-16.3c5.8-3,12.4-4.4,18.8-5.4
						c9.1-1.5,18.2-2.6,27.3-3.4c34.4-3.2,69.2-2.4,103.5,2c13.8,1.8,37,4.3,42,19.5c0.3,0.9,0.7,2.2,1,3.7
						c-0.1,0.1-0.1,0.2-0.2,0.3c-0.8,2.7-3.7,4.5-5.8,6.1c-2,1.5-4.1,2.7-6.2,3.9c-0.2,0.1-0.1,0.4,0.2,0.4c3.1-1.1,6.2-2.6,9-4.4
						c1.2-0.8,2.7-1.8,3.6-3.1c0.1,0.6,0.2,1.2,0.2,1.7C352.8,323,347.2,337.5,334.7,345.7z"/>
					<path class="st5" d="M244,324.1c-13-0.5-26-0.4-39-1.1c-12.2-0.7-26.8-0.2-37.9-5.8c-0.3-0.1-0.5,0.2-0.2,0.4
						c10.9,5.8,22.9,6.6,35,7.4c14,1,28.2,1.6,42.2,0.5C244.8,325.3,244.8,324.1,244,324.1z"/>
					<path class="st5" d="M323.9,317.3c-11.5,1.6-22.9,3.7-34.4,5.2c-10.6,1.4-21.3,2-31.8,3.7c-0.2,0-0.1,0.3,0,0.3
						c11.3,0.5,22.9-1,34.1-2.4c10.9-1.4,21.8-2.9,32.4-5.7C325.1,318.3,324.7,317.2,323.9,317.3z"/>
				</g>
			</g>
			<g>
				<path class="st6" d="M362.3,306.3c-0.4,0.2-0.9,0.3-1.5,0.3c-2.9-0.7-5.2-1.9-7.6-3.8c-2.2-1.6-4.2-3.2-6.9-3.9
					c-0.4-0.1-0.6,0.5-0.2,0.6c4.4,1.5,7.4,6.9,11.7,8.5c0,0.1-0.1,0.1-0.1,0.2c-0.5,1.6,1.1,3,2,4c1.6,1.8,3,3.3,0.5,5
					c-2.8,1.9-4.2-0.3-6.9-1.4c-1.5-0.6-3-1.3-4.6-1.5c-2-0.2-3.7,0.5-5.1,1.8c-1.9,1.7-2.1,2.9-4.7,3.5c-2.1,0.5-3.6-0.2-5-1.3
					c0-0.1-0.1-0.1-0.1-0.2c-1.9-2-3.1-4.5-5-6.4c-2.4-2.4-5.2-3.9-7-7c-0.3-0.4-0.9-0.1-0.7,0.4c1.6,3.1,4.1,4.9,6.3,7.5
					c1,1.2,1.8,2.6,2.7,3.9c0,0,0,0.1-0.1,0.1c-0.5,1.8-0.8,3.5-0.8,5.3c-3.4-1.1-7.1-1.9-10.5-0.3c-2.1,1-3.6,3-5.6,4.2
					c-2,1.1-5.7-0.5-6.3-0.8c-0.5-0.2-1-0.4-1.5-0.5c-1.7-2.8-3.4-5.2-4.3-8.5c-0.1-0.5-0.8-0.3-0.7,0.2c0.5,2.7,1.3,5.7,2.7,8.2
					c-0.2,0-0.3,0.1-0.4,0.3c-0.1,0-0.3,0.1-0.4,0.2c-0.9,0.4-1.1,0.9-1.8,1.4c-0.3,0.2-0.4,0.7-0.7,1c-3.6,3-4.9,1.1-7-0.6
					c-2.2-1.9-7.1-4.4-8.7-0.2c-0.6,1.5,0.5,2.1,0.8,3.4c1.6,7-4.9,4.2-8.8,3c-1.4-3.5-1.9-7.2-3.5-10.6c-1.9-3.9-4.4-7.5-6.9-11
					c-0.2-0.3-0.7,0-0.5,0.3c2.4,4.1,4.8,8.2,6.4,12.7c1,2.7,1.4,5.6,2.5,8.2c-2.5-0.1-3.5,1.3-5.7,2.3c-3.9,1.9-4.1-1.4-7-2
					c-2-0.5-3.8,0.7-5.4,1.8c-2,1.4-4.3,2.9-6.5,0.9c-0.9-0.9-1.4-2-2.4-2.8c-1.4-1-2.9-1.2-4.5-0.8c-3.5,0.8-5.8,3-9.6,3
					c-2.8,0-5.1-0.4-7.8,0.6c-1.2,0.5-2.2,1.2-3.3,1.7c-3.2,1.6-5.8,1.4-8-1.7c-0.9-1.2-1.8-2.5-3.2-3.2c1.6-3.6,2-7.8,2.1-11.7
					c0-0.6-0.9-0.6-0.9,0c-0.5,3.9-1.9,7.5-3,11.3c-1.9,0-3.5,1.2-5.4,1.4c-3.1,0.4-5.2-2-8.1-1c-2.2,0.8-4.4,1.9-6.5,0.1
					c-0.9-0.7-1.3-1.9-2.3-2.6c-0.1,0-0.1-0.1-0.2-0.1c0.6-1.2,1.5-2.1,2.1-3.3c0.6-1.2,0.8-2.5,1-3.8c0.7-4.3,1.7-8.2,3.1-12.3
					c0.2-0.5-0.7-0.8-0.9-0.2c-1.5,4-2.8,8-3.9,12.2c-0.6,2.3-2.2,4.5-2.7,6.8c-0.9-0.3-1.8-0.2-2.8,0.2c-1.2,0.5-2,1.7-3.2,2.2
					c-4.6,2-4.8-2.7-4.8-5.3c0-0.8-0.9-1.1-1.5-0.6c-1,0.8-1.9,1.6-2.7,2.7c-0.2,0.3-1.2,2.3-1.3,2.3c-1,0.1-2.3-3.1-3.3-3.6
					c-1.4-0.8-2.7-0.4-4.1-0.2c-2.3,0.4-4.2,0.8-6-1c-1.8-1.9-1.9-4.9-2.1-7.4c0,0,0-0.1,0-0.1c0.5-0.6,1.1-1.2,1.6-1.8
					c0.6-0.9,1.1-1.8,1.6-2.8c1-2.1,1.8-4.4,3.8-5.9c0.5-0.4,0-1.2-0.5-0.8c-2,1.5-3.2,3.5-4.4,5.6c-1,1.6-2.5,3.2-3.2,5
					c-2,0.1-2.9,1.7-4.7,2.1c-3,0.8-3.5-3-5.6-4c-1.8-0.9-3.8-0.5-5.6-0.6c-2.4,0.1-3.5-1.4-3.3-4.5c0.1-0.2,0.2-0.5,0.3-0.7
					c0,0,0-0.1,0-0.1c0-0.1,0.1-0.2,0.1-0.3c0-0.2,0-0.5,0-0.7c0.8-2.1,5.8-4.1,7.3-5.1c2.1-1.4,4.1-2.9,6.1-4.5
					c0.4-0.3-0.1-0.9-0.5-0.6c-3.4,2.5-7.1,4.8-11,6.5c-1.2,0.5-2.5,1-3.3,1.9c-1-0.3-2.2-0.3-2.6-1.7c-0.6-2.1,2.5-4.4,2.5-6.5
					c0-2.1-3.5-5-1.1-6.9c0.8-0.6,5.1,0.2,6.2,0.2c2.1,0.1,4.1,0.1,6.2,0.1c0.4,0,0.4-0.5,0-0.6c-0.9-0.1-1.8-0.2-2.6-0.3
					c0.9-0.5,1.7-1.2,2.3-1.9c2.1-2.5,1.6-3.5,6.2-2.9c1.2,0.2,1.5,0.7,2.8,0.5c1.3-0.2,2.3-1.1,3.2-2c0.8-0.8,1.5-1.9,2.4-2.7
					c2.5-2.2,4.5-1.3,7.2-0.3c2.1,0.8,3.8,1.1,6,0.5c2.1-0.6,4-1.8,6.1-2.7c2.8-1.2,4.4-1.1,6.9,0.7c0.7,0.5,1.3,1.1,2.2,1.3
					c4,1.1,5.6-3.5,8.8-4.7c2.5-1,4.3,1.5,6.6,0.4c2.7-1.2,2.6-5.5,6.9-3.4c1.6,0.8,2.7,2.2,4.5,2.5c1.4,0.2,2.5-0.2,3.8-0.5
					c2.6-0.6,4.3-0.7,7-0.4c3.5,0.5,7.3,0.6,9.3-2.3c3.4,3.1,8.1-1.6,12.1-0.8c2.7,0.5,4.8,2.9,7.6,3.2c1.1,0.1,1.6-0.2,2.7-0.3
					c2.1-0.3,3.8-0.3,5.8,0.3c2,0.5,2.9,1,4.8-0.1c2.6-1.4,1.8-3,6.7-2.5c1.8,0.2,3.7,1.2,5.5,1.6c3.4,0.8,7,0.9,10.5,0.4
					c4-0.6,8.7-3.4,12.4-0.4c1.5,1.2,2.4,2.7,4.4,3.2c1.2,0.3,2.3,0,3.5-0.3c0.7-0.2,1.5-0.4,2.2-0.7c2-0.1,3.6,0.5,4.8,1.8
					c2.3,0.9,3.3,1.1,5.8,0.7c4-0.7,7.1,0.4,10.6,2.1c2.2,1.1,4.5,2.3,7,2.9c2.6,0.6,7.1-0.8,8.8,1.3c1.4,1.8,1.6,3.9,3,5.6
					c-0.4,0.4-0.6,1.2,0.1,1.5c1.3,0.7,2.6,1.3,4,1.7c1.6,0.4,3.3,0.1,4.8,0.5c1.3,0.4,3.2,2.6,3.1,3.7c0,0.2-0.5,0.4-0.5,0.7
					c-0.1,0.8-0.5,1-0.3,1.8c0.2,0.7,0.6,0.8,1,1.4c0.2,0.4,1.2,0.5,1.4,0.8C365,304.6,363.1,306,362.3,306.3z"/>
				<path class="st1" d="M147,293.8c-4.5-1.5-9.3-0.2-13.9-0.9c-0.6-0.1-1,0.7-0.4,1c4.3,2.4,9.3,1.6,14,2.1
					C148,296.1,148.1,294.2,147,293.8z"/>
				<path class="st1" d="M155.5,296.8c-7,3.4-14.1,8-19.7,13.5c-0.5,0.5,0.1,1.2,0.7,0.9c6.8-3.9,13.5-8.4,20-12.7
					C157.6,297.8,156.7,296.2,155.5,296.8z"/>
				<path class="st1" d="M164,306.6c-3,4.7-6.6,9.4-8.4,14.8c-0.5,1.3,1.4,1.9,2.2,0.9c3.2-4.5,5-10.1,7.3-15.1
					C165.4,306.5,164.5,306,164,306.6z"/>
				<path class="st1" d="M163.7,316.6c-1,1.9-2,3.9-3,5.8c-0.5,1,1,1.6,1.4,0.6c0.8-2,1.6-4.1,2.3-6.1
					C164.6,316.4,163.9,316.2,163.7,316.6z"/>
				<path class="st1" d="M195.1,313.5c-0.8,2.7-1.4,5.4-2.1,8c-0.7,2.4-1.6,4.9-1.5,7.4c0,1.4,2.2,2.2,2.9,0.8
					c2.1-4.6,1.9-11,2.1-16C196.4,312.9,195.3,312.7,195.1,313.5z"/>
				<path class="st7" d="M356.4,300.2c-0.4-1.1,0.5-2.6,0.4-2.9c-1-3.1-4.6-0.8-7.6-1.6c-4.7-1.2-2.5-6.1-5.3-8.9
					c-2.7-2.8-7.9-0.7-11.2-1.1c-2.9-0.3-3.7-1.7-6.2-2.5c-3.4-1.1-6.8,0.9-10.1,0.3c-3.3-0.5-3.6-1.7-7.1-1c-2,0.4-4.6,1.6-6.8,0.9
					c-1.8-0.6-2.8-2.8-4.5-3.6c-4.3-2-7.2,0.3-10.7,2.3c-4.4,2.6-8.5,1.1-13-0.6c-1.8-0.7-2.6-1.7-4.7-0.8c-2.2,0.9-1.4,2.2-2.8,3.6
					c-5,4.9-7.7-1.7-12.3-2.7c-3.9-0.8-4.6,1.6-8.3-1.6c-2.1-1.8-2.6-3.4-5.7-2.8c-3.9,0.7-4,3.5-5,6.5c-1.1,3.2-0.2,2.5-3.8,2.3
					c-0.7,0-1.4-0.1-2.1-0.1c-0.2-0.2-0.4-0.5-0.7-0.7c-1.7-1.4-1.9-1.2-4.1-1.7c-2.5-0.6-4.8-1.2-7.4-1c-4.4,0.4-9.8,3.1-11.7,7.4
					c-1.1,2.7-0.3,4.6-2.3,7c-1.5,1.7-6.7,7.2-1.3,8.7c0.7-0.9,2.8-1.5,3.9-0.9c2.6,1.5,0.8,3.9,0.5,5.9c-0.3,2,0.2,4-0.3,5.9
					c-0.6,2.1-3,4.4-1.7,6.8c1.3,2.7,5.5,2.3,7.1,0c2.1-2.9,1.3-7.3,4.8-9.4c1.3-0.8,3-0.2,4.2-0.8c1.1-0.6,1.2-2,2.5-2.4
					c2.7-1.1,4.8,0.8,6.5,2.8c-0.1,3.7-1.7,7.1-2.5,10.7c-0.2,1-1.3,4.8-0.3,5.7c2.2,1.8,4.3-2.4,4.7-3.8c0.6-1.9,1.2-8.7,5.3-7
					c1.3,0.5,1.2,2.1,2.1,3c1.4-1.4,1.9-4.3,3.8-5.1c2.6-1.1,2.8,0.6,4.4,1.7l-0.4,0.2c1.2,2.7,0.7,10.8,4.5,11.5
					c4,0.8,3.8-5.1,6.7-5.8c2.5-0.6,2.9,2.6,4.7,3.7c2.6,1.5,2.5-0.8,4.5-0.8c1.6,0,2.4,1.9,4.1,1.7c2.4-0.2,1.9-2.7,1.2-4.8
					c1.3,1.1,2.9,1.7,4.6,1c4.3-1.7,0.8-10.1,7.6-9.3c1.5,0.2,3.4,1.3,4.6,2.2c0.9,0.6,1.7,0.8,2.5,1.5c0.8,0.8,0.8,2.8,2.2,3.1
					c3.7,0.8,0.6-6.3,4.4-6.8c5.1-0.7,4.5,8.2,8.7,9.4c2.9,0.8,7.1-0.1,8.4-2.9c1.2-2.6-0.1-5.8,3.5-6.8c1.4-0.4,2.5,0.5,3.8,0.1
					c0.3-0.1,2.9-2.2,3-2.6c1.2-2.4-2.9-5-3.7-7.7c3.1,2.1,6.3,9.3,9.8,9.9c0.5,2.7,2.2,1.1,2.9-0.5c1.6-3.8-1.5-5.2,4-5.5
					c2.4-0.1,5.1-0.5,7.4,0c2.5,0.6,5.5,2.3,8.1,2.2c1-5.4-1.8-3.3-4.7-5.8c-2.3-2-1.6-4.7,1.6-4.3c2.9,0.4,6.6,6.4,9.1,1.9
					C359.6,302.7,356.8,301.4,356.4,300.2z"/>
				<g>
					<path class="st5" d="M365.1,301.5c-1.4-1.9,1.8-4.1-0.1-6.6c-0.8-1.1-2-1.5-3.3-1.8c-3.4-0.6-6.3-0.3-9.6-2
						c-1.1-0.6-2.1,1-1,1.7c1.3,0.7,2.6,1.3,4,1.7c1.6,0.4,3.3,0.1,4.8,0.5c1.3,0.4,3.2,2.6,3.1,3.7c0,0.2-0.5,0.4-0.5,0.7
						c-0.1,0.8-0.5,1-0.3,1.8c0.2,0.7,0.6,0.8,1,1.4c0.2,0.4,1.2,0.5,1.4,0.8c0.6,1.2-1.4,2.6-2.1,2.9c-1.4,0.6-3.9,0.1-4.5,2
						c-0.5,1.6,1.1,3,2,4c1.6,1.8,2.9,3.3,0.5,5c-2.8,1.9-4.2-0.3-6.9-1.4c-1.5-0.6-3-1.3-4.6-1.5c-2-0.2-3.7,0.5-5.1,1.8
						c-1.9,1.7-2.1,2.9-4.7,3.5c-3.2,0.8-5.1-1.2-7.2-3.5c-0.5-0.6-1.5-0.3-1.7,0.5c-0.5,1.8-0.8,3.5-0.8,5.3
						c-3.4-1.1-7.1-1.9-10.5-0.3c-2.1,1-3.6,3-5.6,4.2c-2,1.1-5.7-0.5-6.3-0.8c-1.2-0.6-2.4-0.9-3.6-0.6c-0.2-0.2-0.5-0.1-0.6,0.2
						c-0.1,0-0.3,0.1-0.4,0.2c-0.9,0.4-1.1,0.9-1.8,1.4c-0.3,0.2-0.4,0.7-0.7,1c-3.6,3-4.9,1.1-7-0.6c-2.2-1.9-7.1-4.4-8.7-0.2
						c-0.6,1.5,0.5,2.1,0.8,3.4c1.9,8.4-7.9,2.7-10.7,2.6c-2.6-0.1-3.6,1.3-5.8,2.3c-3.9,1.9-4.1-1.4-7-2c-2-0.5-3.8,0.7-5.4,1.8
						c-2,1.4-4.3,2.9-6.5,0.9c-0.9-0.9-1.4-2-2.4-2.8c-1.4-1-2.9-1.2-4.5-0.8c-3.5,0.8-5.8,3-9.6,3c-2.8,0-5.1-0.4-7.8,0.6
						c-1.2,0.5-2.2,1.2-3.3,1.7c-3.2,1.6-5.8,1.4-8-1.7c-1-1.4-1.9-2.8-3.6-3.4c-2.5-0.8-4.5,0.9-6.8,1.2c-3.1,0.4-5.2-2-8.1-1
						c-2.2,0.8-4.4,1.9-6.5,0.1c-0.9-0.7-1.3-1.9-2.3-2.6c-1.3-1-2.7-1.1-4.3-0.5c-1.2,0.5-2,1.7-3.2,2.2c-4.6,2-4.8-2.7-4.8-5.3
						c0-0.8-0.9-1.1-1.5-0.6c-1,0.8-1.9,1.6-2.7,2.7c-0.2,0.3-1.2,2.3-1.3,2.3c-1,0.1-2.3-3.1-3.3-3.6c-1.4-0.8-2.7-0.4-4.1-0.2
						c-2.3,0.4-4.2,0.8-6-1c-1.8-1.9-1.9-4.9-2.1-7.4c0-0.5-0.4-0.8-0.8-0.8c-2.2,0-3.2,1.7-5.1,2.2c-3,0.8-3.5-3-5.6-4
						c-1.8-0.9-3.8-0.5-5.6-0.6c-2.4,0.1-3.5-1.4-3.3-4.5c0.2-0.4,0.3-0.7,0.5-1.1c-0.1-0.4,0.2-0.9,0-1.4c-0.7-1.9-3.3-0.7-3.9-2.9
						c-0.6-2.1,2.5-4.4,2.5-6.5c0-2.1-3.5-5-1.1-6.9c0.8-0.6,5.1,0.2,6.2,0.2c2.1,0.1,4.1,0.1,6.2,0.1c0.4,0,0.4-0.5,0-0.6
						c-2.6-0.3-5.1-0.6-7.7-0.8c-1.7-0.2-4-0.7-5.7-0.4c-1.9,0.3-2.9,1.6-2.4,3.5c0.5,1.8,1.6,2.3,1.8,4.5c0.3,2.5-1,3.2-1.5,5.4
						c-0.5,2,0.1,3.1,1.3,4.4c1,1,0.5-0.6,1.4,1.4c1.2,2.7-0.1-0.1,0,2.2c0,0.9-0.2,1.4,0.3,2.3c1,1.9,3.5,2.6,5.5,2.8
						c1.3,0.1,2.8-0.2,4,0.2c1.3,0.5,2.1,1.9,2.9,2.8c0.7,0.8,0.9,1.6,2,2c2.5,0.9,4.3-1.9,6.7-2.5c0.3,4,1.4,8.9,6,9.7
						c3.4,0.6,5.6-1.8,8.6,1.7c1,1.2,1.2,2.2,3,2.1c0.4,0,0.7-0.3,0.8-0.6c0.6-1.6,1.4-2.9,2.4-4c0.3,2.9,1.4,6.1,4.8,5.9
						c0.8-0.1,1.5-0.4,2.1-0.7c1.8-1,2.2-2,4.5-1.8c2.3,0.2,2.1,0.7,3.4,2.2c0.6,0.7,1.3,1.5,2.2,1.9c2.2,0.9,3.3-0.7,5.3-1.2
						c3.1-0.7,5.7,1.5,8.8,0.7c2.3-0.6,4.7-1.8,7.1-0.4c0.9,0.6,1.7,2.3,2.4,3.2c1.3,1.6,2.8,2.7,5,2.6c2.8-0.2,5.1-2.3,7.6-3.3
						c3.6-1.3,7.4,0.2,11.1-0.9c1.2-0.3,2.2-0.9,3.3-1.5c3-1.4,4.9-1.2,7.2,1.1c1.1,1.1,1.8,2.3,3.4,2.7c2.9,0.7,4.8-1.8,7-3.1
						c3.6-2.2,4.6,2.6,7.9,2.6c2.7,0,4.6-2.9,7.3-3.3c3.8-0.6,6.9,2.5,10.7,1.9c1.7-0.3,3.5-1.4,4.1-3.1c0.3-0.9,0.3-1.7,0-2.6
						c-0.1-0.4-0.6-0.8-0.7-1.1c-0.2-0.3-0.5-0.6-0.8-0.9c0-3.2,1.8-2.9,4.5-1.3c1.2,0.4,2.6,2.3,3.9,2.9c0.8,0.4,1.8,0.6,2.8,0.5
						c2.9-0.4,4-4,6.5-4.5c2.5,2,5.8,2.9,8.9,1.8c2.3-0.9,3.8-2.8,5.9-4.1c3.6-2.2,7.6-0.9,11.2,0.3c0.6,0.2,1.3-0.4,1.3-1
						c0-1.5,0.1-3,0.4-4.4c2.1,2,4.6,3.8,7.6,3.3c5.1-0.9,5.1-7.3,11.7-5.3c3.4,1,6.9,3.9,10.5,1.4c2.4-1.6,2.6-4.2,0.9-6.4
						c-0.3-0.4-1.2-0.9-1.4-1.4c-1.2-2.6,0.6-2,1.9-2.3c1.5-0.3,3-0.8,3.9-2.2C368.3,303.5,366.2,303.1,365.1,301.5z"/>
					<path class="st5" d="M357.7,292.6c-2.9-0.4-5.3-1.8-6.6-4.4c-0.6-1.1-0.8-2.5-1.5-3.5c-0.7-1.1-1.5-1.9-2.8-2.1
						c-2.7-0.6-5.3,0.5-8.2-0.3c-2.8-0.8-5.4-2.5-8.1-3.6c-2.2-0.9-4.4-1.6-6.8-1.6c-1.1,0-1.5,0.3-2.7,0.4
						c-5.4,0.5-3.9-1.1-6.8-2.3c-1.7-0.7-3.2-0.2-4.9,0.2c-3.1,0.7-4.2,0.5-6.8-1.7c-0.8-0.6-1.4-1.4-2.3-1.8
						c-2.1-1.1-4.2-0.6-6.5,0c-3.7,1-7.3,1.8-11.3,1.6c-5.2-0.3-11.1-4.5-15.9-1.1c-2.2,1.6-3,1.8-5.7,1.1c-0.9-0.3-1.4-0.8-2.5-0.9
						c-1.1-0.1-1.7,0.3-2.7,0.5c-2.7,0.4-4,0.7-6.5-0.6c-1.7-0.9-3.3-1.9-5.3-2c-3-0.1-8.4,4.3-10.7,0.7c-0.5-0.7-1.4-0.5-1.7,0.2
						c-1.8,4.4-7.3,2.2-10.6,2c-3.2-0.2-6.6,2-9.7,0.6c-2.7-1.3-4.8-4.5-7.9-2.2c-0.7,0.5-0.9,1.2-1.4,1.7c-1.5,1.4-2.6,1.4-4.6,1.3
						c-1.2-0.1-1.9-0.3-3.1,0.1c-1.6,0.6-2.8,2-4.1,3.1c-1.3,1.1-2.5,2.3-4.6,1.4c-1-0.4-1.9-1.6-3-2.1c-3.4-1.6-6.8,0.7-9.8,2.1
						c-3.8,1.8-5.8,0.9-9.6-0.3c-1.6-0.5-3.1-0.8-4.7-0.1c-1.5,0.6-2.6,1.9-3.6,3c-0.9,1-2,2.6-3.3,2.9c-1.3,0.2-2.9-1.3-4.1-1.3
						c-1.4-0.1-2.4,0.2-3.5,1.1c-1.5,1.3-4.4,8.4-7.3,5.3c-0.2-0.2-0.6,0.1-0.4,0.3c1.9,2.6,4.9,0.7,6.6-1.2
						c2.1-2.5,1.6-3.5,6.2-2.9c1.2,0.2,1.5,0.7,2.8,0.5c1.3-0.2,2.3-1.1,3.2-2c0.8-0.8,1.5-1.9,2.4-2.7c2.5-2.2,4.5-1.3,7.2-0.3
						c2.1,0.8,3.8,1.1,6,0.5c2.1-0.6,4-1.8,6.1-2.7c2.8-1.2,4.4-1.1,6.9,0.7c0.7,0.5,1.3,1.1,2.2,1.3c4,1.1,5.6-3.5,8.8-4.7
						c2.5-1,4.3,1.5,6.6,0.4c2.7-1.2,2.6-5.5,6.9-3.4c1.6,0.8,2.7,2.2,4.5,2.5c1.4,0.2,2.5-0.2,3.8-0.5c2.6-0.6,4.3-0.7,7-0.4
						c3.5,0.5,7.3,0.6,9.3-2.3c3.4,3.1,8.1-1.6,12.1-0.8c2.7,0.5,4.8,2.9,7.6,3.2c1.1,0.1,1.6-0.2,2.7-0.3c2.1-0.3,3.8-0.3,5.8,0.3
						c2,0.5,2.9,1,4.8-0.1c2.6-1.4,1.8-3,6.7-2.5c1.8,0.2,3.7,1.2,5.5,1.6c3.4,0.8,7,0.9,10.5,0.4c4-0.6,8.7-3.4,12.4-0.4
						c1.5,1.2,2.4,2.7,4.4,3.2c1.2,0.3,2.3,0,3.5-0.3c0.7-0.2,1.5-0.4,2.2-0.7c2-0.1,3.6,0.5,4.8,1.8c2.3,0.9,3.3,1.1,5.8,0.7
						c4-0.7,7.1,0.4,10.6,2.1c2.2,1.1,4.5,2.3,7,2.9c2.6,0.6,7.1-0.8,8.8,1.3c1.6,2.1,1.6,4.6,3.8,6.5c1.7,1.5,3.7,2.1,6,2.2
						C358.8,294.3,358.8,292.7,357.7,292.6z"/>
					<path class="st5" d="M145.9,298.1c-3.4,2.5-7.1,4.8-11,6.5c-2.1,0.9-4.6,1.9-3.8,4.6c0.3,1,1.9,0.8,1.8-0.2
						c-0.2-2.3,5.8-4.7,7.4-5.8c2.1-1.4,4.1-2.9,6.1-4.5C146.8,298.5,146.3,297.8,145.9,298.1z"/>
					<path class="st5" d="M159.6,306.6c-2,1.5-3.2,3.5-4.4,5.6c-1.2,2-3.3,3.9-3.6,6.3c-0.1,0.7,0.9,0.7,1.1,0.1
						c0.4-1,1.4-1.7,2-2.6c0.6-0.9,1.1-1.8,1.6-2.8c1-2.1,1.8-4.4,3.8-5.9C160.5,307,160,306.2,159.6,306.6z"/>
					<path class="st5" d="M191.3,309.8c-1.5,4-2.8,8-3.9,12.2c-0.7,2.8-3,5.5-2.8,8.5c0,0.5,0.8,0.7,1,0.1c0.3-1.8,1.7-2.9,2.5-4.5
						c0.6-1.2,0.8-2.5,1-3.8c0.7-4.3,1.7-8.2,3.1-12.3C192.4,309.5,191.5,309.2,191.3,309.8z"/>
					<path class="st5" d="M276.1,333.4c-1.7-3.7-2.1-7.7-3.8-11.4c-1.9-3.9-4.4-7.5-6.9-11c-0.2-0.3-0.7,0-0.5,0.3
						c2.4,4.1,4.8,8.2,6.4,12.7c1.2,3.4,1.5,7.1,3.4,10.2C275.3,335,276.5,334.3,276.1,333.4z"/>
					<path class="st5" d="M333.8,318.1c-1.9-2-3.1-4.5-5-6.4c-2.4-2.4-5.2-3.9-7-7c-0.3-0.4-0.9-0.1-0.7,0.4
						c1.6,3.1,4.1,4.9,6.3,7.5c1.9,2.2,2.8,5.2,5.6,6.6C333.6,319.5,334.4,318.6,333.8,318.1z"/>
					<path class="st5" d="M361.8,306.8c-3.4-0.6-5.9-1.9-8.6-4c-2.2-1.6-4.2-3.2-6.9-3.9c-0.4-0.1-0.6,0.5-0.2,0.6
						c5.6,1.9,9,10.1,15.6,8.9C362.6,308.3,362.6,307,361.8,306.8z"/>
					<path class="st5" d="M305.7,325.2c-1.9-3.1-3.8-5.7-4.8-9.4c-0.1-0.5-0.8-0.3-0.7,0.2c0.7,3.5,1.8,7.5,4.1,10.3
						C304.9,327.2,306.3,326.1,305.7,325.2z"/>
					<path class="st5" d="M211.6,320.3c-0.5,4.1-2,7.7-3.1,11.6c-0.3,1,1.2,1.6,1.6,0.7c1.9-3.8,2.3-8.2,2.4-12.3
						C212.5,319.7,211.6,319.7,211.6,320.3z"/>
				</g>
			</g>
			<g>
				<path class="st8" d="M353.1,285.9c-0.5-2.1-0.9-4.2-1.5-6.2c-1.6,3-5,4.8-8.2,6.1c-6.3,2.5-13,3.6-19.8,4.1
					c-0.4,0-0.5-0.6-0.1-0.7c5.3-1,10.5-2.4,15.5-4.1c4.7-1.6,9.1-3.3,11.7-7.7c-1.2-3-3.1-5.7-6.3-7.7c-5.9-3.7-13.9-4.1-20.5-5.2
					c-14.6-2.3-29.3-3.4-43.9-4.7c-9.3-0.5-18.7-1.1-28-1.3c-13.8-0.2-27.5,0.1-41.2,1.1c-13.4,0.9-26.9,2.1-40,4.9
					c-6.6,1.4-13.2,3.4-19.3,6.3c-5.3,2.5-8.6,5.6-10.1,10.4c0,3.9-0.2,7.7-0.1,11.6c0,3.2-0.2,6.6,2.7,8.8c1.4,1.1,3.3,1.5,5,2.1
					c8.7,2.6,17.5,5.1,26.3,7.4c32.1,8.6,66.8,8.4,99.8,6.2c16.3-1.1,32.9-2.6,48.9-6c7.4-1.6,14.8-3.9,21.5-7.4
					c1.9-1,4.2-2.1,5.6-3.9c1.5-1.8,1.7-4,1.9-6.3C353.3,291.2,353.3,288.5,353.1,285.9z"/>
				<path class="st9" d="M147.5,289.1c-1,1.2-2,11-0.8,12.2c0,0,6.6,0.4,6.5,0.5c1.2-0.7,1.7-3.5,2.6-4.6c1,2.2,1.6,4.6,2.5,6.8
					c2.1-0.3,4.3-4.6,6-6.1c0.5,1.2,0.6,4.2,1.4,5.2c0.8,0.9,1.3,0,2.1,0.5c1.5,1,3.9,2.4,5.5,3.1c2.5,1,6.6,1.3,9.2,1.9
					c3.2,0.8,4,1.2,5.8-1.9c1,2.8,1.2,5.2,4.1,5.7c2.2,0.4,5.9-2,8.6-1.9c-0.3-1.5-0.9-6.2-2-7.3c-1.3-1.4-4.9-1.8-6.9-2.4
					c-1.4-0.5-2.7-1.7-4.3-1.3c-2.2,0.5-2.3,3-4,4.2c-0.9-1.2-1.8-2.5-2.4-3.9c-5.1,2.7-5-1.1-9.3-2.6c-5.8-2-12.5-2.5-17.7-6
					c-0.5,1.2-1.3,2.2-1.9,3.3C152.1,293,151.7,291.6,147.5,289.1z"/>
				<path class="st10" d="M351.6,279.8c-1.6,3-5,4.8-8.2,6.1c-6.3,2.5-13,3.6-19.8,4.1c-0.4,0-0.5-0.6-0.1-0.7
					c5.3-1,10.5-2.4,15.5-4.1c4.7-1.6,9.1-3.3,11.7-7.7c-1.2-3-3.1-5.7-6.3-7.7c-5.9-3.7-13.9-4.1-20.5-5.2
					c-14.6-2.3-29.3-3.4-43.9-4.7c-9.3-0.5-18.7-1.1-28-1.3c-13.8-0.2-27.5,0.1-41.2,1.1c-13.4,0.9-26.9,2.1-40,4.9
					c-6.5,1.4-13,3.4-19,6.2c2.6,6.6,9.7,9.8,16.6,13.2c5.3,2.7,10.3,5.9,15.7,8.5c10.9,5.2,20.3,5.6,32.1,5.6
					c10.8,0,21,2.7,31.7,2.7c13.1,0,26.3-3.5,39.2-2.3c4.9,0.5,7,2.8,6.8,8.6c-0.2,3.3-2.6,5.2-5.4,6.1c-2.1-2.8-2.3-6.6-4.1-9.7
					c-1.3,2.8-0.8,6.7-2.1,9.6c-1.3-1.6-2.1-4-2.8-6c-2.4,1.3-0.8,3-1.6,4.9c-1.1,2.8-2.7,3.4-6,4.4c-2.3,0.7-4.7,1.2-7.1,1.6
					c3.4-0.2,6.9-0.4,10.3-0.6c16.3-1.1,32.9-2.6,48.9-6c7.4-1.6,14.8-3.9,21.5-7.4c1.9-1,4.2-2.1,5.6-3.9c1.5-1.8,1.7-4,1.9-6.3
					c0.2-2.6,0.2-5.3,0-7.9C352.6,283.8,352.2,281.7,351.6,279.8z"/>
				<g>
					<path class="st5" d="M354.3,279.9c-0.1-0.3-0.2-0.5-0.4-0.6c-1-3-2.5-5.9-4.5-8.1c-4.9-5.5-12.6-6.6-19.5-7.8
						c-13-2.2-26.2-3.8-39.4-4.1c-13.8-2-27.8-2.5-41.6-2.7c-15.6-0.2-31.2,0.4-46.8,1.8c-13.9,1.2-28.1,2.6-41.5,6.8
						c-5.4,1.7-11.5,3.8-16,7.4c-3.6,2.9-4.5,6.4-4.6,10.5c-0.4,2.4-0.6,4.9-0.6,7.3c-0.1,3.3-0.5,7.5,1.4,10.5
						c1.4,2.1,3.8,3.2,6.1,3.9c4.4,1.4,8.9,2.5,13.3,3.8c9,2.6,18,5.3,27.2,7.2c9.1,1.9,18.4,2.8,27.7,3.4
						c19.2,1.2,38.4,1.3,57.6,0.1c17.9-1.1,36.3-2.6,53.8-6.7c8.2-1.9,17.7-4.6,24.4-9.9C357.3,298,355.5,286.7,354.3,279.9z
						 M353,293.8c-0.2,2.3-0.5,4.4-1.9,6.3c-1.4,1.7-3.7,2.8-5.6,3.9c-6.7,3.6-14.1,5.8-21.5,7.4c-16,3.5-32.6,5-48.9,6
						c-33,2.2-67.7,2.3-99.8-6.2c-8.8-2.3-17.6-4.8-26.3-7.4c-1.7-0.5-3.6-1-5-2.1c-3-2.2-2.7-5.6-2.7-8.8c0-3.9,0.1-7.7,0.1-11.6
						c1.5-4.8,4.7-7.9,10.1-10.4c6.1-2.9,12.7-4.9,19.3-6.3c13.1-2.9,26.7-4,40-4.9c13.7-1,27.5-1.3,41.2-1.1
						c9.4,0.2,18.7,0.7,28,1.3c14.7,1.3,29.4,2.4,43.9,4.7c6.7,1.1,14.7,1.5,20.5,5.2c3.2,2,5,4.7,6.3,7.7
						c-2.6,4.4-7.1,6.1-11.7,7.7c-5.1,1.7-10.3,3.2-15.5,4.1c-0.4,0.1-0.3,0.7,0.1,0.7c6.7-0.6,13.4-1.7,19.8-4.1
						c3.2-1.2,6.6-3,8.2-6.1c0.6,2,1.1,4.1,1.5,6.2C353.3,288.5,353.3,291.2,353,293.8z"/>
					<path class="st5" d="M190.2,294.9c-7-2.5-14.4-2.4-21.6-3.7c-7.5-1.4-14.4-5.1-21.8-6.7c-0.2-0.1-0.4,0.3-0.2,0.4
						c6.4,3.4,13.8,6.3,20.9,7.6c7.5,1.4,15.2,0.7,22.6,2.8C190.4,295.4,190.5,295,190.2,294.9z"/>
					<path class="st5" d="M250,297.7c-15.3,0.4-30.6,0.6-45.9-1.4c-0.4,0-0.5,0.6-0.1,0.7c15.1,3,30.8,4.2,46.1,1.7
						C250.7,298.6,250.6,297.7,250,297.7z"/>
					<path class="st5" d="M314.2,290.8c-15.7,2.9-31.6,5.6-47.5,7.1c-0.4,0-0.4,0.6,0,0.6c16.3-0.4,32.1-2.2,47.8-6.8
						C315.1,291.5,314.8,290.7,314.2,290.8z"/>
				</g>
			</g>
			<g>
				<g>
					<path class="st11" d="M278.9,266.5c-0.7,0.2-1.5,0.4-1.9,1c-0.2,0.3-0.9,1.5-0.6,1.9c0.1,0.2,1.7-0.1,1.9-0.2
						c1-0.2,3.3-0.6,2.6-2.1C280.6,266.5,279.7,266.4,278.9,266.5z"/>
					<path class="st11" d="M254.2,278.3c-0.8,0.4-1.7,0.9-2.5,1.4c-1.5,0.9-4,2-5.1,3.4c-1,0.5-0.9,1.2,0.4,2.2c1,0,1.9-0.3,2.7-0.9
						c1.1-0.7,2.1-1.6,3-2.6c1.2-1.2,2.6-2.5,3.4-4c-0.5,0.2-0.9,0.4-1.4,0.6C254.6,278.5,254.4,278.4,254.2,278.3z"/>
					<path class="st11" d="M259.1,265.7c-1-0.2-1.9,0.4-1.5,1.8c0.3,0.8,0.6,2.2,1.3,2.7c0.2,0.3,0.2,0.3,0.2-0.1
						c0.2-0.3,0.3-0.6,0.4-0.9c0.2-0.5,0.3-1,0.3-1.4c0.1-0.4,0.3-0.9,0.2-1.3C259.9,266.1,259.4,265.9,259.1,265.7z"/>
					<path class="st12" d="M296,264.8c-0.1-0.1-0.2-0.2-0.3-0.3c-1.8-1.9-4.1-3.2-7-4c-9.7-2.8-20.9-1.5-30.9-1
						c-10.5,0.6-23.2,1.2-31.6,8.2c-6.9,5.7-8,13.3-5.6,20.7c1.2,2.8,3,5.2,5.8,6.7c3.3,1.7,7.2,2.3,10.7,3
						c8.1,1.7,16.3,2.7,24.5,2.5c7.6-0.2,15.2-1.6,22.3-4.4c5.9-2.4,22-6.5,16-24.4C299,269,297.7,266.6,296,264.8z M253.5,291
						c-9.9,1.4-22.4-0.7-30.4-7c-0.1-0.1,0-0.2,0.1-0.2c4.8,1.2,9.4,3.1,14.3,4.2c5.3,1.2,10.6,1.6,16,2.1
						C253.8,290.2,254,290.9,253.5,291z M247.2,271.7c0.1,0,0.2,0,0.3,0.1c0,0,0,0,0,0c0.5,0.2,0.8,0.6,0.9,1
						c0.3,0.6,0.3,1.2-0.1,1.9c-0.9,1.5-3.2,1.4-4.7,1.5c-2.9,0.2-6.6,0.6-9.4-0.1c-1-0.3-2.1-0.8-2-2c0-0.9,0.7-1.4,1.5-1.7
						c2.4-0.9,5.7-0.8,8.2-1C242.8,271.4,245.6,271.1,247.2,271.7z M245.7,266.1c0.3-0.2,0.8-0.1,1.1,0c0.9,0.2,1.9,0.4,2.8,0.7
						c0.6,0.2,1.1,0.5,1.6,0.8c0.6,0.1,1,0.5,1.3,1.2c0.3,0.7,0.7,2.4,0.2,3.1c-0.8,1-2.3-0.4-3-0.8c-0.7-0.5-1.5-1.1-2.2-1.6
						c-0.5-0.4-1.3-0.8-1.7-1.2C245.3,267.7,245,266.6,245.7,266.1z M236.2,278.1c0.7-0.1,1.5-0.2,2.2-0.3c0-0.1,0.1-0.1,0.2-0.1
						c1.2-0.2,7.6-1.6,6.1,1.6c-0.5,1.1-2.3,1.7-3.4,2.1c-2,0.8-4.2,1.5-6.3,2c-1.2,0.3-2,0.2-2.9-0.8c-0.5-0.7-1.2-2.2-0.7-3
						C232.2,278.5,235.1,278.3,236.2,278.1z M257.7,277c-0.9,3.3-8.7,12.6-12.6,8.7c-1.6-1.6,0.4-3,1.6-4c3-2.3,6.5-4.5,10.2-5.5
						c0.1,0,0.1,0,0.2,0C257.5,276.3,257.8,276.6,257.7,277z M259.1,271.5c-0.8,0.2-1.3-0.7-1.6-1.3c-0.5-1-1-2.2-1.1-3.4
						c-0.1-0.7,0.2-1.2,0.7-1.6c0.5-0.4,1.2-0.5,1.8-0.4c0.1,0,0.2,0,0.4,0c0.6,0.3,1.4,0.6,1.5,1.4c0.2,1-0.2,2.3-0.5,3.2
						C260.2,270.1,259.9,271.2,259.1,271.5z M291.9,283.3c-7.6,7.5-21.1,8.9-31.1,6.5c-0.2-0.1-0.1-0.4,0.1-0.3
						c5.6,0.8,12.6-0.5,18-1.6c4.4-0.9,8.9-2.4,12.6-5.1C291.8,282.6,292.1,283,291.9,283.3z M279.2,270.4c-1.3,0.3-4.6,1-4.2-1.3
						c0.2-0.9,0.8-1.9,1.5-2.5c0.8-0.6,1.9-0.7,2.8-1.1c0.2-0.1,0.3,0,0.5,0.1c1-0.1,1.9,0.1,2.3,1.2C282.9,269,281,270,279.2,270.4
						z M284.3,277.3c-0.7,2.2-5.8,1.9-7.5,1.9c-1.6,0-7.1-0.1-7.5-2c0-0.2,0-0.5,0.2-0.6c0.8-0.3,1.6-0.6,2.5-0.8
						c1.4-0.5,2.8-1,4.2-1.5c1.5-0.6,3.6-1.6,5.3-1.3C283,273.3,284.8,275.8,284.3,277.3z M270.4,270.4c-2.8,1.9-5.5,3.7-8.9,3.9
						c-0.4,0-0.7-0.6-0.4-0.9c0.6-0.6,1.2-1.1,1.8-1.7c2.1-2.6,4.5-5.3,7.2-7c1.4-0.9,4.6-1.8,5.3,0.5
						C276,267.5,271.7,269.6,270.4,270.4z M267.8,281c-0.1,1.1-1.4,1.7-2.3,2c-0.4,0.1-0.8,0.2-1.1,0.1c-0.1,0.2-0.5,0.3-0.7,0.1
						c-1-1-1.4-2.5-1.7-3.9c-0.2-0.7-1-2.4-0.5-3.2c0.5-0.7,1.8-0.2,2.4,0.1c1.1,0.4,2,1.1,2.8,2C267.2,279,268,280,267.8,281z
						 M294.7,271.7c-3.4-7.4-11.7-7.9-18.8-8.3c-5.9-0.4-11.8-0.3-17.6,0.3c-6.5,0.7-12.9,2-19.2,3.9c-6.5,2-15.3,4.4-15.5,12.6
						c0,0.3-0.5,0.4-0.5,0.1c-1.3-6,3.9-10.1,8.9-12.1c7.4-3,15.4-4.9,23.4-5.9c8.8-1.1,17.6-1.1,26.4,0c5.6,0.7,12.7,2.6,13.8,9.1
						C295.6,271.9,294.9,272.3,294.7,271.7z"/>
					<path class="st13" d="M300,271.8c-0.9-2.8-2.2-5.1-4-7c-0.1-0.1-0.2-0.2-0.3-0.3c-1.8-1.9-4.1-3.2-7-4
						c-9.7-2.8-20.9-1.5-30.9-1c-0.8,0-1.5,0.1-2.3,0.1c-2.5,1.2-4.9,2.5-7.3,3.8c2.4-0.5,4.8-0.9,7.2-1.2c8.8-1.1,17.6-1.1,26.4,0
						c5.6,0.7,12.7,2.6,13.8,9.1c0,0.1,0,0.2-0.1,0.3c0.3,1,0.5,2.1,0.5,3.4c-0.1,5.6-3.7,9-8,11.3c-3.3,2-7.1,3.3-11.1,3.9
						c-3.1,0.8-6.2,1.5-9.3,2.4c-2.6,0.7-3.9,0.6-4.6,3.3c-0.5,1.8-0.7,3.5-1.7,4.6c0.1,0,0.3,0,0.4,0c7.6-0.2,15.2-1.6,22.3-4.4
						C289.9,293.8,306,289.7,300,271.8z"/>
					<path class="st11" d="M265.3,278c-0.6-0.6-1.4-1-2.2-1.2c-0.4-0.1-0.9-0.3-1,0.4c0,0.2,0.3,0.8,0.4,1c0.2,0.5,0.4,1,0.5,1.5
						c0.1,0.2,0.2,0.5,0.3,0.7c0.4,0.9,0.6,1.8,1.9,1.5c1-0.3,1.7-1,1.4-2C266.4,279.1,265.8,278.5,265.3,278z"/>
					<path class="st11" d="M234.8,282.5c0.5-0.2,1.1-0.3,1.6-0.5c1.7-0.5,4.8-1,6.1-2.2c0.6-0.1,0.8-0.4,0.7-0.9
						c0.1-0.6-0.2-0.8-0.9-0.5c-0.6-0.1-1.3-0.1-2-0.1c-1.4,0.1-2.8,0.3-4.2,0.6c-0.7,0.2-3.9,0.5-3.6,1.9
						C233.2,281.5,234,282,234.8,282.5z"/>
					<path class="st11" d="M269.7,266.4c-0.2,0.2-0.5,0.4-0.7,0.6c-0.8,0.7-1.6,1.5-2.3,2.2c-0.3,0.3-0.6,0.6-0.9,0.8
						c0.1,0.1,0.1,0.3-0.1,0.5c-0.9,0.8-1.8,1.7-2.7,2.6c1.9-0.5,3.7-1.5,5.3-2.6c0.8-0.5,1.5-1,2.3-1.6c0.5-0.3,2.7-1.6,2.8-2.1
						C272.1,265.1,270.8,264.9,269.7,266.4z"/>
					<path class="st11" d="M277.3,274.8c-0.9,0.3-1.7,0.6-2.5,0.8c0,0.1-0.1,0.2-0.2,0.3c-0.9,0.4-1.9,0.6-2.7,1.1
						c-0.2,0.1-0.4,0.2-0.5,0.2c0.5,0.1,1,0.3,1.6,0.4c2.5,0.5,6.1,1,8.5,0.1c0.9,0,1.5-0.4,1.7-1.3c-0.3-1.5-1.3-2.3-3.1-2.4
						C279.3,274,278.1,274.5,277.3,274.8z"/>
					<path class="st11" d="M176.9,277.2c-0.3,0.2-0.6,0.8-0.9,1.1c0,0,0,0-0.1,0.1c0,0,0,0,0,0c-0.2,0.4-0.8,1.1-0.8,1.5
						c-0.1,1.3,2.7,1,3.4,0.7c0.8-0.4,0.9-0.8,0.5-1.5c-0.2-0.4-0.6-0.8-0.9-1.2C177.7,277.6,177.4,276.9,176.9,277.2z"/>
					<path class="st11" d="M174.2,266c-0.4-0.5-0.9-1-1.4-1.4c-0.6-0.7-1.4-1.1-2.4-1.4c-1.4-0.1-1.9,0.6-1.7,2.2
						c0.4,1.4,2.6,2.6,3.7,3.5c1.4,1.1,2.8,2.2,4.1,3.3c1,0.1-0.4-3.5-0.5-3.8C175.5,267.5,174.9,266.7,174.2,266z"/>
					<path class="st11" d="M187.2,264.8c-0.9,0.1-2.2,1.7-2.7,2.4c-0.6,0.7-1,1.4-1.5,2.1c-0.3,0.8-0.6,1.5-0.9,2.3
						c-0.3,0.7-1.5,1.8-0.3,2c0.7,0.1,0.9-0.2,1.5-0.7c1.7-1.3,3.3-2.9,4.6-4.6c0.4-0.5,0.8-1,1.1-1.6c0.1-0.3,0.3-0.6,0.4-0.9
						C189.3,264.8,188.7,264.3,187.2,264.8z"/>
					<path class="st11" d="M234.3,273.6c-1.3,2.1,4.8,1.8,5.4,1.8c1,0,1.9-0.1,2.9-0.1c0.6,0,5.5-0.6,4.7-2.1
						c-1.3-1.4-6.2-0.4-7.2-0.3C239.3,273,234.7,272.9,234.3,273.6z"/>
					<path class="st11" d="M252,270.9c0.1-0.1-0.1-1.1-0.1-1.2c-0.1-0.2-0.1-0.4-0.2-0.5c-0.3-0.3-0.8-0.6-1.2-0.8
						c-0.1,0-0.1,0-0.2,0c-0.2,0-0.3-0.1-0.3-0.2c-0.1,0-0.2-0.1-0.2-0.1c-0.9-0.3-2.2-0.9-3.2-0.9c0.2,0.9,3.1,2.4,3.6,2.7
						C250.4,270,251.6,271.2,252,270.9z"/>
					<path class="st11" d="M186.8,276.4c0.9,0,1.8-0.1,2.7-0.3c1.1-0.2,2.2-0.5,3.3-0.6c0.8-0.1,1.5-0.2,2.3-0.3
						c2.5,0,3.2-4.4-1.2-3.5c-0.6,0.1-1.1,0.3-1.7,0.5c-0.9,0.5-1.9,0.9-2.8,1.4c-0.8,0.4-2.8,0.9-3.3,1.6
						C185.2,275.5,185.4,275.9,186.8,276.4z"/>
					<path class="st12" d="M196.8,258.6c-4-1.4-8.4-1.9-12.6-2.4c-9.5-1.3-19.8-2.2-29.3-0.3c-3.9,0.8-7.8,2.1-11.1,4.3
						c-2.8,1.8-4.6,3.7-5.1,7.2c-0.3,2,0,4.1,0.4,6.1c1.8,6.1,6.9,9.8,13,13.2c6.4,3.6,13.3,6,20.5,7.3c7.5,1.4,15.6,2.3,23.3,2.2
						c7.1-0.1,14.9-2.4,18.6-8.6c3.3-7.5-1.6-16.1-7-21.6C204.4,262.8,201.1,260.1,196.8,258.6z M207.1,285.2
						c-19.9,7.3-43.5,2.8-60.1-10.1c-0.2-0.1,0.1-0.4,0.2-0.3c18.3,11,38.9,13.6,59.6,9.3C207.5,284,207.8,285,207.1,285.2z
						 M176.7,272.9c-0.1,0.1-0.2,0.1-0.3,0c-2-1.4-3.9-2.8-5.9-4.3c-1-0.8-2-1.6-2.6-2.7c-1.2-2.3,0.4-4,2.9-3.7
						c1.4,0.2,2.5,1.4,3.4,2.3c1.2,1.2,2.4,2.6,3.1,4.2C177.8,269.8,178.6,273.2,176.7,272.9z M178.8,277.2c0.9,1.1,2.3,2.7,0.9,3.9
						c-1.3,1.1-3.9,1.2-5.2,0.2c-0.6-0.4-0.5-1.1-0.2-1.6c0.4-0.8,0.9-1.5,1.4-2.2c0.3-0.6,0.7-1.4,1.2-1.5
						C177.7,275.8,178.3,276.7,178.8,277.2z M169,272.7c0.1,0.2,0.1,0.3,0,0.5c0.2,0.6,0.2,1.2-0.2,1.7c-1.2,1.4-4.4,0.3-5.8,0
						c-2.6-0.7-5.4-1.6-7.5-3.2c-2.4-1.8-5.8-5.7-1-6.7C159.6,263.9,165.8,269.2,169,272.7z M189.6,266.8c-0.9,1.8-2.2,3.4-3.6,4.8
						c-1,1.1-2.6,2.8-4.1,3.1c-3.7,1,0.2-5.3,0.8-6.2c0,0,0,0,0.1-0.1c1-1.8,2.3-3.3,4.1-4.3C189.1,263,190.8,264.5,189.6,266.8z
						 M197.4,271.3c2.7,1.7,1,4.5-1.5,5c-2.5,0.5-5.2,0.9-7.7,1.2c-1.2,0.1-3.6,0.6-4.3-0.9c-0.8-1.9,2.8-3.5,5.8-4.4
						C192.4,270.9,195.4,270,197.4,271.3z M208.8,276.8c-3.4-13.6-19.1-16.2-31.1-16.8c-6.1-0.3-12.3-0.7-18.4-0.5
						c-6.5,0.2-13.8,2.4-15.4,9.5c-0.1,0.3-0.5,0.2-0.5-0.1c1-15.1,24.7-11,34.3-10.4c7.9,0.5,14.8,1.5,21.8,5.1
						c4.9,2.5,10.2,7,10.1,13C209.6,277.2,208.9,277.3,208.8,276.8z"/>
					<g>
						<path class="st13" d="M196.8,258.6c-0.5-0.2-0.9-0.3-1.4-0.4c-3.4,0.2-6.7,0.6-10.1,1.1c4.9,0.7,9.5,2,14.2,4.4
							c4.9,2.5,10.2,7,10.1,13c0,0.5-0.7,0.6-0.9,0.1c-0.5-2.1-1.3-3.9-2.3-5.5c1.5,3.3,2.3,7.2,1,10.8c-0.3,0.8-0.8,1.6-1.3,2.2
							c0.2,0,0.5-0.1,0.7-0.1c0.7-0.1,1,0.8,0.3,1.1c-1.2,0.5-2.5,0.9-3.7,1.2c-3.7,1.9-9,2.1-12.8,2.2c-3.4,0.1-6.8,0.9-10.3,1
							c-1.8,0-3.2-0.5-4.6,0.4c-1.8,1.1-1.9,2.3-4.4,3c-0.5,0.1-1,0.2-1.5,0.3c1,0.2,1.9,0.4,2.9,0.6c7.5,1.4,15.6,2.3,23.3,2.2
							c7.1-0.1,14.9-2.4,18.6-8.6c3.3-7.5-1.6-16.1-7-21.6C204.4,262.8,201.1,260.1,196.8,258.6z"/>
						<path class="st13" d="M198.7,264.6c0.8,0.4,1.5,0.8,2.3,1.3c-5.4-3.6-12.6-5-19.2-5.6C187.2,262,193.3,261.6,198.7,264.6z"/>
					</g>
					<path class="st11" d="M156.1,270.7c1.5,1.1,3.2,1.8,5,2.3c1.1,0.4,4.1,1.5,5.2,1.1c2.4-0.9-0.1-2.3-1-3.2
						c-1.2-1.1-4.3-2.9-4.3-3c-1.6-0.9-3.8-2.2-5.7-2C150.5,266.6,154.6,269.6,156.1,270.7z"/>
					<path class="st12" d="M329.2,254.8c-6.4-0.1-12.8,0.5-19,1.8c-4.8,1.1-9.8,2.8-12.3,7.2c0.6,0.7,1.1,1.4,1.6,2.2
						c2-3.3,5.9-4.6,9.5-5.6c5.3-1.5,10.8-2.2,16.3-2.3c9.3-0.2,22.6,0.1,29.8,6.9c0.5,0.5-0.3,1.3-0.8,0.8
						c-6.8-5.9-18.9-6.2-27.5-6.2c-4.9,0-9.8,0.5-14.5,1.5c-4.2,0.9-9.7,2-12.3,5.8c1.4,2.6,2.2,5.6,2.8,8.6c0.5,2.4,0.9,4.8,0.5,7
						c-0.1,0.9-0.4,1.8-0.7,2.6c6,2.7,11.5,3.7,18.2,4c6.1,0.2,12.3,0.2,18.4-0.3c10.5-0.9,30.3-7.2,22.9-21.7
						C356.3,256.3,339.9,255,329.2,254.8z M333.1,264.7c0.9-2.1,6.2-0.5,7.9-0.1c2.1,0.5,5.8,1.3,6.6,3.6c0.6,1.7-0.6,2.9-2.3,2.8
						c-1.7-0.1-3.6-1.4-5-2.2c-1.4-0.7-2.7-1.4-4.1-2.1c-0.9-0.5-1.9-0.9-2.9-1.3C333.1,265.3,333,265.1,333.1,264.7z M325.3,262.2
						c0.5-0.5,0.9-0.9,1.6-1c0.6-0.1,1.4-0.2,2-0.1c0.5,0.1,1.1,0.4,1.1,1c0,0.5-0.4,0.8-0.8,1.1c-0.9,0.6-2.7,0.6-3.6-0.1
						c-0.1-0.1-0.2-0.2-0.2-0.3C325.2,262.6,325.1,262.4,325.3,262.2z M325.7,265.6c2.5,1,4,4.1,5.5,6.2c1.2,1.7,2.1,3.3,0.2,4.8
						c-4.1,3.2-5.4-2-5.8-6c-0.3-1.5-0.4-3-0.5-4.5C325.1,265.7,325.4,265.4,325.7,265.6z M318.9,262.1c0.5-0.5,1.5-0.7,2.2-0.9
						c0.5-0.1,1.2-0.3,1.7,0c1,0.6,0.1,2.4-0.5,3c-1.1,1.1-2.3,0.1-3.1-0.8C318.7,263,318.4,262.6,318.9,262.1z M319.1,268.4
						c0.6-0.5,1.8-1.8,2.8-1.2c1.6,1-2.3,5.5-3.1,6.3c-0.9,1.1-1.8,2.2-3.3,2.3c-0.7,0.1-2.4,0.1-2.7-0.7c-0.3-0.9,1.4-2.1,1.9-2.6
						c0.1-0.1,0.2-0.2,0.3-0.2C316.3,270.9,317.7,269.6,319.1,268.4z M308.7,272.6c-0.6-0.2-0.8-0.8-0.5-1.3
						c0.4-0.9,1.7-1.8,2.4-2.4c0.4-0.3,0.8-0.6,1.2-0.8c1.2-1,4-3.3,4.4-1.6c0.2,0.9-1.1,1.9-1.6,2.5c-0.9,0.9-1.9,1.9-3,2.6
						C311,272.1,309.7,272.9,308.7,272.6z M360,270.5c-4.1,7.2-14.1,9.1-21.6,10.7c-8.4,1.7-18.8,3.4-26.7-0.7
						c-0.2-0.1-0.1-0.4,0.1-0.3c8.3,2.1,17.7,0.8,26-0.9c7.2-1.4,16.6-3.3,21.4-9.2C359.6,269.5,360.2,270,360,270.5z"/>
					<g>
						<path class="st13" d="M329.6,254.8c-3.2,1-6.3,2.3-9.2,3.7c1.6-0.1,3.2-0.2,4.9-0.3c9.3-0.2,22.6,0.1,29.8,6.9
							c0.5,0.5-0.3,1.3-0.8,0.8c-1.1-1-2.4-1.8-3.7-2.5c3.6,1.9,6.4,4.6,5.8,8.9c0,0.2-0.1,0.3-0.1,0.4c1.1-0.8,2.2-1.8,3-2.9
							c0.3-0.4,0.9,0.1,0.7,0.5c-1.2,2.2-3,3.9-5.1,5.2c-1.7,2-4.6,2.8-7.6,3.4c-3,0.9-6.1,1.5-8.9,2.1c-0.6,0.1-1.2,0.2-1.8,0.4
							c-0.7,0.5-1.2,1.2-1.8,2.2c-1.3,2.4-2.1,2.6-5,2.6c-3.5,0-8.2-0.6-9.6,2.8c0.1,0,0.3,0,0.4,0c6.1,0.2,12.3,0.2,18.4-0.3
							c10.5-0.9,30.3-7.2,22.9-21.7C356.4,256.4,340.3,255,329.6,254.8z"/>
						<path class="st13" d="M350.4,263.4c-0.2-0.1-0.4-0.2-0.7-0.3C350,263.2,350.2,263.3,350.4,263.4z"/>
					</g>
					<path class="st11" d="M320.8,263.7c0.4,0.1,0.7,0,1.1-0.4c0.2-0.3,0.4-0.6,0.5-0.9c0.1-0.3,0.1-0.6-0.2-0.7
						c-0.1,0-0.4,0-0.5,0.1c-0.4,0.1-0.8,0.2-1.2,0.3c-0.2,0.1-0.6,0.2-0.8,0.4c-0.2,0.1-0.3,0-0.1,0.3
						C320,263.2,320.5,263.4,320.8,263.7z"/>
					<path class="st11" d="M326.8,262.6c0.5,0.1,1.4,0.1,1.9-0.2c0.3-0.1,0.4-0.3,0-0.4c-0.1,0-0.2,0-0.4,0c-0.3,0-0.5,0-0.8,0
						c-0.4,0-0.9,0.1-1.3,0.3c0,0,0,0.1,0,0.1C326.2,262.5,326.7,262.6,326.8,262.6z"/>
					<path class="st11" d="M339.5,267.4c0.8,0.4,1.6,0.7,2.4,1.1c0.7,0.3,1.3,0.6,2,0.9c1.6,1.1,2.2,0.2,1.8-2.5
						c-0.6-0.8-2.5-1-3.4-1.2c-0.7-0.2-6.9-1.5-7.5-0.7C334.9,264.7,337.5,266.2,339.5,267.4z"/>
					<path class="st11" d="M326.5,272.4c0.3,1.6,1.5,6.2,4.3,3.4c1.6-1.6-0.4-3.6-1.3-5c-0.9-1.3-1.9-3.2-3.5-4.1
						c0.1,1.8,0.2,3.5,0.4,5.3C326.5,272.1,326.5,272.3,326.5,272.4z"/>
					<path class="st11" d="M314,274.6c0,0.4,0.8,0.4,1.3,0.3c1.3-0.1,2.2-1.1,3-2c0.9-1,1.7-2,2.3-3.1c0.1-0.2,0.7-0.9,0.6-1.1
						c0.2-1-0.2-1.1-0.9-0.5c-0.2,0.2-0.5,0.4-0.7,0.7c-0.7,0.6-1.4,1.3-2,1.9c-0.9,0.8-1.7,1.7-2.6,2.6
						C314.6,273.6,313.9,274.2,314,274.6z"/>
					<path class="st11" d="M314.9,267.5c0.6-0.7,0.3-0.6-0.1-0.4c0,0.1-0.1,0.1-0.1,0.2c-0.2,0.1-0.4,0.2-0.6,0.3c0,0,0,0,0,0
						c-0.7,0.5-1.5,0.9-2.2,1.3c0,0,0,0,0,0c-0.4,0.3-0.8,0.6-1.2,0.9c-0.3,0.3-1.8,1.3-1.1,1.8c0.3,0.2,1.6-0.8,1.9-1
						C312.7,269.8,313.9,268.7,314.9,267.5z"/>
				</g>
				<g>
					<path class="st5" d="M215.9,284.5c-2.7,8.6-11.8,11.6-20,11.7c-7.7,0.1-15.8-0.8-23.3-2.2c-7.2-1.3-14.1-3.8-20.5-7.3
						c-7.7-4.3-14-9.2-13.6-18.8c0-0.1-0.2-0.2-0.2,0c-2,8.1,1.7,13.4,8.2,17.7c8,5.3,17,8.8,26.4,10.5c13.3,2.3,39.7,6.9,44.4-11.1
						C217.4,284,216.1,283.6,215.9,284.5z"/>
					<path class="st5" d="M359.3,269.9c-4.8,6-14.3,7.8-21.4,9.2c-8.3,1.6-17.7,3-26,0.9c-0.2-0.1-0.3,0.2-0.1,0.3
						c7.9,4.1,18.3,2.5,26.7,0.7c7.5-1.5,17.5-3.4,21.6-10.7C360.2,270,359.6,269.5,359.3,269.9z"/>
					<path class="st5" d="M291.5,282.8c-3.7,2.6-8.2,4.1-12.6,5.1c-5.4,1.1-12.5,2.4-18,1.6c-0.2,0-0.3,0.3-0.1,0.3
						c10,2.4,23.5,1,31.1-6.5C292.1,283,291.8,282.6,291.5,282.8z"/>
					<path class="st5" d="M206.8,284.2c-20.7,4.3-41.3,1.7-59.6-9.3c-0.2-0.1-0.4,0.2-0.2,0.3c16.6,12.8,40.2,17.4,60.1,10.1
						C207.8,285,207.5,284,206.8,284.2z"/>
					<path class="st5" d="M211.9,268.1c-2.9-3.7-6.6-7.4-10.8-9.7c-5-2.7-11-3.4-16.6-4.1c-13.1-1.7-56.8-4.2-45.5,20.8
						c0.1,0.2,0.4,0,0.3-0.1c-0.4-2.4-1-5.2-0.7-7.7c0.5-3.5,2.3-5.4,5.1-7.2c3.4-2.2,7.2-3.5,11.1-4.3c9.5-1.9,19.8-1,29.3,0.3
						c4.2,0.6,8.6,1.1,12.6,2.4c4.3,1.5,7.6,4.2,10.7,7.4c6.1,6.2,11.5,16.4,5.2,24.5c-0.4,0.6,0.3,1.4,0.8,0.8
						C219.8,284.2,217.3,275,211.9,268.1z"/>
					<path class="st5" d="M302.7,275.5c-1-5-2.6-10.1-6.6-13.4c-9.6-7.8-26-5.3-37.4-4.8c-12,0.6-26.8,1.3-35.7,10.5
						c-6.9,7.1-7,16.5-2,24.1c0.6,1.2,1.3,2.4,2.5,3.4c2.6,2.3,6.2,3.1,9.4,3.9c10.4,2.6,21.3,4.1,32,3.3c8.9-0.7,17.7-2.9,25.6-7.1
						c4.8-2.6,12.3-6.9,12.8-12.9C303.6,280.4,303.1,277.9,302.7,275.5z M284,296.2c-7.1,2.8-14.7,4.2-22.3,4.4
						c-8.3,0.2-16.5-0.8-24.5-2.5c-3.5-0.8-7.5-1.3-10.7-3c-2.8-1.5-4.6-3.9-5.8-6.7c-2.4-7.4-1.3-15.1,5.6-20.7
						c8.5-7,21.2-7.6,31.6-8.2c10-0.6,21.1-1.8,30.9,1c5.9,1.7,9.3,5.6,11.3,11.3C306,289.7,289.9,293.8,284,296.2z"/>
					<path class="st5" d="M357.4,259.4c-9-6.2-22.2-7.1-32.8-6.8c-9.3,0.3-24.3,1-29,10.8c-0.6,1.3,1.3,2.4,1.9,1.1
						c2.4-4.9,7.6-6.7,12.6-7.8c6.2-1.4,12.6-1.9,19-1.8c10.7,0.2,27.2,1.4,32.7,12.3c7.4,14.5-12.4,20.8-22.9,21.7
						c-6.1,0.5-12.3,0.5-18.4,0.3c-7.1-0.3-12.8-1.4-19.2-4.5c-0.4-0.2-0.7,0.3-0.3,0.6c4.7,3.6,8.9,5.2,14.8,5.7
						c6.6,0.5,13.2,0.6,19.8,0.2c9.3-0.5,20.5-2.1,26.7-9.9C368.1,273.9,364.6,264.3,357.4,259.4z"/>
					<path class="st5" d="M253.4,290.2c-5.3-0.5-10.7-1-16-2.1c-4.9-1.1-9.5-2.9-14.3-4.2c-0.1,0-0.2,0.1-0.1,0.2
						c8.1,6.3,20.5,8.4,30.4,7C254,290.9,253.8,290.2,253.4,290.2z"/>
					<path class="st5" d="M199.6,263.7c-7.1-3.7-14-4.7-21.8-5.1c-9.6-0.6-33.3-4.7-34.3,10.4c0,0.3,0.4,0.3,0.5,0.1
						c1.6-7.1,9-9.4,15.4-9.5c6.1-0.1,12.3,0.3,18.4,0.5c12,0.5,27.7,3.1,31.1,16.8c0.1,0.5,0.8,0.4,0.9-0.1
						C209.8,270.7,204.5,266.2,199.6,263.7z"/>
					<path class="st5" d="M281.7,262.3c-8.8-1.2-17.6-1.1-26.4,0c-7.9,1-16,2.9-23.4,5.9c-5,2-10.2,6.1-8.9,12.1
						c0.1,0.3,0.5,0.2,0.5-0.1c0.1-8.2,9-10.6,15.5-12.6c6.2-1.9,12.7-3.2,19.2-3.9c5.9-0.6,11.8-0.7,17.6-0.3
						c7.2,0.5,15.5,0.9,18.8,8.3c0.2,0.5,0.9,0.1,0.8-0.3C294.4,264.9,287.3,263,281.7,262.3z"/>
					<path class="st5" d="M355.1,265.1c-7.2-6.8-20.4-7.1-29.8-6.9c-5.5,0.1-11,0.8-16.3,2.3c-4,1.1-8.2,2.5-10.1,6.6
						c-0.2,0.4,0.4,0.8,0.7,0.4c2.4-4.2,8.3-5.3,12.7-6.3c4.8-1,9.7-1.5,14.5-1.5c8.6,0,20.7,0.3,27.5,6.2
						C354.8,266.4,355.6,265.6,355.1,265.1z"/>
					<path class="st5" d="M257.2,276.2c-0.1,0-0.1-0.1-0.2,0c-3.7,1-7.2,3.1-10.2,5.5c-1.2,1-3.2,2.4-1.6,4
						c3.9,3.9,11.7-5.4,12.6-8.7C257.8,276.6,257.5,276.3,257.2,276.2z M252.8,281.8c-0.9,0.9-1.9,1.9-3,2.6
						c-0.8,0.5-1.7,0.8-2.7,0.9c-1.3-1-1.4-1.7-0.4-2.2c1-1.4,3.6-2.6,5.1-3.4c0.8-0.5,1.7-0.9,2.5-1.4c0.1,0.1,0.3,0.2,0.6,0.1
						c0.5-0.2,0.9-0.4,1.4-0.6C255.4,279.3,254,280.6,252.8,281.8z"/>
					<path class="st5" d="M275.4,265.3c-0.7-2.3-3.9-1.4-5.3-0.5c-2.7,1.8-5.1,4.5-7.2,7c-0.6,0.6-1.2,1.1-1.8,1.7
						c-0.3,0.3-0.1,0.9,0.4,0.9c3.4-0.2,6.1-2,8.9-3.9C271.7,269.6,276,267.5,275.4,265.3z M270.6,268.9c-0.7,0.5-1.5,1.1-2.3,1.6
						c-1.7,1.1-3.4,2.1-5.3,2.6c0.9-0.9,1.8-1.7,2.7-2.6c0.2-0.2,0.2-0.3,0.1-0.5c0.3-0.3,0.6-0.6,0.9-0.8c0.8-0.7,1.5-1.5,2.3-2.2
						c0.2-0.2,0.5-0.4,0.7-0.6c1.1-1.4,2.4-1.3,3.7,0.4C273.3,267.3,271.1,268.6,270.6,268.9z"/>
					<path class="st5" d="M282,266.8c-0.4-1.1-1.3-1.3-2.3-1.2c-0.1-0.1-0.3-0.2-0.5-0.1c-0.9,0.4-2,0.5-2.8,1.1
						c-0.7,0.6-1.3,1.6-1.5,2.5c-0.4,2.3,2.9,1.6,4.2,1.3C281,270,282.9,269,282,266.8z M278.2,269.3c-0.2,0-1.7,0.3-1.9,0.2
						c-0.3-0.4,0.4-1.6,0.6-1.9c0.5-0.6,1.2-0.8,1.9-1c0.8-0.1,1.7-0.1,2,0.6C281.5,268.7,279.2,269.1,278.2,269.3z"/>
					<path class="st5" d="M260.8,266.2c-0.1-0.7-0.9-1.1-1.5-1.4c-0.1-0.1-0.2-0.1-0.4,0c-0.6-0.1-1.2,0-1.8,0.4
						c-0.6,0.4-0.8,0.9-0.7,1.6c0.2,1.1,0.6,2.4,1.1,3.4c0.3,0.6,0.8,1.5,1.6,1.3c0.7-0.2,1-1.3,1.2-2
						C260.6,268.5,261,267.2,260.8,266.2z M259.8,267.8c-0.1,0.5-0.2,1-0.3,1.4c-0.1,0.3-0.2,0.6-0.4,0.9c0.1,0.4,0,0.4-0.2,0.1
						c-0.7-0.6-1.1-1.9-1.3-2.7c-0.5-1.4,0.5-2,1.5-1.8c0.4,0.2,0.9,0.4,1,0.8C260.1,266.8,259.9,267.4,259.8,267.8z"/>
					<path class="st5" d="M252.5,268.8c-0.3-0.6-0.7-1-1.3-1.2c-0.5-0.3-1-0.6-1.6-0.8c-0.9-0.3-1.8-0.5-2.8-0.7
						c-0.3-0.1-0.8-0.2-1.1,0c-0.6,0.5-0.3,1.6,0.1,2.1c0.4,0.5,1.2,0.9,1.7,1.2c0.7,0.5,1.4,1.1,2.2,1.6c0.7,0.5,2.2,1.8,3,0.8
						C253.2,271.2,252.8,269.5,252.5,268.8z M252,270.9c-0.4,0.3-1.5-0.9-1.9-1.1c-0.6-0.4-3.4-1.8-3.6-2.7c1.1,0,2.3,0.6,3.2,0.9
						c0.1,0,0.2,0.1,0.2,0.1c0,0.1,0.2,0.2,0.3,0.2c0.1,0,0.1,0,0.2,0c0.4,0.2,0.8,0.5,1.2,0.8c0.1,0.2,0.1,0.3,0.2,0.5
						C251.8,269.8,252.1,270.8,252,270.9z"/>
					<path class="st5" d="M248.5,272.9c-0.1-0.5-0.4-0.8-0.9-1c0,0,0,0,0,0c-0.1-0.1-0.2-0.1-0.3-0.1c-1.6-0.6-4.5-0.3-5.4-0.2
						c-2.5,0.3-5.8,0.1-8.2,1c-0.8,0.3-1.4,0.8-1.5,1.7c0,1.2,1,1.7,2,2c2.9,0.7,6.5,0.3,9.4,0.1c1.5-0.1,3.8-0.1,4.7-1.5
						C248.8,274,248.8,273.4,248.5,272.9z M242.5,275.2c-1,0.1-1.9,0.1-2.9,0.1c-0.6,0-6.6,0.4-5.4-1.8c0.4-0.6,5-0.6,5.8-0.7
						c1-0.1,5.9-1.2,7.2,0.3C248.1,274.7,243.1,275.2,242.5,275.2z"/>
					<path class="st5" d="M238.6,277.7c-0.1,0-0.2,0.1-0.2,0.1c-0.7,0.1-1.5,0.2-2.2,0.3c-1.1,0.2-4,0.4-4.7,1.5
						c-0.6,0.9,0.1,2.4,0.7,3c0.8,1,1.6,1,2.9,0.8c2.1-0.4,4.3-1.2,6.3-2c1.1-0.4,2.8-1,3.4-2.1
						C246.2,276.1,239.8,277.5,238.6,277.7z M242.4,279.8c-1.3,1.2-4.4,1.7-6.1,2.2c-0.5,0.2-1.1,0.3-1.6,0.5
						c-0.8-0.5-1.6-1.1-2.4-1.6c-0.3-1.4,2.9-1.8,3.6-1.9c1.4-0.3,2.8-0.5,4.2-0.6c0.7,0,1.4-0.1,2,0.1c0.7-0.3,1-0.2,0.9,0.5
						C243.3,279.4,243.1,279.7,242.4,279.8z"/>
					<path class="st5" d="M281.5,273c-1.7-0.4-3.8,0.7-5.3,1.3c-1.4,0.5-2.8,1-4.2,1.5c-0.9,0.2-1.8,0.4-2.5,0.8
						c-0.2,0.1-0.3,0.4-0.2,0.6c0.4,1.9,6,2,7.5,2c1.7,0,6.8,0.3,7.5-1.9C284.8,275.8,283,273.3,281.5,273z M281.5,277.7
						c-2.4,0.9-6.1,0.4-8.5-0.1c-0.5-0.1-1-0.2-1.6-0.4c0.1-0.1,0.3-0.1,0.5-0.2c0.8-0.4,1.8-0.6,2.7-1.1c0.1-0.1,0.2-0.2,0.2-0.3
						c0.8-0.3,1.7-0.6,2.5-0.8c0.8-0.3,2-0.8,2.8-0.8c1.7,0.1,2.8,0.9,3.1,2.4C283,277.3,282.4,277.7,281.5,277.7z"/>
					<path class="st5" d="M266.6,278.3c-0.7-0.9-1.7-1.6-2.8-2c-0.6-0.2-1.9-0.7-2.4-0.1c-0.6,0.7,0.3,2.5,0.5,3.2
						c0.4,1.3,0.7,2.9,1.7,3.9c0.2,0.2,0.5,0.1,0.7-0.1c0.4,0,0.8,0,1.1-0.1c0.9-0.3,2.1-0.9,2.3-2C268,280,267.2,279,266.6,278.3z
						 M265.2,281.8c-1.2,0.3-1.4-0.6-1.9-1.5c-0.1-0.2-0.2-0.5-0.3-0.7c-0.2-0.5-0.3-1-0.5-1.5c-0.1-0.2-0.4-0.8-0.4-1
						c0.1-0.7,0.6-0.5,1-0.4c0.8,0.2,1.5,0.6,2.2,1.2c0.5,0.5,1.1,1.1,1.3,1.9C266.9,280.9,266.2,281.6,265.2,281.8z"/>
					<path class="st5" d="M186.9,264.3c-1.8,1-3.1,2.5-4.1,4.3c0,0,0,0-0.1,0.1c-0.5,0.9-4.4,7.1-0.8,6.2c1.5-0.4,3-2.1,4.1-3.1
						c1.4-1.4,2.7-3.1,3.6-4.8C190.8,264.5,189.1,263,186.9,264.3z M189,266.7c-0.3,0.6-0.7,1.1-1.1,1.6c-1.3,1.7-2.8,3.3-4.6,4.6
						c-0.6,0.4-0.8,0.8-1.5,0.7c-1.1-0.2,0-1.3,0.3-2c0.3-0.8,0.6-1.5,0.9-2.3c0.4-0.7,0.9-1.5,1.5-2.1c0.5-0.6,1.9-2.3,2.7-2.4
						c1.5-0.5,2,0,2.2,1C189.3,266.1,189.1,266.4,189,266.7z"/>
					<path class="st5" d="M169,273.2c0.1-0.1,0.1-0.3,0-0.5c-3.2-3.5-9.4-8.8-14.6-7.8c-4.8,1-1.4,4.9,1,6.7c2.2,1.6,5,2.5,7.5,3.2
						c1.4,0.3,4.7,1.4,5.8,0C169.2,274.3,169.3,273.8,169,273.2z M166.3,274.1c-1.1,0.4-4.1-0.7-5.2-1.1c-1.8-0.6-3.5-1.3-5-2.3
						c-1.5-1.1-5.6-4.1-0.8-4.7c1.9-0.3,4.1,1.1,5.7,2c0,0.2,3,1.9,4.3,3C166.3,271.8,168.7,273.2,166.3,274.1z"/>
					<path class="st5" d="M177.3,268.7c-0.7-1.6-1.9-3-3.1-4.2c-1-1-2-2.2-3.4-2.3c-2.5-0.3-4.1,1.4-2.9,3.7
						c0.6,1.1,1.6,1.9,2.6,2.7c1.9,1.5,3.9,2.9,5.9,4.3c0.1,0.1,0.2,0.1,0.3,0C178.6,273.2,177.8,269.8,177.3,268.7z M176.6,272.2
						c-1.4-1.1-2.7-2.2-4.1-3.3c-1.1-0.8-3.3-2.1-3.7-3.5c-0.3-1.6,0.3-2.3,1.7-2.2c0.9,0.2,1.7,0.7,2.4,1.4
						c0.5,0.4,0.9,0.9,1.4,1.4c0.7,0.8,1.4,1.5,1.9,2.4C176.2,268.6,177.6,272.3,176.6,272.2z"/>
					<path class="st5" d="M178.8,277.2c-0.4-0.5-1.1-1.4-1.9-1.2c-0.6,0.1-0.9,0.9-1.2,1.5c-0.5,0.7-1,1.4-1.4,2.2
						c-0.3,0.6-0.4,1.2,0.2,1.6c1.3,1.1,4,0.9,5.2-0.2C181,279.9,179.7,278.3,178.8,277.2z M178.5,280.6c-0.7,0.3-3.5,0.6-3.4-0.7
						c0-0.5,0.6-1.1,0.8-1.5c0,0,0,0,0,0c0,0,0.1,0,0.1-0.1c0.2-0.3,0.5-0.9,0.9-1.1c0.5-0.3,0.9,0.3,1.2,0.7
						c0.3,0.4,0.6,0.8,0.9,1.2C179.3,279.8,179.3,280.3,178.5,280.6z"/>
					<path class="st5" d="M197.4,271.3c-2-1.3-5-0.3-7.7,1c-3,0.9-6.6,2.5-5.8,4.4c0.6,1.5,3.1,1.1,4.3,0.9c2.5-0.3,5.2-0.7,7.7-1.2
						C198.4,275.8,200.1,273,197.4,271.3z M195.1,275.2c-0.8,0.1-1.6,0.1-2.3,0.3c-1.1,0.2-2.2,0.4-3.3,0.6
						c-0.9,0.2-1.8,0.3-2.7,0.3c-1.4-0.5-1.6-0.9-0.7-1.2c0.5-0.7,2.5-1.2,3.3-1.6c0.9-0.5,1.9-0.9,2.8-1.4c0.6-0.2,1.1-0.4,1.7-0.5
						C198.3,270.8,197.6,275.2,195.1,275.2z"/>
					<path class="st5" d="M331.2,271.7c-1.5-2.1-3-5.2-5.5-6.2c-0.3-0.1-0.6,0.2-0.6,0.4c0,1.5,0.2,3,0.5,4.5c0.3,4,1.7,9.2,5.8,6
						C333.3,275,332.3,273.4,331.2,271.7z M330.8,275.8c-2.9,2.8-4-1.8-4.3-3.4c0-0.1,0-0.3-0.1-0.4c-0.1-1.8-0.2-3.5-0.4-5.3
						c1.5,0.9,2.5,2.7,3.5,4.1C330.5,272.2,332.5,274.2,330.8,275.8z"/>
					<path class="st5" d="M321.9,267.1c-1-0.6-2.2,0.7-2.8,1.2c-1.4,1.2-2.8,2.5-4,3.9c-0.1,0.1-0.2,0.2-0.3,0.2
						c-0.5,0.5-2.2,1.7-1.9,2.6c0.3,0.9,2,0.8,2.7,0.7c1.5-0.1,2.4-1.3,3.3-2.3C319.5,272.6,323.5,268.1,321.9,267.1z M320.6,269.8
						c-0.7,1.1-1.5,2.1-2.3,3.1c-0.8,0.9-1.7,1.8-3,2c-0.5,0-1.3,0.1-1.3-0.3c0-0.4,0.7-0.9,1-1.2c0.8-0.9,1.7-1.7,2.6-2.6
						c0.7-0.6,1.4-1.3,2-1.9c0.2-0.2,0.5-0.4,0.7-0.7c0.8-0.6,1.1-0.5,0.9,0.5C321.3,268.9,320.7,269.6,320.6,269.8z"/>
					<path class="st5" d="M316.3,266.5c-0.4-1.7-3.2,0.6-4.4,1.6c-0.4,0.3-0.8,0.5-1.2,0.8c-0.8,0.6-2,1.4-2.4,2.4
						c-0.2,0.6-0.1,1.1,0.5,1.3c0.9,0.3,2.2-0.5,2.9-1c1.1-0.8,2.1-1.7,3-2.6C315.2,268.4,316.5,267.4,316.3,266.5z M314.9,267.5
						c-1,1.2-2.2,2.3-3.5,3.2c-0.3,0.2-1.6,1.2-1.9,1c-0.7-0.5,0.8-1.6,1.1-1.8c0.4-0.3,0.8-0.6,1.2-0.9c0,0,0,0,0,0
						c0.8-0.4,1.5-0.9,2.2-1.3c0,0,0,0,0,0c0.2-0.1,0.4-0.2,0.6-0.3c0.1,0,0.1-0.1,0.1-0.2C315.2,266.8,315.6,266.7,314.9,267.5z"/>
					<path class="st5" d="M347.7,268.2c-0.8-2.4-4.5-3.2-6.6-3.6c-1.7-0.4-7-2-7.9,0.1c-0.1,0.3,0,0.6,0.3,0.8
						c1,0.4,1.9,0.8,2.9,1.3c1.4,0.7,2.7,1.4,4.1,2.1c1.4,0.7,3.3,2.1,5,2.2C347.1,271.2,348.2,269.9,347.7,268.2z M343.8,269.4
						c-0.7-0.3-1.3-0.6-2-0.9c-0.8-0.4-1.6-0.7-2.4-1.1c-2-1.2-4.6-2.7-4.7-2.5c0.5-0.8,6.8,0.6,7.5,0.7c0.9,0.2,2.8,0.5,3.4,1.2
						C346,269.7,345.4,270.5,343.8,269.4z"/>
					<path class="st5" d="M322.8,261.2c-0.5-0.3-1.2-0.1-1.7,0c-0.7,0.2-1.7,0.4-2.2,0.9c-0.5,0.5-0.2,0.9,0.3,1.3
						c0.8,0.9,2,1.8,3.1,0.8C322.9,263.6,323.8,261.8,322.8,261.2z M322.5,262.5c-0.1,0.3-0.3,0.6-0.5,0.9c-0.4,0.4-0.7,0.5-1.1,0.4
						c-0.4-0.3-0.9-0.5-1.2-0.9c-0.2-0.3-0.1-0.2,0.1-0.3c0.2-0.2,0.5-0.3,0.8-0.4c0.4-0.1,0.8-0.3,1.2-0.3c0.1,0,0.4-0.1,0.5-0.1
						C322.6,261.9,322.6,262.2,322.5,262.5z"/>
					<path class="st5" d="M328.9,261.1c-0.6-0.1-1.4,0-2,0.1c-0.7,0.2-1.1,0.5-1.6,1c-0.2,0.2,0,0.4,0.2,0.5c0,0.1,0.1,0.2,0.2,0.3
						c0.9,0.8,2.6,0.7,3.6,0.1c0.4-0.2,0.8-0.6,0.8-1.1C330,261.5,329.4,261.1,328.9,261.1z M328.7,262.4c-0.4,0.4-1.4,0.3-1.9,0.2
						c-0.1,0-0.6-0.1-0.6-0.2c0,0,0-0.1,0-0.1c0.4-0.2,0.9-0.2,1.3-0.3c0.3,0,0.5,0,0.8,0c0.1,0,0.2,0,0.4,0
						C329,262.1,329,262.3,328.7,262.4z"/>
				</g>
				<path class="st14" d="M246.2,295.3c-7.4-1.5-15-3.3-21.4-7.6c-0.4-0.3-0.8,0.3-0.5,0.7c5.5,5.8,13.8,8.4,21.6,8.9
					C247.1,297.4,247.3,295.6,246.2,295.3z"/>
				<path class="st14" d="M313.4,283.5c-2.6-0.6-5.3-1.3-8-1.4c-0.4,0-0.4,0.4-0.2,0.6c2.1,1.6,4.9,2.6,7.6,2.9
					C314.2,285.9,314.8,283.9,313.4,283.5z"/>
				<path class="st14" d="M150.9,282c-4.1-3.3-7.5-6.9-10.4-11.2c-0.2-0.4-0.9-0.2-0.7,0.3c1.6,5.2,5.1,9.8,9.7,12.7
					C150.6,284.5,151.9,282.8,150.9,282z"/>
				<path class="st14" d="M159.5,285.3c-2.2-0.4-4.4-0.6-6.6-1.1c-0.5-0.1-0.8,0.6-0.4,0.9c2.1,1.1,4.3,1.9,6.7,1.9
					C160.2,286.9,160.5,285.4,159.5,285.3z"/>
			</g>
			<g>
				<path class="st4" d="M344.1,268c-13,2-26,4.6-38.8,7.7c-21.5,5.2-43.1,11.5-64,19.3c-15-9.1-31.8-14.9-48.9-18.8
					c-11.2-2.6-22.5-4.4-33.8-6.2c-8.2-1.3-16.5-2.8-24.9-3.1c8.5-5.1,18-8.4,27.5-11.2c14.5-4.2,29.1-7.8,43.9-10.7
					c14.1-2.7,28.3-4.7,42.5-6c21,1.5,42,2.6,62.7,6.5c12.7,2.4,25.3,5.7,37.4,10.5c6.2,2.5,12.9,5.3,19.1,8.9
					C359.2,265.7,351.6,266.8,344.1,268z"/>
				<path class="st1" d="M178.2,270.3c-6.1-1.9-12.4-3.3-18.6-4.9c-5.6-1.4-11.6-2.8-17.2-0.6c-0.7,0.3-0.6,1.2,0.2,1.3
					c12,1,23.7,2.7,35.4,5.2C178.6,271.4,178.8,270.5,178.2,270.3z"/>
				<path class="st1" d="M240.7,289.2c-8.3-6.9-19.4-11.1-29.9-13c-0.8-0.1-1.2,1-0.4,1.3c10.6,3,19.7,7.7,29.3,12.9
					C240.5,290.8,241.4,289.8,240.7,289.2z"/>
				<path class="st15" d="M366.9,264.9c-6.1-3.6-12.8-6.4-19.1-8.9c-12-4.8-24.6-8.1-37.4-10.5c-20.8-3.9-41.7-5-62.7-6.5
					c-14.2,1.3-28.4,3.3-42.5,6c-13.9,2.7-27.7,6-41.4,10c1.5,0.4,2.9,0.8,4.4,1.2c6.5,2.1,39.4,13.2,47.8,16
					c6.2,2,12.3,3.9,18.5,5.5c5.6,1.5,9.6,3.8,14.7,6.1c6,2.7,12.8-2.3,19.1-3.9c7.3-1.8,14.8-3,22.1-4.2c15.2-2.4,30.9-6,46.3-6.9
					c0.5,0,1.1,0,1.6-0.1c1.9-0.3,3.8-0.6,5.7-0.9C351.6,266.8,359.2,265.7,366.9,264.9z"/>
				<path class="st5" d="M370.9,264.6c-5.9-3.7-12.5-6.6-18.4-9.1c-12.4-5.3-25.5-9-38.7-11.6c-13.4-2.6-27-4.2-40.6-5.2
					c-3.6-0.3-7.3-0.5-10.9-0.7l-21-0.8l-7.6,1c-10.3,1.4-20.5,3.1-30.6,5.1c-15.3,3-30.6,6.7-45.5,11.5c-9.3,3-18.5,6.6-26.3,12.3
					l-1.7,1.3l2,0.2c20.2,1.7,40.7,5.3,60.4,9.9c16.4,3.8,32.5,9.2,46.9,17.8l1.5,0.9l2.7-0.8c20.4-6.1,40.6-12.8,61.4-17.9
					c12.3-3,24.7-5.6,37.2-7.6c9.7-1.5,19.3-2.3,29-3.2l3.7-0.3L370.9,264.6z M344.1,268c-13,2-26,4.6-38.8,7.7
					c-21.5,5.2-43.1,11.5-64,19.3c-15-9.1-31.8-14.9-48.9-18.8c-11.2-2.6-22.5-4.4-33.8-6.2c-8.2-1.3-16.5-2.8-24.9-3.1
					c8.5-5.1,18-8.4,27.5-11.2c14.5-4.2,29.1-7.8,43.9-10.7c14.1-2.7,28.3-4.7,42.5-6c21,1.5,42,2.6,62.7,6.5
					c12.7,2.4,25.3,5.7,37.4,10.5c6.2,2.5,12.9,5.3,19.1,8.9C359.2,265.7,351.6,266.8,344.1,268z"/>
			</g>
			<g>
				<g>
					<path class="st8" d="M339.5,240.9c-0.8,0.1-1.1-1-0.3-1.2c3.7-0.8,13.1-3.2,13.3-8.2c-0.5-0.7-1.1-1.3-1.7-1.9
						c-3.4-3.3-7.7-5.4-12.2-7c-8.4-2.9-17.3-4.7-26-6.3c-32.7-6.1-66.3-6.6-99.4-5.5c-16.4,0.6-33,1.8-48.9,6
						c-7.4,1.9-16.9,4-22.1,10c-2.9,3.4-4.3,7.9-4.8,12.5c0.2-0.3,0.7-0.1,0.6,0.3c-0.6,3.8-0.6,7.9,0.1,11.7
						c0.4,2.4,1.1,4.3,3.6,5.4c1.8,0.8,4,1.1,5.9,1.8c5.3,1.9,10.5,2.4,16,3c4.2,0.5,7.8,2.3,11.8,3.1c4.5,0.9,9.3,0.3,13.8,0.9
						c3.7,0.5,7.1,1.9,10.8,2.7c9.3,2.1,19-0.7,28.4,1c5,0.9,9.6,2.5,14.8,2.3c4.3-0.2,8.5-1.2,12.8-1.6c5-0.5,9.9,0.2,14.8,0.1
						c4.7-0.1,9.4-0.7,14-1.2c9.7-1,19.8-0.5,29.3-2.6c3.9-0.9,7.8-2.1,11.8-2.5c4.4-0.4,8.8-0.2,13.2-0.8
						c7.2-0.9,15.3-2.9,17.2-10.9c0.8-3.4,1.3-8.1,0.7-12.3c-0.8-2.2-1.8-4.4-3-6.3C352.8,238.3,343.5,240.3,339.5,240.9z
						 M160.5,240.5c-6.7-0.3-15.1-2.1-20.3-6.6c-0.4-0.3,0.1-1,0.5-0.7c3,2,6.7,2.7,10.1,3.8c3.2,1,6.4,1.9,9.8,2.5
						C161.2,239.6,161,240.5,160.5,240.5z M212.5,244.7c-14.9,0.5-29.8-0.3-44.7-1.6c-0.6-0.1-0.6-1,0-1c14.9,0.5,29.8,0.8,44.7,1.7
						C213.1,243.9,213.1,244.7,212.5,244.7z M254.2,247.2c-5.5,1-11.1,1-16.7,0.9c-4.2-0.1-9.5,0.3-13.1-2.3
						c-0.2-0.1-0.1-0.4,0.1-0.4c4.6,0,9.2,0.6,13.8,0.5c5.2,0,10.5-0.2,15.7,0C254.7,245.8,255,247,254.2,247.2z M331.3,243.1
						c-19,4.9-38.8,6.6-58.3,5.4c-0.5,0-0.5-0.7,0-0.7c19.5-0.8,38.7-2.8,58-5.8C331.7,241.9,332,242.9,331.3,243.1z"/>
				</g>
				<path class="st9" d="M142.3,242.7c0.8,3.2-0.8,8.3,1,10.9c-0.4-0.6,3,1.6,2.7,1.5c2.7,1,4.2,0.2,7.1,0.1
					c3.3-0.1,2.3,0.9,4.8,2.1c0.6,0.3,3.6,1.8,3.7,1.8c1.7,0.2,3.8-0.7,5.4-0.7c-0.1,0,1,1.2,1.6,1.2c1.3,0.1,2.5-1.3,4.2-1
					c0.3,4.3,3.3,3.6,6,2.5c3.2-1.4,4.3-2.5,6.3-5.6c0.1,1.3,0.1,7.8,1.8,8.2c1.9,0.4,4.2-4.7,5.2-6c1,3.4,2.3,9.1,7.2,7
					c2.9-1.3,4-8.1,2.4-10.6c-2.4-3.8-8.8-1-12.3-2.5c-1.7-0.7-2.9-3.2-5-3c-2.2,0.2-2.2,2.1-3.8,3.7c-1.6-0.8-3.5-3.6-5.2-3.6
					c-1.6,0-2.3,1.6-3.8,2c-2.9,0.7-6.6-1.9-9.6-2.4c-2-0.4-3.9-1-5.8-1.3c-1.7-0.3-3-0.2-4.6,0c-1.5,0.3-1.6,1.9-3.4,1.1
					C145.8,246.7,147.4,243.3,142.3,242.7z"/>
				<path class="st10" d="M353.8,233.3c-1,4.9-10.3,7-14.3,7.5c-0.8,0.1-1.1-1-0.3-1.2c3.7-0.8,13.1-3.2,13.3-8.2
					c-0.5-0.7-1.1-1.3-1.7-1.9c-3.4-3.3-7.7-5.4-12.2-7c-8.4-2.9-17.3-4.7-26-6.3c-32.7-6.1-66.3-6.6-99.4-5.5
					c-11.7,0.4-23.5,1.2-35.1,3c-3.8,5.8-4.7,12.6-0.8,20.3c2.2,4.3,5.6,6.9,9.6,8.5c8.6,0.3,17.1,0.6,25.6,1.1c0.6,0,0.6,0.9,0,0.9
					c-6,0.2-12,0.2-18,0c5.2,0.8,10.7,0.8,15.4,1.1c6,0.3,11.7,1,17.3,1.3c-1-0.3-1.9-0.8-2.7-1.4c-0.2-0.1-0.1-0.4,0.1-0.4
					c4.6,0,9.2,0.6,13.8,0.5c5.2,0,10.5-0.2,15.7,0c0.1,0,0.2,0,0.3,0.1c3.3-0.1,6.5,0.1,9.4,0.8c7.1,1.6,12,6.4,19.3,6.1
					c9-0.4,11.8,2.8,7.2,12c-2.4-1.7-3.4-5.1-4.1-8c-2,2.4-2.3,6.8-2.2,9.8c-1.8-0.7-2.4-2.9-3.4-4.7c-3.2,2.8-2.2,5.4-7.6,6.1
					c-3.1,0.4-6.5,0.5-9.6,0.8c-4.4,0.3-9.2,1.8-13.4,1.4l-0.4,0.6c2.1-0.3,4.1-0.6,6.2-0.9c5-0.5,9.9,0.2,14.8,0.1
					c4.7-0.1,9.4-0.7,14-1.2c9.7-1,19.8-0.5,29.3-2.6c3.9-0.9,7.8-2.1,11.8-2.5c4.4-0.4,8.8-0.2,13.2-0.8
					c7.2-0.9,15.3-2.9,17.2-10.9c0.8-3.4,1.3-8.1,0.7-12.3C355.9,237.4,355,235.3,353.8,233.3z M331.3,243.1
					c-19,4.9-38.8,6.6-58.3,5.4c-0.5,0-0.5-0.7,0-0.7c19.5-0.8,38.7-2.8,58-5.8C331.7,241.9,332,242.9,331.3,243.1z"/>
				<g>
					<path class="st5" d="M356.2,232.3c-0.2-0.3-0.4-0.4-0.6-0.4c-1.7-2.5-4-4.7-6.3-6.4c-6.8-4.9-15.4-6.8-23.4-8.7
						c-17.9-4.2-36.3-6.6-54.7-7.8c-18.6-1.2-37.2-1.1-55.8-0.5c-17.6,0.6-35.4,1.7-52.5,6.3c-7.9,2.1-17.9,4.5-23.1,11.3
						c-4.3,5.6-4.1,12.7-3.7,19.4c-0.4,4-0.1,8.2,2.1,10.9c1.6,2,4.4,2.3,6.7,3.1c5.1,1.7,9.7,3.1,15.1,3.5c3,0.3,5.9,0.5,8.8,1.4
						c2,0.6,3.9,1.5,6,2c4.3,0.9,8.7,0.3,13,0.8c5,0.5,9.5,2.6,14.4,3.3c5.5,0.8,11.1,0.2,16.7,0.1c5.5-0.1,10.4,0.9,15.8,2
						c4.6,1,9.2,0.7,13.9,0.1c11.5-1.6,23-0.7,34.6-1.9c5.2-0.5,10.5-1.1,15.7-1.4c5.1-0.2,10-0.3,15-1.4c5.3-1.2,10.2-2.6,15.6-2.8
						c4.4-0.2,8.8-0.3,13.2-1.1c6.9-1.3,13.5-4.4,15.3-11.7C359.3,246.6,359.7,237.5,356.2,232.3z M356.1,252
						c-2,8-10,10.1-17.2,10.9c-4.4,0.5-8.8,0.3-13.2,0.8c-4,0.4-7.8,1.6-11.8,2.5c-9.5,2.2-19.6,1.6-29.3,2.6
						c-4.7,0.5-9.4,1.1-14,1.2c-5,0.1-9.9-0.7-14.8-0.1c-4.3,0.5-8.5,1.4-12.8,1.6c-5.2,0.3-9.8-1.3-14.8-2.3
						c-9.4-1.7-19,1.1-28.4-1c-3.6-0.8-7-2.3-10.8-2.7c-4.6-0.6-9.3,0.1-13.8-0.9c-4-0.8-7.6-2.6-11.8-3.1c-5.5-0.6-10.7-1.1-16-3
						c-1.9-0.7-4.1-1-5.9-1.8c-2.4-1-3.2-3-3.6-5.4c-0.6-3.8-0.6-7.9-0.1-11.7c0.1-0.4-0.5-0.6-0.6-0.3c0.6-4.6,1.9-9.1,4.8-12.5
						c5.2-6,14.7-8.1,22.1-10c16-4.2,32.5-5.4,48.9-6c33.2-1.2,66.7-0.7,99.4,5.5c8.7,1.6,17.6,3.4,26,6.3c4.4,1.5,8.8,3.7,12.2,7
						c0.6,0.6,1.2,1.3,1.7,1.9c-0.2,5-9.6,7.4-13.3,8.2c-0.8,0.2-0.4,1.3,0.3,1.2c4-0.6,13.3-2.6,14.3-7.5c1.2,2,2.2,4.1,3,6.3
						C357.4,243.9,357,248.6,356.1,252z"/>
					<path class="st5" d="M160.6,239.5c-3.3-0.6-6.5-1.6-9.8-2.5c-3.4-1.1-7.1-1.8-10.1-3.8c-0.4-0.3-0.9,0.4-0.5,0.7
						c5.1,4.5,13.6,6.3,20.3,6.6C161,240.5,161.2,239.6,160.6,239.5z"/>
					<path class="st5" d="M212.5,243.8c-14.9-0.9-29.8-1.2-44.7-1.7c-0.6,0-0.6,0.9,0,1c14.9,1.3,29.8,2.1,44.7,1.6
						C213.1,244.7,213.1,243.9,212.5,243.8z"/>
					<path class="st5" d="M254,245.8c-5.2-0.2-10.5,0-15.7,0c-4.6,0-9.2-0.6-13.8-0.5c-0.3,0-0.3,0.3-0.1,0.4
						c3.6,2.6,8.8,2.2,13.1,2.3c5.6,0.1,11.2,0.1,16.7-0.9C255,247,254.7,245.8,254,245.8z"/>
					<path class="st5" d="M331,242c-19.3,2.9-38.5,5-58,5.8c-0.5,0-0.5,0.7,0,0.7c19.5,1.2,39.3-0.5,58.3-5.4
						C332,242.9,331.7,241.9,331,242z"/>
				</g>
			</g>
			<g>
				<g>
					<path class="st6" d="M362.6,225.6c-1.2-1.2-2.6-2.2-4-3.1c-0.2-0.1-0.3-0.3-0.4-0.5c-1.7-0.7-3.3-1.2-4.4-1.5
						c-3.2-0.7-7.2-0.6-10.2-2.3c-3.1-1.8-2.2-6.1-5.2-7.5c-4.3-2.1-10.3-1.1-14.8-0.8c-3.4,0.3-5.6,0-8.3-1.9
						c-2.3-1.6-3.2-2.4-6-1.8c-0.9,0.2-1.7,0.4-2.5,0.6c-2.1,0.5-4.2,1.4-6.3,1.6c-1.3,0.1-1.7-0.1-2.8-0.5c-2.6-0.9-3.9-1-6.5-0.6
						c-1.2,0.2-2.3,0.3-3.3,0.1c-0.2,0.1-0.4,0.1-0.6,0c-3.6-1.8-6.2-4.4-10.5-2.4c-2,0.9-3.8,2.1-6,2.4c-1.5,0.2-2.8-0.1-4.2-0.6
						c-2.1-0.7-3.1-1.6-5.5-0.9c-1,0.3-1.9,0.8-2.9,1.1c-4.7,1.4-6.1-3.5-10.5-3c-3.8,0.4-6.8,3.3-10.8,1.8
						c-1.7-0.7-3.1-2.1-4.9-2.7c-3-0.9-5.9,1-8.5,2.3c-3.3,1.6-6.3,2.3-9.9,1c-2.5-0.9-4.6-2-7.4-2.1c-3,0-6.3,0.9-8.9,2.4
						c-1,0.6-2.3,1.6-3.5,2c-1.1,0.6-2.4,1-3.8,1c-2.4-0.1-4.3-1.3-6.8-0.9c-2,0.3-3.8,1.9-5.7,2.6c-1.7,0.6-3.4,0.8-5.1,0.1
						c-1.8-0.7-3.4-2.2-5.3-2.5c-2.9-0.4-4.6,0.6-6.8,2.3c-2,1.5-3.6,2.1-6.1,1.4c-2.3-0.7-3.8-1.9-6.3-0.8c-2.3,1-3.1,2.6-4.5,4.5
						c-0.7,1.1-1.6,2.1-2.7,2.7c3.8-0.7,7.9-2.4,11.7-1c0.3,0.1,0.2,0.5-0.1,0.4c-3.7-1-7.6,1.5-11.1,2.2c-3.7,0.8-7.4,0.1-10.4,3
						c-0.1,0.1-0.2,0.1-0.3,0.1c-0.2,1.7,0.7,3.5,1.4,5.2c0.3,0.7,0.4,1.3,0.5,1.9c1.4-0.7,3.2-1,4.5-1.4c5.1-1.5,9.8-3.7,15.2-3.8
						c0.3,0,0.3,0.5,0,0.5c-4.2,0.4-7.7,2.1-11.6,3.6c-3,1.2-7.4,1.9-9.2,4.8c-0.1,0.1-0.2,0.2-0.3,0.3c-0.8,1.1-1.8,2.1-2.4,3.3
						c-1,2-0.7,4.7,2,4.9c1.3,0.1,2.6-0.2,3.8-0.6c1.2-0.4,2.6-0.9,4-1.3c6.2-3.4,13.1-5.5,20-6.9c0.5-0.1,0.7,0.6,0.2,0.8
						c-5.7,1.4-11,3.3-16.2,5.8c0.9,0.2,1.8,0.6,2.5,1.3c1.2,1.1,1.7,2.6,2.2,4.1c0.7,2.1,0.6,3.9,2.8,4.3c3.2,0.5,2.6-2.3,4.8-3.9
						c0.1-0.1,0.2-0.1,0.3-0.2c0.1-0.1,0.2-0.2,0.3-0.3c0.2-0.1,0.3-0.1,0.5-0.2c0.4-0.2,0.8-0.4,1.2-0.5c7.5-3,15.7-4.5,22.7-8.7
						c0.4-0.3,0.8,0.4,0.4,0.7c-6.2,3.8-13.1,5.6-19.8,8.3c0.4,0.2,0.8,0.6,1.1,1.1c0.4,0.6,0.7,2.3,1,3c0.9,2.1,2.3,3.1,4.6,3.4
						c3.6,0.5,6.9-1.6,9.9-3.5c1.6-1,3.3-2.1,5-2.6c4-2.6,8.1-5.1,12-7.9c0.4-0.3,0.7,0.4,0.4,0.6c-3.1,2.3-6.2,4.5-9.3,6.8
						c1,0.1,2.1,0.4,3.1,1.1c1.4,1,2.5,2.4,3.7,3.7c1.9,1.9,3.3,2.5,5.6-0.1c0.2-0.2,0.4-0.5,0.6-0.8c-0.2-0.3-0.2-0.6,0.1-0.9
						c2.5-2.8,5.5-5,8.2-7.5c2.8-2.6,5.4-5.4,8.4-7.8c0.4-0.3,0.9,0.2,0.6,0.6c-2.7,2.7-5.1,5.6-7.9,8.3c-1.2,1.2-2.6,2.3-3.9,3.5
						c0.7,0,1.4,0.2,2,0.8c1,0.9,0.7,1.8,0.9,3.1c1.1,6.6,7.8,3.9,11.6,2c0.5-0.3,2.9,0,3.7-0.2c2.2-0.5,2.8-1.3,4.2-3
						c1.2-1.5,2.4-2.3,3.7-2.2c-1.6-3.8-2.2-9-0.4-11.8c0.3-0.5,1,0,0.7,0.4c-2.3,4,0.5,9.4,2.4,13.1c0.5,0.6,0.9,1.8,1.5,2
						c1.9,0.9,2.4-1.2,3.6-1.9c1.4-0.9,3-0.8,4.5-0.1c1,0.4,1.6,1.1,2.5,1.7c1,1.8,5.9,3.8,5-3.8c-0.1-0.7,0.8-0.9,1.4-1.2
						c0.4-0.2,0.7-0.3,1.1-0.4c-2.2-2.4-4-5.2-5.3-8.3c-0.1-0.3,0.4-0.5,0.5-0.2c1.6,3.6,4.3,6.2,7.2,8.6c3.2,1.1,5.9,5.5,9.7,4.4
						c4.1-1.2,7.4-3.1,10.2,1.3c0.5,0.9,0.8,1.9,1.4,2.7c2.8,3.4,6.1,1.7,8.7-0.5c2-1.7,3.6-3.9,6-5.1c1.1-0.6,2.4-0.9,3.6-1
						c-0.5-0.6-1.1-1.1-1.7-1.7c-1.5-1.4-3.3-2.2-5-3.3c-2.5-1.6-4.9-3.6-5-6.8c0-0.3,0.5-0.4,0.5-0.1c0.6,3.9,4.3,5.2,7.4,6.9
						c3.2,1.7,5.1,4.8,8.2,6.4c0.3,0.2,0.4,0.4,0.4,0.6c1.8,1.5,3.6,3.2,6,2.3c0.3-0.1,0.6-0.1,0.8,0c1.7-0.8,3.3-2.2,5.1-2.9
						c2.1-0.7,3-0.1,5,0.5c0.3,0.2,0.6,0.4,0.9,0.7c2.1,0.6,3.7,0.3,5-1c0.7-0.4,1.2-1,1.9-1.3c0.8-0.4,1.6-0.5,2.4-0.6
						c-3.2-2-6.7-3.7-8.7-6.8c-0.3-0.5,0.4-0.8,0.7-0.4c2.9,4,8.8,3.9,11.7,7.8c3.6,1.2,9.2,3.5,9-2.7c0-1.6-1-2.9-0.3-4.5
						c0.5-1.3,1.6-1.9,2.8-2c-2.6-1.5-5.6-1.7-9-2.2c-3.4-0.5-6.5-1.6-9.6-3.1c-0.4-0.2-0.1-0.8,0.4-0.6c3,1.4,6.1,2.1,9.4,2.4
						c2.1,0.2,4.3,0,6.4,0.4c3,0.6,5.5,2.5,7,5.1c0.2,0.4,0.1,0.7-0.1,0.9c0.3,0.5,0.6,1.1,0.9,1.6c1.4,2.3,3.5,2.7,4.8,0.4
						c0.3-0.6,0.4-1.3,0.7-1.9c1.7-3.7,3.7-3,7.1-2.7c2,0.9,5.1,1,3.3-1.6c-0.4-0.4-0.8-0.8-1.2-1.2c-0.4-0.5-0.7-0.9-0.9-1.5
						c-0.3-0.9-0.3-1.9,0.4-2.6c1-1.1,5.6-2,3.6-4.3C363.8,226.9,363.2,226.2,362.6,225.6z M168.9,232.5c-1.9,0.3-4.5,0.3-6,1.6
						c-0.3,0.3-0.8-0.2-0.5-0.5c1.6-1.6,4.2-1.7,6.3-2.2C169.3,231.3,169.5,232.4,168.9,232.5z"/>
				</g>
				<path class="st7" d="M356.2,228.4c-1.6-2.7-4.8-4.1-8.2-4.7c-0.2-0.1-0.3-0.2-0.5-0.3c-3.3-1.9-9.4-2.1-12-4.8
					c-2.9-3.1-0.4-6.3-5.8-7c-5.1-0.7-9.5,3.4-14.7,1.4c-1.9-0.7-2.5-1.8-4.6-2.2c-2-0.3-3.8,0.3-5.6,0.8c-3.2,0.9-2.5,0.8-5.2-0.1
					c-1.8-0.6-2.6-1-4.5-1.1c-2.3-0.1-4.5,0.4-6.8,0.4c-3.6,0-7-2-10.4-1.9c-3,0.1-4.7,2.8-7.7,3c-2.8,0.2-4.6-1.8-7.1-2.3
					c-3.3-0.6-3.6,1.3-6.6,2.2c-3.5,1-3.6-1.1-6-2.5c-4.5-2.7-10-0.1-14.4,2.2c-2,1-3.3,2.5-4.8,3.7c-2.6-3.2-8.8-2-12.2-0.7
					c-5.3,2.1-9.5,9.6-15,9.9c-4.2,0.3-5.5-1.1-9.5,2.3c-2.3,2-2.3,4.1-4,6.1c-2.3,2.8-10.5,4-7,9c3.3-0.4,6.6-1.9,9.5-3.5
					c4.3-2.3,3.8-1.4,5,2.6c0.7,2.3-0.4,2.7,2.6,2.7c2.4,0,4.2-1.8,6-3c5.4-3.4,10-7.1,14.5-11.3c-0.2,1.2-0.9,2.4-2.7,4
					c-3.9,3.5-1.7,3.6-2.2,8.1c-0.4,3.5-5.2,7.3,1.1,7.4c3,0.1,2.9-2,4.8-2.6c1.7-0.5,1.7,0.2,3.3,0.1c5.5-0.2,3.1-0.9,3-5.3
					c-0.1-2.2,1.4-9.1,4.5-8.1c1.7,0.6,2.3,4.9,3.3,6.3c0.8,1.1,2.2,1.9,2.9,2.9c1.4,2.1,2.1,7.3,5.9,6.2c2.7-0.7,1.9-3.3,5.9-3.4
					c0.3-3.7-5.6-7.3-6.9-10.2c3.8-0.7,6.8,4.4,10.7,5.5c3.5,1.8,9.2,3.1,11.7,3.6c2.7,0.6,5.5-0.6,7.8,1.5c1.7,1.6,1.1,5.1,4.7,4.5
					c5-0.9,5.4-8,11.5-5.2c2.6,1.2,4.4,3,6.8,4.3c1.1,0.6,3.1,1.4,4.4,1.3c4.2-0.4,2.8-3.2,4.1-5.6c4-7.3,8.7,1.2,13,0.8
					c1.7-0.2,1.9-2,3.5-2.2c1.2-0.1,3,1.3,4.3,1.4c1.2,0.2,4.2,0.4,5.4,0c3.5-1.4,0.9-1.5,0.6-4.1c-0.6-5.2,6-4.2,9.9-3.6
					c3.5,0.6,9.3,4.8,8.5-2.2C354.5,233.8,358.7,232.6,356.2,228.4z"/>
				<path class="st5" d="M365.2,225c-1.3-1.6-3.2-3-5-3.9c-0.2-0.1-0.4-0.2-0.5-0.3c-0.2-0.1-0.4-0.2-0.6-0.2
					c-0.3-0.1-0.5-0.2-0.8-0.3c-4.1-1.4-10.2-0.9-13.9-3.2c-2.9-1.8-1.4-4.3-3.3-6.4c-0.9-1.1-2.3-1.4-3.7-1.7
					c-5-1.2-9.9-0.5-15-0.3c-5,0.3-6.9-4.5-11.7-4.1c-1.9,0.2-3.8,0.7-5.7,1.2c-1.2,0.3-2.5,0.9-3.7,1c-3,0.4-2.7-0.3-4.6-1.1
					c-3-1.2-6.1,0.7-9,0.6c-3.8-1.9-6.1-4.6-10.5-2.9c-3,1.1-5.6,3.5-9.1,2.7c-2-0.5-3.2-1.8-5.3-1.8c-1.9,0-3.4,1.1-5.2,1.5
					c-3.1,0.7-4.5-1.8-6.9-2.8c-4-1.6-7.6,2-11.5,1.9c-3.8-0.1-6.1-3.8-10.2-3.2c-4.7,0.7-8.4,5-13.4,4c-4.6-0.9-7.3-3.2-12.3-2.4
					c-1.9,0.3-3.9,0.9-5.7,1.8c-0.7,0.4-1.6,1.2-2.5,1.9c-0.1,0-0.1,0-0.2,0.1c-4,2.6-6.8-0.1-10.8,0.1c-3.9,0.3-6.8,4-10.8,3
					c-2.9-0.7-4.9-2.7-8.1-2.7c-3.2,0-4.1,2-6.7,3.2c-3.9,1.8-6.4-1.6-10.1-0.9c-1.7,0.3-3.2,1.4-4.3,2.7c-1.1,1.3-1.7,3.1-2.9,4.4
					c-1.7,1.7-3.2,1.6-5.3,1.7c-0.9,0.1-2.1,0-2.8,0.7c-2.7,0.7-5,2.2-5.2,5.3c-0.2,3.3,3.1,5.2,1.7,8.7c-0.9,2.1-3.1,3.5-3.9,5.7
					c-1.1,3.1,0.8,5.8,4,6.3c2.4,0.4,4.5-0.4,6.7-1.1c1.6-0.6,4-1.6,5.8-1c2.3,0.8,2.6,3.6,3.3,5.5c1.3,3.4,4.1,5.3,7.4,2.8
					c1-0.7,1.6-1.8,2.5-2.5c2.9-2.5,3.3-0.2,4.5,1.8c1.2,1.9,2.1,3.2,4.3,4.1c5.6,2.3,10.6-1.5,15.2-4.3c2.6-1.5,5.7-2.3,8.2-0.2
					c0.8,0.7,1.4,1.6,2.2,2.3c1.2,1.2,2.5,2.5,4.3,2.7c2,0.2,3.4-1,4.6-2.5c0.4-0.5,0.7-1.1,1.1-1.6c0.5-0.8,1-1.4,1.8-2
					c1.2-0.7,2.2-0.8,2.6,0.8c0.4,0.6,0.1,2.4,0.5,3.3c2.8,5.7,10,3.1,14.2,1c0.2-0.1,5.7,0,7.7-2.4c0.4-0.5,0.7-1,1-1.5
					c1.6-1.2,2.7-1,3.4,0.5c0.4,0.4,0.7,1,1.1,1.5c0.8,0.8,1.7,1.3,2.9,1.1c4-0.6,1.2-5,7.8-1.4c1.6,0.9,2.6,2.5,4.7,2.6
					c1.2,0.1,2.7-0.3,3.5-1.4c1.3-1.7-0.2-7.5,5.1-4.4c1.7,1,2.6,2.6,4.7,3.1c2,0.4,3.9-0.5,5.7-1.1c6.4-2.4,6.1,5.8,11.3,6.8
					c5.7,1.1,8.3-4.7,12.5-7c2.2-1.3,5.3-1.3,7.4,0.2c0.9,0.7,1.8,1.6,2.8,2.2c1.6,0.9,3.2,1.1,4.9,0.4c0.3-0.1,0.5-0.3,0.6-0.5
					c0.4-0.1,0.8-0.2,1.2-0.4c2.5-1,4-3.1,7.4-1.7c0.8,0.3,1.3,1.1,2.1,1.4c1.8,0.8,3.2,0.3,4.7-0.7c1.9-1.3,3.3-2.7,5.9-2.5
					c1.8,0.1,3.3,1,5,1.4c3.3,0.9,7.9,0.5,8.7-3.6c0.2-1.1-0.9-3.1-0.6-3.9c2-4.9,4.1,0.5,4.7,1.4c0.9,1.4,2.1,2.8,3.8,3
					c1.3,0.2,2.4-0.3,3.3-1.3c0.6-0.7,0.9-1.6,1.3-2.4c1.2-2.9,2.6-3.3,5.9-3c1.7,0.2,3.2,1,4.8-0.2c1.2-0.9,1.7-2.3,1.1-3.7
					c-0.2-0.5-0.7-0.9-1-1.4c-1.2-0.7,0.9-2.3,1.4-2.3c1.4-0.5,2.4-0.7,2.8-2.3C368.6,229,367.1,226.8,365.2,225z M360.4,234.5
					c0.2,0.6,0.5,1,0.9,1.5c0.3,0.4,0.7,0.8,1.2,1.2c1.8,2.6-1.4,2.5-3.3,1.6c-3.4-0.3-5.4-1-7.1,2.7c-0.3,0.6-0.4,1.3-0.7,1.9
					c-1.3,2.4-3.4,2-4.8-0.4c-0.8-1.4-1.4-3-2.8-3.9c-1.9-1.2-4.4-1-5.4,1.2c-0.7,1.6,0.2,2.9,0.3,4.5c0.2,7.4-7.9,2.5-10.9,2.2
					c-1.5-0.2-2.9-0.1-4.2,0.5c-0.7,0.3-1.2,1-1.9,1.3c-1.3,1.3-2.9,1.7-5,1c-0.3-0.2-0.6-0.4-0.9-0.7c-2-0.5-2.8-1.2-5-0.5
					c-1.8,0.6-3.4,2-5.1,2.9c-0.2-0.1-0.5-0.2-0.8,0c-3.6,1.4-5.8-3.1-8.8-4c-1.9-0.6-3.9-0.1-5.7,0.7c-2.4,1.2-4,3.3-6,5.1
					c-2.6,2.2-5.9,3.9-8.7,0.5c-0.6-0.8-0.9-1.9-1.4-2.7c-2.8-4.4-6.1-2.5-10.2-1.3c-5.1,1.5-8.1-6.9-13.2-4.1
					c-0.6,0.3-1.5,0.6-1.4,1.2c0.9,7.6-4,5.6-5,3.8c-0.8-0.7-1.5-1.3-2.5-1.7c-1.5-0.7-3.1-0.8-4.5,0.1c-1.2,0.8-1.7,2.8-3.6,1.9
					c-0.7-0.3-1.1-1.7-1.7-2.2c-2.4-2.5-4.3-1.7-6.3,0.7c-1.4,1.7-2,2.5-4.2,3c-0.8,0.2-3.2-0.1-3.7,0.2c-3.8,1.9-10.5,4.6-11.6-2
					c-0.2-1.3,0.1-2.1-0.9-3.1c-2-1.8-5-0.2-6.4,1.5c-0.6,0.7-1,1.7-1.6,2.5c-2.3,2.6-3.7,2-5.6,0.1c-1.2-1.2-2.3-2.7-3.7-3.7
					c-3.9-2.6-7.7-0.2-11.2,1.9c-2.9,1.9-6.2,4-9.9,3.5c-2.4-0.3-3.7-1.3-4.6-3.4c-0.3-0.6-0.6-2.3-1-3c-1.6-2.4-4.5-1.7-6.6-0.2
					c-2.1,1.6-1.6,4.4-4.8,3.9c-2.2-0.4-2.1-2.2-2.8-4.3c-0.5-1.5-1-3.1-2.2-4.1c-3.1-2.8-7.2-0.7-10.5,0.3
					c-1.2,0.4-2.5,0.7-3.8,0.6c-2.7-0.2-2.9-2.9-2-4.9c0.9-1.8,2.6-3,3.4-5c0.6-1.5,0.5-2.8-0.1-4.2c-1.1-2.7-2.7-5.7,0.3-7.8
					c1.3-0.9,2.8-1.3,4.3-1.7c0.9,0.2,1.9,0.3,2.5,0.2c1.9-0.4,3.2-1.8,4.3-3.3c1.4-1.9,2.1-3.5,4.5-4.5c2.4-1,4,0.1,6.3,0.8
					c2.4,0.8,4.1,0.1,6.1-1.4c2.2-1.6,3.8-2.7,6.8-2.3c2,0.3,3.5,1.8,5.3,2.5c1.7,0.7,3.4,0.5,5.1-0.1c1.9-0.7,3.7-2.2,5.7-2.6
					c2.5-0.4,4.4,0.8,6.8,0.9c1.4,0.1,2.6-0.3,3.8-1c1.3-0.4,2.5-1.4,3.5-2c2.6-1.5,5.9-2.5,8.9-2.4c2.7,0,4.9,1.2,7.4,2.1
					c3.6,1.3,6.5,0.6,9.9-1c2.6-1.2,5.5-3.2,8.5-2.3c1.8,0.5,3.1,2,4.9,2.7c3.9,1.6,7-1.3,10.8-1.8c4.4-0.5,5.8,4.4,10.5,3
					c1-0.3,1.9-0.8,2.9-1.1c2.3-0.6,3.4,0.2,5.5,0.9c1.4,0.5,2.7,0.8,4.2,0.6c2.2-0.3,4-1.5,6-2.4c4.4-2,6.9,0.6,10.5,2.4
					c0.2,0.1,0.4,0.1,0.6,0c1,0.2,2,0.1,3.3-0.1c2.6-0.4,4-0.4,6.5,0.6c1.1,0.4,1.5,0.6,2.8,0.5c2.1-0.2,4.2-1.1,6.3-1.6
					c0.8-0.2,1.7-0.4,2.5-0.6c2.8-0.6,3.8,0.3,6,1.8c2.7,1.9,4.9,2.2,8.3,1.9c4.6-0.4,10.5-1.3,14.8,0.8c3,1.5,2.1,5.7,5.2,7.5
					c3,1.7,6.9,1.5,10.2,2.3c1,0.2,2.7,0.7,4.4,1.5c0.1,0.2,0.2,0.4,0.4,0.5c1.4,0.9,2.8,1.9,4,3.1c0.6,0.6,1.3,1.3,1.8,1.9
					c2,2.3-2.7,3.2-3.6,4.3C360.1,232.6,360.1,233.6,360.4,234.5z M214.6,234.6c-3,2.4-5.5,5.2-8.4,7.8c-2.8,2.5-5.8,4.7-8.2,7.5
					c-0.7,0.8,0.4,1.9,1.1,1.1c2.5-2.8,5.5-5,8.2-7.6c2.7-2.7,5.1-5.6,7.9-8.3C215.5,234.8,215,234.2,214.6,234.6L214.6,234.6z
					 M193.9,239.5c-4.1,2.9-8.3,5.5-12.5,8.2c-0.8,0.5,0,1.8,0.8,1.3c4-3,8.1-5.9,12.1-8.8C194.6,239.8,194.2,239.2,193.9,239.5
					L193.9,239.5z M179.6,237.1c-7.5,4.5-16.4,5.9-24.3,9.4c-0.9,0.4-0.1,1.8,0.8,1.4c7.9-3.7,16.4-5.5,23.9-10
					C180.5,237.5,180.1,236.8,179.6,237.1L179.6,237.1z M158.5,234.5c-7.3,1.5-14.6,3.7-21.1,7.5c-0.8,0.5-0.1,1.8,0.8,1.3
					c6.5-3.6,13.3-6.4,20.5-8.1C159.2,235.1,158.9,234.4,158.5,234.5L158.5,234.5z M162.8,234.1c1.6-1.3,4.1-1.3,6-1.6
					c0.7-0.1,0.4-1.2-0.3-1c-2.1,0.4-4.7,0.6-6.3,2.2C162,234,162.5,234.4,162.8,234.1L162.8,234.1z M229.1,235.6
					c-2.5,3.8-0.6,11.7,2.2,14.9c0.6,0.6,1.5-0.2,1.1-0.9c-1.8-3.7-5-9.5-2.6-13.6C230.2,235.5,229.4,235.1,229.1,235.6L229.1,235.6
					z M246.5,237c1.9,4.7,5.1,8.7,9.1,11.9c0.9,0.7,2.1-0.5,1.2-1.2c-3.8-3.3-7.7-6.1-9.9-10.9C246.9,236.6,246.4,236.8,246.5,237
					L246.5,237z M282.2,235.5c0,3.2,2.5,5.2,5,6.8c1.7,1.1,3.5,2,5,3.3c1.8,1.6,3,3.5,5.2,4.6c1,0.5,1.9-1,0.9-1.5
					c-3.1-1.6-5-4.7-8.2-6.4c-3.1-1.6-6.8-2.9-7.4-6.9C282.7,235.2,282.2,235.3,282.2,235.5L282.2,235.5z M322.5,233.3
					c3.1,1.4,6.2,2.5,9.6,3.1c4.9,0.8,9,0.7,12.1,5.1c0.6,0.9,2,0.1,1.4-0.8c-1.6-2.6-4-4.4-7-5.1c-2.1-0.4-4.3-0.2-6.4-0.4
					c-3.3-0.3-6.3-1.1-9.4-2.4C322.5,232.4,322.1,233.1,322.5,233.3L322.5,233.3z M317.1,240.2c2.6,4,7.8,5.7,11.4,8.6
					c0.7,0.5,1.8-0.2,1.3-1c-2.8-4.2-8.9-4-11.9-8.1C317.6,239.4,316.9,239.8,317.1,240.2L317.1,240.2z M152.2,225.8
					c-5.4,0.1-10.1,2.4-15.2,3.8c-2.6,0.7-6.7,1.2-7.1,4.5c-0.1,0.9,1,1.5,1.5,0.6c1.8-2.9,6.2-3.6,9.2-4.8
					c3.8-1.6,7.4-3.2,11.6-3.6C152.5,226.3,152.5,225.8,152.2,225.8L152.2,225.8z M152.5,218.1c-4-1.5-8.4,0.6-12.4,1.1
					c-3.8,0.5-7.9,0-9.9,3.9c-0.2,0.5,0.3,1,0.7,0.6c3-2.9,6.7-2.2,10.4-3c3.5-0.7,7.5-3.2,11.1-2.2
					C152.6,218.6,152.7,218.2,152.5,218.1L152.5,218.1z"/>
				<path class="st1" d="M155.5,228c-8.1,3.7-17.4,4.4-24.5,10c-0.4,0.3,0.1,0.8,0.5,0.6c8-3.7,16.7-5.7,24.5-9.8
					C156.5,228.6,156,227.8,155.5,228z"/>
				<path class="st1" d="M162.4,235.8c-5.8,1-12.2,1.8-16.8,5.7c-0.7,0.6,0.1,1.6,0.8,1.4c5.7-1.3,10.7-4.5,16.4-5.8
					C163.6,236.8,163.2,235.6,162.4,235.8z"/>
				<path class="st1" d="M144.7,223.7c-3.5,0.6-7,0.8-10.4,2.1c-1.5,0.5-0.9,2.7,0.6,2.3c3.5-0.7,6.6-2.3,10-3.4
					C145.7,224.5,145.4,223.5,144.7,223.7z"/>
				<path class="st1" d="M176.4,241.3c-3.8,1.3-8,2.4-11.2,4.7c-1.1,0.8-0.5,2.9,1,2.4c3.9-1.3,7.2-4,10.7-6.1
					C177.4,242,177.1,241,176.4,241.3z"/>
				<path class="st1" d="M194.9,243.1c-0.8,0.5-1.6,0.9-2.3,1.5c-0.7,0.5-1.6,1-2.2,1.6c-0.9,0.9,0.4,2.1,1.3,1.3
					c0.7-0.5,1.2-1.3,1.8-2c0.6-0.7,1.1-1.4,1.6-2.1C195.3,243.3,195.1,243,194.9,243.1z"/>
				<path class="st1" d="M213,240.4c-2,2.1-4.2,4.2-5.6,6.7c-0.9,1.6,1.6,3.1,2.5,1.4c1.3-2.6,2.2-5.3,3.7-7.7
					C213.9,240.5,213.3,240,213,240.4z"/>
			</g>
			<g>
				<g>
					<path class="st0" d="M356,194.4c-1.7-6.8-4.5-13.5-8.1-19.6c-6.6-11.1-17-18.6-28.6-24c-12.4-5.7-26-8.7-39.5-10.4
						c-7.8-1-15.6-1.3-23.5-1.4c-2.8,0-5.6,0-8.4-0.1c-26.5,2.5-53.1,5.3-76.1,19.8c-21.1,13.3-35.3,36.6-32.3,62
						c0.1,0.5,3.4,8.2,7.2,10.7c6.2,4.1,13.3,4.5,20.5,4.7c-1.6-1.1-3.2-2.5-4.6-4.2c-0.7-0.8,0.4-1.9,1.2-1.2
						c2.9,2.7,6.1,4.4,9.6,5.6c0,0,0,0,0,0c3.7,1.3,7.7,1.9,11.7,2.1c-1.9-1.9-3.2-4.5-3.7-7.1c-0.1-0.5,0.6-0.6,0.7-0.2
						c1.1,3.5,3.5,5.6,6.4,7.4c0.8,0,1.7,0,2.5,0c-1.9-1.4-3.6-3.3-4.8-5.2c-0.3-0.5,0.5-1,0.9-0.5c2,3,4.7,4.3,7.8,5.6
						c5.5-0.2,11-0.6,16.1-0.5c16.5,0.4,33.9,2.5,49.7-3.3c0.5-0.2,0.9,0.7,0.4,0.9c-2.4,1.1-4.8,1.9-7.2,2.6
						c10.1,0.8,20.1,1.8,30.4,1.1c8.1-0.5,15.9-1.9,23.6-3.9c0,0,0-0.1,0-0.1c1.9-2.9,3.5-6.2,4.2-9.7c0.1-0.5,0.9-0.4,0.8,0.1
						c-0.2,3.7-1.4,6.9-4.1,9.4c4-1,8-2.2,11.9-3.5c1.1-0.4,1.5,1.3,0.5,1.8c-1.1,0.4-2.2,0.9-3.4,1.3c2.9,0.1,5.9,0.1,8.8,0
						c2.1-1.9,4.2-3.6,5.9-5.9c0.3-0.4,1-0.1,0.7,0.4c-1,1.9-2.3,3.8-3.8,5.3c0.6,0,1.3-0.1,1.9-0.2c2.5-2.4,4.8-4.5,6.5-7.6
						c0.1-0.3,0.6-0.1,0.5,0.2c-1,2.5-2.4,5.1-4.2,7.1c1-0.1,2.1-0.3,3.1-0.5c2.6-2.8,4.5-6.1,5.4-9.8c0.1-0.4,0.7-0.3,0.7,0.1
						c-0.1,3.5-1.4,6.7-3.7,9.2c2.1-0.5,4.2-1.1,6.2-1.8c5.9-2.1,10.1-5.7,11.7-11.9c1.1-4.2,1-8.4,0.9-12.7
						C357.7,202.6,357,198.5,356,194.4z M141.6,209.7c-0.3-4.4,1.2-8,3.9-11.4c0.3-0.3,0.8,0.1,0.6,0.4c-2,3.3-3,7.2-3.4,11
						C142.5,210.4,141.6,210.4,141.6,209.7z M143.8,216.2c0,0.5-0.8,0.6-0.9,0.1c-0.7-4.5,0.7-8.3,3.7-11.7c0.3-0.4,0.9,0.1,0.7,0.5
						C145.1,208.4,144.1,212.4,143.8,216.2z M147.7,214.4c-0.5,1.8-0.6,3.6-0.6,5.5c0,0.9-1.3,0.9-1.3,0c0-2,0.6-3.8,1.2-5.7
						C147.1,213.7,147.9,213.9,147.7,214.4z M153.1,230.3c-2.6-4.3-3.2-8.5-1.4-13.2c0.2-0.5,1-0.3,0.8,0.2c-0.9,4-0.7,8.9,1,12.7
						C153.7,230.3,153.3,230.6,153.1,230.3z M156.4,228.8c-1.4-2.4-1.5-5.4-1.1-8.1c0.1-0.5,0.9-0.3,0.8,0.2
						c-0.4,2.6,0.3,4.9,1.4,7.2C157.9,228.9,156.9,229.5,156.4,228.8z M165.1,228.3c-2.4-2.1-2.5-6-1.3-8.8c0.2-0.4,0.7-0.1,0.7,0.3
						c-0.5,3,0.4,5.1,1.6,7.7C166.4,228.2,165.6,228.8,165.1,228.3z M173.8,233.3c-3.1-2.1-4.5-5.8-4.3-9.4c0-0.5,0.8-0.5,0.8,0
						c0.1,3.4,1.9,6,4.5,8.1C175.6,232.6,174.6,233.8,173.8,233.3z M271.5,236.4c-0.6,0.4-1.1-0.6-0.6-0.9c0.7-0.4,1.3-0.9,1.9-1.4
						c0.6-0.5,1.1-1.1,1.6-1.6c0.2-0.2,0.5,0.1,0.4,0.3C274.3,234.3,272.9,235.6,271.5,236.4z M281.5,228.8c-1,3.2-3.1,7.4-6.5,8.6
						c-0.7,0.2-1.3-0.8-0.7-1.3c1.2-1.1,2.6-1.8,3.7-2.9c1.3-1.3,2.3-2.8,2.9-4.5C281,228.2,281.6,228.4,281.5,228.8z M288.1,228.4
						c-0.9,2-2,4.2-3.6,5.8c-0.5,0.5-1.4-0.2-0.9-0.7c1.3-1.8,2.8-3.4,3.9-5.4C287.6,227.5,288.3,227.9,288.1,228.4z M297.8,233
						c-0.4,0.5-1.2-0.3-0.7-0.7c0.7-0.6,1.2-1.4,1.5-2.3c0.1-0.3,0.6-0.2,0.5,0.1C298.9,231.2,298.5,232.2,297.8,233z M301.9,235.9
						c-0.4,0.3-0.8-0.3-0.5-0.6c2.4-2.1,3.8-5,4.8-8.1c0.1-0.3,0.5-0.2,0.5,0.1C306.8,230.9,304.7,233.8,301.9,235.9z M347,227.4
						c-0.4,0.5-1.1-0.1-0.8-0.6c0.9-1.5,1.6-3.2,1.8-5c0-0.4,0.7-0.4,0.7,0C348.7,223.9,348.3,225.8,347,227.4z"/>
				</g>
				<path class="st1" d="M286.7,149.2c-26.7-5.7-56.4-3.3-82.2,5.6c-21.7,7.4-42,21.5-54.2,41.3c-0.2,0.3,0.2,0.6,0.4,0.3
					c15.4-17,35-28.6,56.7-35.7c25.8-8.4,52.2-7.3,78.9-8.2C288.1,152.4,288.6,149.6,286.7,149.2z"/>
				<path class="st2" d="M321.4,233.5c-1.1,0.4-2.2,0.9-3.4,1.3c2.9,0.1,5.9,0.1,8.8,0c2.1-1.9,4.2-3.6,5.9-5.9
					c0.3-0.4,1-0.1,0.7,0.4c-1,1.9-2.3,3.8-3.8,5.3c0.6,0,1.3-0.1,1.9-0.2c2.5-2.4,4.8-4.5,6.5-7.6c0.1-0.3,0.6-0.1,0.5,0.2
					c-1,2.5-2.4,5.1-4.2,7.1c1-0.1,2.1-0.3,3.1-0.5c2.6-2.8,4.5-6.1,5.4-9.8c0.1-0.4,0.7-0.3,0.7,0.1c-0.1,3.5-1.4,6.7-3.7,9.2
					c2.1-0.5,4.2-1.1,6.2-1.8c5.9-2.1,10.1-5.7,11.7-11.9c1.1-4.2,1-8.4,0.9-12.7c-0.8-4.1-1.5-8.2-2.5-12.3
					c-1.7-6.8-4.5-13.5-8.1-19.6c-6.6-11.1-17-18.6-28.6-24c-1.7-0.8-3.4-1.5-5.2-2.2c1.2,1.2,2.4,2.4,3.6,3.8
					c21.4,26,3.8,51.2-23.9,61.1c-32,11.5-68.3,13.3-102,10.9c-8.9-0.6-18.4-2.1-27.3-4.1c-0.3,2.6,0.6,4.7,1.6,7.1
					c0.3,0.6-0.4,1.2-1,0.8c-2.2-2-2.5-5.4-1.5-8.1c-1.3-0.3-2.6-0.6-3.9-0.9c-2.3-0.6-4.8-1-7.2-1.5c-0.8,3.9-0.5,8.5,1.1,12.1
					c0.1,0.3-0.3,0.6-0.5,0.3c-2.5-4.1-3.2-8.1-1.6-12.6c-1.4-0.3-2.9-0.7-4.2-1.1c-0.1,1.1-0.2,2.2-0.2,3.3c0,0.9-1.3,0.9-1.3,0
					c0-1.3,0.2-2.5,0.5-3.6c-0.8-0.3-1.7-0.7-2.4-1.1c0,0.4-0.1,0.8-0.1,1.2c0,0.5-0.8,0.6-0.9,0.1c-0.1-0.7-0.2-1.4-0.2-2.1
					c-1.5-1.1-2.7-2.5-3.4-4.3c-0.3,3.6-0.2,7.2,0.2,10.9c0.1,0.5,3.4,8.2,7.2,10.7c6.2,4.1,13.3,4.5,20.5,4.7
					c-1.6-1.1-3.2-2.5-4.6-4.2c-0.7-0.8,0.4-1.9,1.2-1.2c2.9,2.7,6.1,4.4,9.6,5.6c0,0,0,0,0,0c3.7,1.3,7.7,1.9,11.7,2.1
					c-1.9-1.9-3.2-4.5-3.7-7.1c-0.1-0.5,0.6-0.6,0.7-0.2c1.1,3.5,3.5,5.6,6.4,7.4c0.8,0,1.7,0,2.5,0c-1.9-1.4-3.6-3.3-4.8-5.2
					c-0.3-0.5,0.5-1,0.9-0.5c2,3,4.7,4.3,7.8,5.6c5.5-0.2,11-0.6,16.1-0.5c16.5,0.4,33.9,2.5,49.7-3.3c0.5-0.2,0.9,0.7,0.4,0.9
					c-2.4,1.1-4.8,1.9-7.2,2.6c10.1,0.8,20.1,1.8,30.4,1.1c8.1-0.5,15.9-1.9,23.6-3.9c0,0,0-0.1,0-0.1c1.9-2.9,3.5-6.2,4.2-9.7
					c0.1-0.5,0.9-0.4,0.8,0.1c-0.2,3.7-1.4,6.9-4.1,9.4c4-1,8-2.2,11.9-3.5C322,231.4,322.4,233.1,321.4,233.5z M346.2,226.8
					c0.9-1.5,1.6-3.2,1.8-5c0-0.4,0.7-0.4,0.7,0c0,2.1-0.4,4-1.7,5.6C346.6,227.9,345.9,227.3,346.2,226.8z M156.4,228.8
					c-1.4-2.4-1.5-5.4-1.1-8.1c0.1-0.5,0.9-0.3,0.8,0.2c-0.4,2.6,0.3,4.9,1.4,7.2C157.9,228.9,156.9,229.5,156.4,228.8z
					 M173.8,233.3c-3.1-2.1-4.5-5.8-4.3-9.4c0-0.5,0.8-0.5,0.8,0c0.1,3.4,1.9,6,4.5,8.1C175.6,232.6,174.6,233.8,173.8,233.3z
					 M271.5,236.4c-0.6,0.4-1.1-0.6-0.6-0.9c0.7-0.4,1.3-0.9,1.9-1.4c0.6-0.5,1.1-1.1,1.6-1.6c0.2-0.2,0.5,0.1,0.4,0.3
					C274.3,234.3,272.9,235.6,271.5,236.4z M281.5,228.8c-1,3.2-3.1,7.4-6.5,8.6c-0.7,0.2-1.3-0.8-0.7-1.3c1.2-1.1,2.6-1.8,3.7-2.9
					c1.3-1.3,2.3-2.8,2.9-4.5C281,228.2,281.6,228.4,281.5,228.8z M288.1,228.4c-0.9,2-2,4.2-3.6,5.8c-0.5,0.5-1.4-0.2-0.9-0.7
					c1.3-1.8,2.8-3.4,3.9-5.4C287.6,227.5,288.3,227.9,288.1,228.4z M297.8,233c-0.4,0.5-1.2-0.3-0.7-0.7c0.7-0.6,1.2-1.4,1.5-2.3
					c0.1-0.3,0.6-0.2,0.5,0.1C298.9,231.2,298.5,232.2,297.8,233z M301.9,235.9c-0.4,0.3-0.8-0.3-0.5-0.6c2.4-2.1,3.8-5,4.8-8.1
					c0.1-0.3,0.5-0.2,0.5,0.1C306.8,230.9,304.7,233.8,301.9,235.9z"/>
				<path class="st3" d="M329.6,234.6c0.6,0,1.3-0.1,1.9-0.2c2.5-2.4,4.8-4.5,6.5-7.6c0.1-0.3,0.6-0.1,0.5,0.2
					c-1,2.5-2.4,5.1-4.2,7.1c1-0.1,2.1-0.3,3.1-0.5c2.6-2.8,4.5-6.1,5.4-9.8c0.1-0.4,0.7-0.3,0.7,0.1c-0.1,3.5-1.4,6.7-3.7,9.2
					c2.1-0.5,4.2-1.1,6.2-1.8c5.9-2.1,10.1-5.7,11.7-11.9c1.1-4.2,1-8.4,0.9-12.7c-0.8-4.1-1.5-8.2-2.5-12.3
					c-1.7-6.8-4.5-13.5-8.1-19.6c-2.3-3.8-5-7.2-8-10.2c0.2,0.5,0.4,1.1,0.7,1.7c6.5,13.8,10.5,27.3,8,44.4
					c-2.5,17.1-17.1,9.5-32,13.1c-6.4,1.6-18,4.1-29.4,6.5c-0.7,1.4-1.6,2.8-2.7,3.8c-0.5,0.5-1.4-0.2-0.9-0.7
					c0.7-1,1.4-1.9,2.1-2.8c-1.8,0.4-3.5,0.8-5.3,1.1c-1.2,2.5-2.9,4.9-5.4,5.7c-0.7,0.2-1.3-0.8-0.7-1.3c1.2-1.1,2.6-1.8,3.7-2.9
					c0.4-0.4,0.7-0.8,1-1.2c-1.4,0.3-2.7,0.6-4,0.9c-0.7,1.5-2,2.8-3.4,3.6c-0.6,0.4-1.1-0.6-0.6-0.9c0.7-0.4,1.3-0.9,1.9-1.4
					c0.4-0.3,0.7-0.7,1.1-1c-5.4,1.1-10.1,2.1-13.3,2.8c-1.1,0.5-2.3,0.9-3.4,1.4l3.5,1.6c7.8,0.6,15.6,1.1,23.5,0.6
					c8.1-0.5,15.9-1.9,23.6-3.9c0,0,0-0.1,0-0.1c1.9-2.9,3.5-6.2,4.2-9.7c0.1-0.5,0.9-0.4,0.8,0.1c-0.2,3.7-1.4,6.9-4.1,9.4
					c4-1,8-2.2,11.9-3.5c1.1-0.4,1.5,1.3,0.5,1.8c-1.1,0.4-2.2,0.9-3.4,1.3c2.9,0.1,5.9,0.1,8.8,0c2.1-1.9,4.2-3.6,5.9-5.9
					c0.3-0.4,1-0.1,0.7,0.4C332.4,231.1,331.1,233,329.6,234.6z M346.2,226.8c0.9-1.5,1.6-3.2,1.8-5c0-0.4,0.7-0.4,0.7,0
					c0,2.1-0.4,4-1.7,5.6C346.6,227.9,345.9,227.3,346.2,226.8z M297.8,233c-0.4,0.5-1.2-0.3-0.7-0.7c0.7-0.6,1.2-1.4,1.5-2.3
					c0.1-0.3,0.6-0.2,0.5,0.1C298.9,231.2,298.5,232.2,297.8,233z M301.9,235.9c-0.4,0.3-0.8-0.3-0.5-0.6c2.4-2.1,3.8-5,4.8-8.1
					c0.1-0.3,0.5-0.2,0.5,0.1C306.8,230.9,304.7,233.8,301.9,235.9z"/>
				<g>
					<path class="st4" d="M284.3,239.4c8.1-0.5,15.9-1.9,23.6-3.9c0,0,0-0.1,0-0.1c1-1.6,1.9-3.3,2.7-5.1c-0.3,0.1-0.7,0.2-1,0.3
						c-1.2,0.4-2.6,0.7-4,1c-0.9,1.6-2.2,3.1-3.7,4.2c-0.4,0.3-0.8-0.3-0.5-0.6c1.1-0.9,1.9-2,2.6-3.2c-7.8,1.7-18,3-26.8,4
						c-0.7,0.6-1.5,1.1-2.3,1.3c-0.6,0.2-1.1-0.5-0.9-1c-8.9,1-15.9,1.6-16.3,1.7l0.9,0.6C267.2,239.4,275.7,240,284.3,239.4z"/>
					<path class="st4" d="M337.3,233.6c1.7-1.8,3-3.7,4.1-5.9c-1.3,0.5-2.5,0.8-3.7,1.1c-0.9,1.9-2,3.8-3.4,5.4
						C335.2,234,336.3,233.8,337.3,233.6z"/>
					<path class="st4" d="M321.4,233.5c-1.1,0.4-2.2,0.9-3.4,1.3c2.9,0.1,5.9,0.1,8.8,0c2-1.8,4-3.5,5.7-5.6
						c-5.5-0.1-11.5-1.2-20.3,0.9c-0.6,2-1.7,3.8-3.3,5.3c4-1,8-2.2,11.9-3.5C322,231.4,322.4,233.1,321.4,233.5z"/>
					<path class="st4" d="M333.4,229.3c-1,1.9-2.3,3.8-3.8,5.3c0.6,0,1.3-0.1,1.9-0.2c1.9-1.8,3.7-3.4,5.2-5.5
						c-1.1,0.1-2.1,0.2-3.2,0.2C333.5,229.2,333.4,229.2,333.4,229.3z"/>
					<path class="st4" d="M357.6,219.4c1.1-4.2,1-8.4,0.9-12.7c-0.8-4.1-1.5-8.2-2.5-12.3c-1.7-6.8-4.5-13.5-8.1-19.6
						c-2.8-4.6-6.2-8.6-10.1-12.1c6.5,9.3,15.8,26.6,17.8,41.8c1.6,12.3-1.7,17-7.3,20.1c-0.3,1-0.7,2-1.4,2.9
						c-0.4,0.5-1.1-0.1-0.8-0.6c0.3-0.5,0.5-1,0.8-1.5c-1.3,0.6-2.6,1.2-4,1.7c-0.6,2.3-1.6,4.3-3.2,6.1c2.1-0.5,4.2-1.1,6.2-1.8
						C351.8,229.2,356,225.6,357.6,219.4z"/>
				</g>
				<g>
					<path class="st5" d="M360.5,206.5c0-0.1,0-0.3,0-0.4c-3.1-18.2-9.7-35.9-24.3-48c-16.5-13.6-38.7-18.6-59.6-20.8
						c-7.5-0.8-15.1-1.2-22.7-0.9c-1.6,0.1-3.3,0.2-4.9,0.3c-0.2-0.1-0.4-0.2-0.7-0.2c-27.7,0.4-57.8,4.8-81,21.2
						c-16.7,11.8-30.4,30.6-31,51c-0.7,8.4,0.1,17.8,6.7,23.5c7.6,6.6,19,7.2,28.6,6.5c11.1,4.7,25.4,1.8,37.1,2
						c13.9,0.1,27.6,1.6,40.9-1.2c11.3,3.4,23.9,3.3,35.5,2.3c9.5-0.8,19.1-2.5,28.2-5.4c11.8,3.2,26.6,2,37.4-3.7
						C360.6,227.5,361.9,216.6,360.5,206.5z M357.6,219.4c-1.7,6.2-5.8,9.8-11.7,11.9c-9,3.2-18.5,3.7-27.9,3.5
						c1.1-0.4,2.3-0.8,3.4-1.3c1.1-0.4,0.7-2.1-0.5-1.8c-12,3.9-23.9,6.8-36.5,7.7c-10.2,0.7-20.2-0.3-30.4-1.1
						c2.4-0.7,4.8-1.6,7.2-2.6c0.5-0.2,0.1-1.1-0.4-0.9c-15.8,5.7-33.3,3.7-49.7,3.3c-11.9-0.3-26.1,2.4-37.7-1.5c0,0,0,0,0,0
						c-3.5-1.2-6.7-3-9.6-5.6c-0.8-0.7-1.8,0.4-1.2,1.2c1.4,1.7,3,3.1,4.6,4.2c-7.1-0.2-14.3-0.6-20.5-4.7
						c-3.8-2.5-7.1-10.2-7.2-10.7c-3-25.4,11.2-48.7,32.3-62c23-14.5,49.6-17.3,76.1-19.8c2.8,0,5.6,0.1,8.4,0.1
						c7.8,0,15.7,0.4,23.5,1.4c13.5,1.7,27.1,4.7,39.5,10.4c11.6,5.3,22,12.9,28.6,24c3.6,6,6.4,12.8,8.1,19.6
						c1,4.1,1.8,8.2,2.5,12.3C358.6,211,358.8,215.2,357.6,219.4z"/>
					<path class="st5" d="M145.4,198.3c-2.7,3.4-4.2,7-3.9,11.4c0,0.6,0.9,0.6,1,0c0.5-3.8,1.5-7.7,3.4-11
						C146.2,198.4,145.7,198,145.4,198.3z"/>
					<path class="st5" d="M146.6,204.7c-3,3.3-4.5,7.2-3.7,11.7c0.1,0.5,0.8,0.3,0.9-0.1c0.3-3.8,1.4-7.8,3.5-11
						C147.6,204.8,147,204.3,146.6,204.7z"/>
					<path class="st5" d="M147,214.2c-0.6,1.9-1.2,3.7-1.2,5.7c0,0.9,1.3,0.9,1.3,0c0-1.8,0.1-3.7,0.6-5.5
						C147.9,213.9,147.1,213.7,147,214.2z"/>
					<path class="st5" d="M153.6,230c-1.7-3.8-1.9-8.7-1-12.7c0.1-0.6-0.6-0.7-0.8-0.2c-1.9,4.7-1.2,8.9,1.4,13.2
						C153.3,230.6,153.7,230.3,153.6,230z"/>
					<path class="st5" d="M157.6,228.1c-1-2.4-1.7-4.6-1.4-7.2c0.1-0.5-0.7-0.8-0.8-0.2c-0.5,2.7-0.4,5.7,1.1,8.1
						C156.9,229.5,157.9,228.9,157.6,228.1z"/>
					<path class="st5" d="M166.1,227.6c-1.2-2.6-2-4.8-1.6-7.7c0.1-0.4-0.5-0.7-0.7-0.3c-1.3,2.8-1.1,6.6,1.3,8.8
						C165.6,228.8,166.4,228.2,166.1,227.6z"/>
					<path class="st5" d="M174.8,232c-2.6-2.1-4.4-4.7-4.5-8.1c0-0.5-0.8-0.5-0.8,0c-0.2,3.6,1.2,7.3,4.3,9.4
						C174.6,233.8,175.6,232.6,174.8,232z"/>
					<path class="st5" d="M190.1,239.6c-3.6-1.9-6.6-4.2-8-8.2c-0.1-0.5-0.8-0.3-0.7,0.2c0.8,4.1,3.7,8.5,8,9.6
						C190.3,241.4,191,240.1,190.1,239.6z"/>
					<path class="st5" d="M196.1,239.1c-3.6-1.5-6.8-2.7-9-6.1c-0.3-0.5-1.2,0-0.9,0.5c2.1,3.3,5.4,6.6,9.4,7.1
						C196.5,240.7,196.9,239.4,196.1,239.1z"/>
					<path class="st5" d="M287.4,228c-1.1,2-2.5,3.6-3.9,5.4c-0.4,0.6,0.5,1.2,0.9,0.7c1.6-1.6,2.7-3.7,3.6-5.8
						C288.3,227.9,287.6,227.5,287.4,228z"/>
					<path class="st5" d="M280.8,228.6c-0.6,1.7-1.6,3.2-2.9,4.5c-1.1,1.1-2.5,1.9-3.7,2.9c-0.6,0.5,0,1.5,0.7,1.3
						c3.5-1.1,5.6-5.3,6.5-8.6C281.6,228.4,281,228.2,280.8,228.6z"/>
					<path class="st5" d="M274.5,232.5c-0.6,0.5-1,1.1-1.6,1.6c-0.6,0.5-1.3,1-1.9,1.4c-0.6,0.4-0.1,1.3,0.6,0.9
						c1.4-0.8,2.8-2.1,3.4-3.6C275.1,232.5,274.8,232.3,274.5,232.5z"/>
					<path class="st5" d="M348,221.8c-0.2,1.8-0.9,3.5-1.8,5c-0.3,0.5,0.4,1.1,0.8,0.6c1.3-1.7,1.7-3.5,1.7-5.6
						C348.6,221.4,348,221.4,348,221.8z"/>
					<path class="st5" d="M342.7,223.8c-1,4.2-3.3,7.8-6.4,10.8c-0.4,0.4,0.1,1.1,0.6,0.8c4-2.6,6.2-6.7,6.4-11.5
						C343.4,223.5,342.8,223.5,342.7,223.8z"/>
					<path class="st5" d="M337.9,226.8c-1.7,3.4-4.4,5.6-7.1,8.2c-0.6,0.6,0.2,1.7,0.9,1.2c3.2-2.1,5.2-5.8,6.6-9.2
						C338.6,226.7,338.1,226.5,337.9,226.8z"/>
					<path class="st5" d="M332.7,228.8c-1.7,2.3-3.8,4.1-5.9,6c-0.7,0.6,0.2,1.9,1,1.3c2.4-1.7,4.2-4.3,5.6-6.9
						C333.7,228.8,333,228.4,332.7,228.8z"/>
					<path class="st5" d="M312.1,225.8c-0.7,3.4-2.3,6.7-4.2,9.7c-0.2,0.3,0.2,0.5,0.4,0.3c3-2.6,4.3-6,4.6-9.9
						C313,225.4,312.2,225.3,312.1,225.8z"/>
					<path class="st5" d="M306.2,227.2c-1,3-2.3,5.9-4.8,8.1c-0.3,0.3,0.1,0.9,0.5,0.6c2.8-2.1,4.9-5,4.8-8.6
						C306.7,226.9,306.3,226.9,306.2,227.2z"/>
					<path class="st5" d="M298.6,230c-0.3,0.9-0.8,1.6-1.5,2.3c-0.5,0.5,0.3,1.2,0.7,0.7c0.7-0.8,1.1-1.8,1.3-2.9
						C299.1,229.8,298.7,229.7,298.6,230z"/>
					<path class="st5" d="M184.5,169.8c-0.3-0.5-1.1-0.1-0.9,0.4c0.7,1.8-1.7,5.4-3.8,4.2c-1.5-0.8,2.1-3.5,3.1-3.6
						c0.1,0,0.1-0.1,0-0.2c-2.2-0.5-6.6,2.9-4,5C182,178.2,186,172.8,184.5,169.8z"/>
					<path class="st5" d="M186.8,159.3c-0.4,0.8-1.3,1.6-2.1,1.9c-0.4,0.2-0.9,0.1-0.8-0.5c0-0.6,0.7-1.3,1.2-1.6
						c0.1-0.1,0.1-0.3-0.1-0.3c-1.6,0.1-3.2,2.9-1.1,3.5c1.5,0.4,3.3-1.4,3.7-2.7C187.9,159.2,187.1,158.9,186.8,159.3z"/>
					<path class="st5" d="M197.7,154.1c-0.2,0.1-0.2,0.3-0.1,0.5c-0.8,0.6-1.6,1.4-1.9,2.1c-0.7,1.6,0.9,2.5,2.3,2.2
						c1.7-0.3,3.3-1.5,3.2-3.4C201.1,153.5,199.2,153.2,197.7,154.1z M199.9,156.6c-0.5,0.7-1.5,1.2-2.4,1.3
						c-1.5,0.2-1.3-1.1-0.6-1.9c0.6-0.7,1.3-1.3,2.1-1.7c0.4,0,0.8,0,1,0.4C200.4,155.2,200.2,156.1,199.9,156.6z"/>
					<path class="st5" d="M206.2,163.2c-2.1,0-4,2.4-5,4c-0.2,0.2,0,0.5,0.3,0.5c-0.4,1.1,0.1,2.2,1.6,2.1c1.7-0.1,3.6-1.8,4.4-3.2
						C208.3,165.3,208.2,163.2,206.2,163.2z M206.7,165.7c-0.4,0.8-1.1,1.4-1.7,1.9c-0.5,0.4-1.3,1-2,1.1c-0.9,0.1-0.9-0.6-0.6-1.2
						c0.4-0.9,1.3-2,2.3-2.7c0,0,0.1,0,0.1-0.1c0.1-0.1,0.3-0.2,0.4-0.3c0,0,0,0,0,0c0.1-0.1,0.3-0.1,0.4-0.2c0.1,0,0.1,0,0.2-0.1
						C206.8,164.1,207,164.9,206.7,165.7z"/>
					<path class="st5" d="M179.3,188.7c-0.2-0.9-1.1-1.7-2.1-1.5c-1,0.2-1.7,1.2-2.4,1.9c-0.1,0.1-0.1,0.2-0.1,0.3
						c-0.7,0.7-1.3,1.5-1.6,2.3c-0.2,0.6-0.1,1.2,0.5,1.6c0.7,0.5,1.6,0.1,2.3-0.2C177.4,192.4,179.7,190.6,179.3,188.7z
						 M178.1,189.4c-0.4,1.2-1.8,2.3-2.9,2.8c-0.3,0.2-1,0.5-1.2,0.1c-0.2-0.4,0.3-1.2,0.5-1.5c0.3-0.5,0.7-1,1.1-1.4
						c0.4-0.3,0.8-0.7,1.3-0.9c0.4-0.2,0.8-0.3,1.1,0.1C178.2,188.8,178.2,189,178.1,189.4z"/>
					<path class="st5" d="M168.3,174.4c-0.3-1.4-1.8-1.6-2.8-0.8c-0.9,0.8-1.8,2.4-1.6,3.6c0,0.2,0.4,0.3,0.5,0.1
						c0.4,0.5,1.1,0.7,1.8,0.5C167.5,177.4,168.6,175.7,168.3,174.4z M167,175.6c-0.2,0.6-1.8,2.3-2.2,0.9c-0.1-0.2-0.1-0.5,0-0.7
						c0.3-0.5,0.7-0.9,1.1-1.2c0.2-0.2,0.6-0.5,1-0.3C167.4,174.5,167.2,175.3,167,175.6z"/>
					<path class="st5" d="M193.6,185.4c-1.1-1.1-2.5-0.4-3.3,0.6c-0.7,0.8-1.4,2.6,0,3.1c0.2,0.1,0.3,0,0.3-0.1
						c0.6,0.2,1.3,0,1.8-0.3C193.7,188.1,194.7,186.6,193.6,185.4z M191,188c-0.7-0.2,0.4-2.1,1.1-1.9c0.1,0,0.1,0,0.2-0.1
						c0.3,0,0.6,0.2,0.6,0.6C192.9,187.3,191.6,188.2,191,188z"/>
					<path class="st5" d="M206.9,179.2c-0.8-0.8-1.7-0.1-2.4,0.5c-1,0.6-2.2,1.5-1.9,2.7c0.3,1.7,2.3,0.9,3.2,0.2
						C206.7,182,208,180.4,206.9,179.2z M206.4,180.7c-0.2,0.4-0.5,0.8-0.9,1.1c-0.4,0.4-2.4,1.7-2.2,0.2c0.2-1,1.5-1.6,2.2-2.1
						c0,0,0,0,0,0c0.1,0,0.2-0.1,0.4-0.1C206.6,179.6,206.6,180.3,206.4,180.7z"/>
					<path class="st5" d="M212.3,193.8c-0.3-0.6-1-0.8-1.6-0.6c-0.4,0.1-0.8,0.3-1.2,0.6c-0.9,0.5-1.8,1.3-2.1,2
						c-0.7,1.6,1.4,2.1,2.6,1.7C211.2,197.1,212.9,195.2,212.3,193.8z M209.4,196.7c-0.4,0-1.2,0-1.2-0.4c0-0.4,0.4-0.8,0.6-1.1
						c0,0,0,0,0,0c0,0,0,0,0.1,0c0.4-0.3,2.8-2.3,2.8-0.8C211.7,195.4,210.3,196.6,209.4,196.7z"/>
					<path class="st5" d="M222.8,164.4c-1.4-0.4-3.2,1.2-4.2,2c-0.1,0.1-0.1,0.1-0.1,0.2c-1.3,1.2-2,2.8-0.4,3.3
						c1.6,0.6,3.5-1,4.5-2.1C223.3,167.1,224.4,164.9,222.8,164.4z M222.3,166.7c-0.5,0.7-1.2,1.4-2,1.8c-0.4,0.3-1.4,0.8-2,0.4
						c-0.3-0.3,0.1-0.8,0.3-1.1c0.4-0.6,0.9-1.2,1.5-1.7c0.1,0,0.1-0.1,0.2-0.1c0.5-0.3,1.4-0.8,2-0.8
						C223.2,165.3,222.6,166.3,222.3,166.7z"/>
					<path class="st5" d="M228.4,151.9c-0.1-0.6-0.7-0.9-1.3-0.8c-1.2,0.1-2,1.4-2.7,2.2c-0.1,0.1,0,0.3,0.2,0.3
						c0,0.1,0,0.3,0.1,0.4c0.6,1.3,2.3,0.1,2.9-0.5C228,153.2,228.6,152.6,228.4,151.9z M227,152.9c-0.2,0.2-1.7,1.5-1.8,0.8
						c-0.1-0.6,1.1-1.2,1.4-1.5c0.1-0.1,0.1-0.1,0.1-0.2c0.2-0.1,0.4-0.1,0.6,0C227.7,152.2,227.2,152.7,227,152.9z"/>
					<path class="st5" d="M226.1,146.1c-0.7-1-2.5-0.7-3.5-0.5c-0.1,0-0.2,0.1-0.2,0.2c-2,0.3-4,1.3-4.5,3.3c-0.6,2.1,1.7,1.9,3,1.5
						c1.6-0.5,3.7-1.3,4.9-2.6C226.2,147.4,226.6,146.7,226.1,146.1z M225.1,147.1c-0.2,0.5-1.2,0.9-1.6,1.1
						c-0.8,0.4-1.6,0.8-2.4,1.1c-0.8,0.3-3.3,1.2-2.2-0.6c1.2-1.9,3.6-2.5,5.7-2.5C225.1,146.4,225.4,146.6,225.1,147.1z"/>
					<path class="st5" d="M253.6,148.4c-0.8-0.8-2.1-0.6-3.1-0.4c-0.5,0-0.9,0.1-1.4,0.3c-1.1,0.5-2.2,1.2-2.6,2.4
						c-0.5,1.8,1.6,1.8,2.8,1.6c1.5-0.2,3.3-1.1,4.2-2.4C254,149.5,254.1,148.9,253.6,148.4z M251.7,150.4c-0.8,0.5-1.6,1-2.6,1.1
						c-0.4,0.1-1.2,0.2-1.6,0c-0.7-0.4,0.8-1.4,1.1-1.7c0.8-0.5,1.5-0.9,2.4-1c0.3,0,0.6-0.1,0.8-0.2c0.6,0,1,0.2,1.1,0.5
						C253.1,149.6,252,150.2,251.7,150.4z"/>
					<path class="st5" d="M262.6,147.4c-0.8-0.8-1.6-0.6-2.3,0.1c-0.1,0-0.2,0-0.2,0.1c-0.8,1-1.7,2.4-1.6,3.8
						c0.1,1.7,2.1,1.6,3.1,0.9C263,151.2,264,148.9,262.6,147.4z M260.5,151.7c-2.1,0.7-1-2-0.2-3.2c0.6-0.7,1.4-1.2,2-0.1
						C262.8,149.6,261.7,151.3,260.5,151.7z"/>
					<path class="st5" d="M278.7,148.3c-0.4-0.8-1.4-1.8-2.4-1.7c-0.6,0-1,0.4-1.2,0.9c-1.1,1.5,0.9,6.3,3.2,5.2
						C279.8,151.9,279.2,149.4,278.7,148.3z M277.6,151.8c-1.1-0.1-2.4-2.8-2-3.9c0.2-0.3,0.6-0.5,1.1-0.3c0.3,0.1,0.7,0.6,0.9,0.8
						c0.2,0.3,0.4,0.7,0.5,1.1C278.3,150.2,278.6,151.9,277.6,151.8z"/>
					<path class="st5" d="M294.8,153.6c-0.4-1.3-2.1-2.8-3.5-2.2c-0.6,0.2-0.8,0.7-0.8,1.2c0,0.1-0.1,0.1-0.1,0.2
						c-0.1,1.5,0.4,3.4,2.1,3.7C294.3,156.8,295.3,155.1,294.8,153.6z M293.7,155c-0.3,0.5-1,0.6-1.5,0.3c-0.9-0.4-1.1-1.5-1.1-2.4
						c0-0.3,0.1-0.5,0.3-0.7c0.8-0.7,2,0.8,2.3,1.4C293.8,154,294,154.6,293.7,155z"/>
					<path class="st5" d="M301.1,165.9c-0.8-0.5-1.9-0.7-2.7,0.1c-0.6,0.6-0.6,1.2-0.6,1.9c0,0.2,0,0.4,0,0.6c0,0,0,0.1,0,0.1
						c0,0.1,0,0.1,0,0.1c0.1,0.6,0.4,1.2,0.8,1.7c0.9,0.9,2.4,0.5,3.2-0.4C303,168.8,302.4,166.7,301.1,165.9z M299.7,170
						c-0.6-0.1-1-1-1.2-1.9c0-0.6,0.1-1.3,0.8-1.5c0.7-0.2,1.5,0.4,1.8,1C301.6,168.6,301,170.2,299.7,170z"/>
					<path class="st5" d="M283.6,177.3c-0.7-1.6-3-2.8-4.6-1.7c-0.1,0.1-0.2,0.3-0.2,0.4c-0.4,0.5-0.6,1.3-0.5,2
						c0.2,1.8,2.1,3.5,4,3C284,180.6,284.3,178.7,283.6,177.3z M282.4,179.5c-0.6,0.9-2,0.1-2.5-0.5c-0.4-0.5-0.6-1-0.6-1.6
						c0-0.5,0.2-0.9,0.4-1.1C281.1,176.2,283.4,178,282.4,179.5z"/>
					<path class="st5" d="M277.1,161.2c-0.6-0.9-1.3-0.9-2-0.3c-0.1-0.1-0.2-0.1-0.3,0c-0.7,1-1.5,2.4-0.7,3.6c0.7,1,2.1,1,2.9,0.1
						C277.7,163.7,277.7,162.1,277.1,161.2z M276.1,163.7c-0.4,0.9-1.4,0.8-1.7-0.2c-0.2-0.7,0.1-1.4,0.4-2c0.1,0,0.1,0.1,0.2,0
						c0.7-0.2,0.8-0.4,1.1,0.4C276.3,162.5,276.4,163.1,276.1,163.7z"/>
					<path class="st5" d="M274.6,161.6c-0.4,0.6-0.8,1.1-0.8,1.8c0,0.1,0.2,0.1,0.2,0C274,162.8,274.2,162.2,274.6,161.6
						C274.6,161.6,274.6,161.6,274.6,161.6z"/>
					<path class="st5" d="M254.6,164.6c-0.2-1.8-2.1-2.7-3.5-1.6c-0.1,0.1-0.2,0.2-0.1,0.4c-1,1.2-0.8,3.5,1.1,3.9
						C253.6,167.6,254.8,166,254.6,164.6z M251.8,165.9c-0.7-0.5-0.7-1.4-0.3-2.1c0,0,0.1,0,0.1,0c0.4-0.2,0.8-0.3,1.2,0
						c0.3,0.3,0.5,0.8,0.5,1.2C253.2,165.8,252.5,166.4,251.8,165.9z"/>
					<path class="st5" d="M239.8,163.1c-0.2-0.8-0.9-1.1-1.7-1.2c-0.9,0-1.8,0.4-2.4,1.1c-0.6,0.7-1.1,1.6-0.9,2.5
						c0.1,0.8,0.7,1.1,1.5,0.8c0,0,0,0,0,0c0,0,0,0,0,0C237.8,166.7,240.1,164.7,239.8,163.1z M236.4,165.4
						c-1.1,0.1,0.2-1.5,0.5-1.8c0.1-0.1,0.2-0.1,0.2-0.2c0.3-0.2,1.4-0.5,1.3,0.2C238.3,164.4,237.1,165.3,236.4,165.4z"/>
					<path class="st5" d="M237.1,177.3c-0.3-0.9-1.3-1.3-2.2-1.1c-1.4,0.3-2.9,1.9-2.9,3.4c-0.1,0.3-0.1,0.6,0,0.9
						c0.8,1.5,3.5-0.2,4.2-0.9C236.8,179,237.3,178.2,237.1,177.3z M235.8,178c-0.1,0.5-0.7,1-1.1,1.3c-0.3,0.3-1.9,1.3-2,0.5
						c0.1-1.1,1.2-2.3,2.2-2.4C235.3,177.4,235.9,177.4,235.8,178z"/>
					<path class="st5" d="M237.2,188.3c-0.8,0-1.4,0.5-2,1.1c-0.7,0.5-1.3,1.2-1.4,2c-0.2,1.4,1,2.1,2.2,1.6c1-0.4,2-1.3,2.4-2.3
						C238.9,189.7,238.6,188.3,237.2,188.3z M236.8,191.1c-0.3,0.4-1.6,1.5-2,0.9c-0.2-0.2-0.1-0.5-0.1-0.7c0.3-0.4,0.6-0.7,1-1
						c0.3-0.3,0.9-0.8,1.4-0.8C238,189.4,237,190.8,236.8,191.1z"/>
					<path class="st5" d="M260.4,177.5c-0.8,0.3-1,1.2-1.1,2.1c-0.4,1.1-0.4,2.4,0.8,2.9c1.7,0.7,2.7-1.4,2.7-2.7
						C262.9,178.5,261.9,176.8,260.4,177.5z M260.6,181.6c-1.4,0.3-0.7-2-0.3-2.8c0.6-0.6,1.2,0,1.2,0.7
						C261.6,180.2,261.4,181.4,260.6,181.6z"/>
					<path class="st5" d="M253.2,195.4c-1.3,0.3-2.2,1.9-2.5,3.3c-0.2,0.4-0.3,0.8-0.3,1.2c0,1,0.7,1.9,1.7,1.8
						c1.7-0.1,2.5-2,2.8-3.5C255.1,197.1,254.9,195,253.2,195.4z M253.6,197.7c-0.2,0.7-0.4,1.7-0.9,2.3c-0.4,0.5-1.2,0.7-1.5-0.1
						c0,0,0-0.1,0-0.1c0,0,0-0.1,0-0.2c0-0.6,0.2-1.2,0.6-1.8c0.1-0.1,0.2-0.3,0.3-0.4c0-0.1,0.1-0.1,0-0.2c0.2-0.2,0.4-0.4,0.6-0.6
						C253.8,195.8,253.7,197.1,253.6,197.7z"/>
					<path class="st5" d="M271.9,199.7c-0.2-1.7-1.1-4.2-3.2-3.8c-1.7,0.3-1.9,1.9-1.8,3.4c-0.2,1.8,0.1,3.7,1.7,4.4
						C271,204.5,272.1,201.4,271.9,199.7z M270.5,200.9c-0.2,1-1.1,2.2-2,1.1c-0.2-0.3-0.4-0.6-0.5-1c0,0,0,0,0,0
						c0.1-1-0.2-2.5,0.3-3.4c1-1.6,2,1,2.1,1.7C270.5,199.8,270.6,200.4,270.5,200.9z"/>
					<path class="st5" d="M299.6,196.2c-1.4-1.1-2.9,0.4-2.5,1.9c-0.2,1.5,0.3,3.3,1.1,4.4c1.1,1.5,2.8,1.2,3.2-0.6
						C301.7,200.1,301.1,197.4,299.6,196.2z M300.1,201.9c-0.6,1.1-1.5-0.7-1.8-1.3c-0.3-0.7-0.5-1.6-0.4-2.4c0,0,0,0,0,0
						c0-0.5,0.1-0.9,0.4-1.3c0,0,0,0,0,0c0.6-0.3,0.9,0.4,1.1,0.8c0.3,0.6,0.6,1.2,0.7,1.9C300.2,200.2,300.4,201.3,300.1,201.9z"/>
					<path class="st5" d="M310.8,178.8c-0.5-1.4-2.4-2.6-3.8-1.6c-1.2,0.8-1.4,2.8-1,4.1c0.1,0.2,0.2,0.3,0.4,0.2
						c0,0.1,0.1,0.2,0.1,0.3c0.4,0.8,1.3,1.7,2.3,1.5C310.7,183.1,311.4,180.3,310.8,178.8z M308.9,182.3c-1,0.6-1.9-0.9-2.1-1.7
						c-0.1-0.6-0.1-1.2-0.1-1.8c0.1-0.2,0.1-0.4,0.2-0.6c0.7-1.3,2.2-0.4,2.7,0.6C310.1,179.8,309.9,181.7,308.9,182.3z"/>
					<path class="st5" d="M319.6,188.1c-1.3-0.6-2.9,1.1-3.2,2.3c0,0.1,0,0.3,0.1,0.3c-0.5,1.1-0.7,2.3,0.1,3.3
						c1.3,1.6,3.3-0.3,3.9-1.5C321,191.3,321.2,188.8,319.6,188.1z M319.1,191.6c-0.2,0.5-1.1,2.1-1.8,1.3c-0.7-0.9,0-2.4,0.6-3.4
						c0.3-0.3,0.6-0.5,1-0.5C319.9,189.3,319.3,191.1,319.1,191.6z"/>
					<path class="st5" d="M317.9,160.9c-0.7-0.8-1.7-1.6-2.8-1.3c-1,0.3-1.4,1.2-1.3,2.1c0.1,1.6,1.6,4.6,3.5,4.7
						c0.1,0,0.2-0.1,0.3-0.2c0.1,0,0.3,0,0.4,0C320.7,165.7,318.9,162.1,317.9,160.9z M318.3,164.8c-0.2,0.6-1,0.6-1.5,0.4
						c-1.3-0.6-1.7-2.4-2-3.7c0-0.3,0.2-0.6,0.5-0.7c0.7-0.2,1.5,0.6,1.9,1.1c0.4,0.5,0.9,1.2,1.1,1.8
						C318.3,164,318.4,164.5,318.3,164.8z"/>
					<path class="st5" d="M333.3,166.7c-1.2-1.3-3.5-1.6-4.3,0.3c-0.7,1.6,0.6,4,2.1,5.1c1,1,2.3,1.2,3.2-0.2
						C335.3,170.3,334.4,167.9,333.3,166.7z M331.9,171.4c-1.1-0.7-2.1-2.7-1.3-3.9c0.1-0.2,0-0.3-0.2-0.3c0.4-0.3,1.1-0.3,1.6,0.1
						c0.6,0.5,1,1.3,1.2,2C333.5,170.1,333.4,172.4,331.9,171.4z"/>
					<path class="st5" d="M332.7,185c-0.3-1.7-2.2-2.8-3.6-1.4c-1.1,1.2-1,3.4-0.3,4.7c0.2,0.4,0.7,0.3,0.9,0c0.1,0,0.1,0.1,0.2,0.1
						C331.9,189.1,333,186.5,332.7,185z M330.6,187.5c-0.5,0.1-0.8-0.2-1-0.5c-0.1-0.6,0-1.3,0.2-1.8c0.3-0.9,1.4-1.5,1.9-0.4
						C331.9,185.6,331.7,187.2,330.6,187.5z"/>
					<path class="st5" d="M343.7,191.8c-1.7-1.3-3.4,0.5-3.7,2.2c0,0.1,0,0.2,0.1,0.3c0,0.4,0,0.8,0.2,1.2c0.6,1.4,2.5,1.4,3.5,0.5
						C344.8,194.8,344.9,192.8,343.7,191.8z M342.7,195.1c-0.6,0.6-1.5,0.4-1.9-0.4c-0.1-0.3-0.1-0.6-0.1-0.9
						c0.5-0.9,1.6-2.2,2.5-1.1C343.8,193.4,343.3,194.6,342.7,195.1z"/>
				</g>
			</g>
		</g>
	</g>
	<g>
		<g>
			<path class="st1" d="M110.8,71.7c3.2-2.2,7.2-4.5,11.8-6.5c8.3-3.6,14.9-4.1,19.9-2.1c5,2,8.8,6,10.8,12.7c2,6.8,1.6,13-0.9,18.2
				c-2.5,5.2-7.7,9.5-15.1,12.8c-3.5,1.6-6.5,2.8-9.1,3.7C122.4,97.6,116.6,84.6,110.8,71.7z M131.4,104.2c1.4-0.4,3.2-1.2,5.2-2
				c9.7-4,14.1-14.4,11-24.2c-3.2-10-14.1-13-23.1-8.8c-2.8,1.3-5,2.5-6.4,3.5C122.5,83.2,127,93.7,131.4,104.2z"/>
			<path class="st1" d="M165.7,80.5c2.1,7.4,7.4,9.1,12.7,7.8c3.8-0.9,5.9-2.1,7.8-3.4c0.7,1.5,1,2.3,1.7,3.8
				c-1.7,1.3-4.6,2.9-9.2,4.1c-8.8,2.2-15.7-2.2-18.2-11.2s1-18.1,10.4-20.4c10.5-2.6,14.9,5.9,15.9,11.5c0.2,1.1,0.2,2.1,0.3,2.6
				C178.4,77.1,174.1,78.1,165.7,80.5z M181,72.4c-0.6-3.6-3.3-8.8-9.8-7.2c-5.8,1.5-7,7.4-6.4,11.3C171.2,74.7,174.5,73.9,181,72.4
				z"/>
			<path class="st1" d="M189.2,43.1c2.5-0.4,3.7-0.6,6.2-1c2,15.2,4.1,30.3,6.1,45.5c-2.1,0.3-3.2,0.5-5.3,0.8
				C193.9,73.4,191.5,58.2,189.2,43.1z"/>
			<path class="st1" d="M213.1,45.9c0.2,1.9-1.2,3.6-3.6,3.8c-2.1,0.2-3.8-1.2-4-3.1c-0.2-2,1.2-3.7,3.5-4
				C211.4,42.5,212.9,43.9,213.1,45.9z M210.4,86.5c-1-10.4-2.1-20.8-3.1-31.2c2.4-0.3,3.5-0.4,5.9-0.6c0.8,10.4,1.7,20.8,2.5,31.2
				C213.5,86.1,212.5,86.3,210.4,86.5z"/>
			<path class="st1" d="M245.3,84c-1.4,0.7-4.5,1.7-8.4,1.7c-8.8,0-14.9-5.9-15.4-15.5c-0.5-9.6,6-17.2,16.6-17.1
				c3.5,0,6.6,0.9,8.2,1.8c-0.6,1.7-0.9,2.6-1.5,4.4c-1.4-0.8-3.6-1.6-6.7-1.6c-7.4,0-11.2,5.5-11,12c0.3,7.2,4.8,11.5,10.7,11.5
				c3.1,0,5.1-0.8,6.7-1.5C244.8,81.4,245,82.2,245.3,84z"/>
			<path class="st1" d="M260.4,45.8c-0.1,1.9-1.7,3.4-4.1,3.2c-2.1-0.1-3.6-1.8-3.5-3.7c0.1-2,1.8-3.5,4-3.3
				C259.2,42.1,260.5,43.8,260.4,45.8z M251.5,85.4c0.5-10.4,1.1-20.9,1.6-31.3c2.4,0.1,3.6,0.2,5.9,0.4
				c-0.8,10.4-1.5,20.8-2.3,31.2C254.7,85.6,253.6,85.5,251.5,85.4z"/>
			<path class="st1" d="M295,75.6c-2.3,11.3-10.7,14.6-17.7,13.4c-7.8-1.3-13.3-8.1-12.3-17.9c1-10.4,8.8-15.8,17.7-14.3
				C292,58.3,296.9,66.2,295,75.6z M270.7,71.5c-0.8,6.8,2.3,12.4,7.5,13.3c5.1,0.9,9.8-3.4,11.1-10.3c1-5.2-0.5-12.4-7.4-13.6
				C275.1,59.8,271.3,65.6,270.7,71.5z"/>
			<path class="st1" d="M324.7,92.1c-1,3.1-1.9,5.8-2.5,8.1c-1.8-0.7-2.7-1-4.5-1.6c0.5-2,0.7-3,1.2-5c0,0-0.1,0-0.1,0
				c-2.1,1.9-6,4-11,2.5c-4.4-1.3-9.2-5.4-6.7-16.1c1.7-7.1,2.5-10.7,4.1-17.8c2.3,0.6,3.5,0.9,5.8,1.6c-1.7,6.7-2.5,10.1-4.2,16.8
				c-1.5,5.8-0.8,10.1,4,11.5c3.5,1.1,6.7-0.6,8.4-2.7c0.5-0.7,1-1.6,1.3-2.6c2.3-7.3,3.4-11,5.7-18.3c2.3,0.8,3.4,1.2,5.7,2
				C329,79.2,327.6,83.5,324.7,92.1z"/>
			<path class="st1" d="M331.7,97.7c1.1,1.6,3.4,3.8,5.9,5c3.7,1.6,6.2,0.6,7.2-1.8c1.1-2.5,0.2-4.6-3.1-7.7
				c-4.4-4.1-5.9-8-4.7-11.5c1.7-4.7,7.2-7,13.8-4c3.1,1.4,5.5,3.5,6.7,5.3c-1.2,1.2-1.8,1.9-3,3.1c-0.9-1.3-2.6-3.3-5.4-4.5
				c-3.2-1.5-5.8-0.4-6.6,1.7c-0.9,2.4,0.5,4.2,3.7,7.4c4.3,4.2,5.7,8,3.8,12.2c-2.2,5-7.5,6.6-14,3.7c-3-1.3-5.5-3.3-7-5.2
				C330.1,99.8,330.6,99.1,331.7,97.7z"/>
		</g>
	</g>
	<g>
		<g>
			<path class="st1" d="M124.8,377.8c3,0.1,7.6,0.7,12.3,1.7c6.6,1.4,10.6,3.4,13.4,6.3c2.3,2.4,3.5,5.6,2.8,9.5
				c-0.8,4.8-4.9,8.4-11,9.3c0,0.1,0,0.1,0,0.1c4.9,2.1,10.3,7,9.1,14.4c-0.7,4.3-3.2,7.3-6.4,9.1c-4.4,2.5-11.2,2.8-20.5,0.8
				c-5.1-1.1-8.9-2.3-11.2-3.2C117.1,409.8,121,393.8,124.8,377.8z M126.9,399.4c2.5,0.6,3.8,0.8,6.3,1.4c7.3,1.5,12.3-1.2,13.1-6
				c1.1-5.8-3.1-8.9-9.9-10.3c-3.1-0.6-4.9-0.8-6-0.8C129,389.9,128.3,393.1,126.9,399.4z M121.6,422.9c1.4,0.5,3.4,1.1,6,1.6
				c7.5,1.6,14.9,0.4,16.2-6.8c1.2-6.8-4.7-10.7-12.3-12.3c-2.3-0.5-3.5-0.7-5.8-1.3C124.2,411.7,123.3,415.4,121.6,422.9z"/>
			<path class="st1" d="M194.2,428.6c-0.3,3.7-0.4,7-0.4,9.8c-2.7-0.2-4-0.3-6.7-0.5c0-2.4,0-3.5,0.1-5.9c-0.1,0-0.1,0-0.2,0
				c-2.2,2.7-6.9,6.2-14.3,5.3c-6.5-0.7-13.8-4.9-12-17.5c1.2-8.4,1.8-12.5,3-20.9c2.8,0.4,4.2,0.6,7,0.9c-1,7.9-1.5,11.9-2.5,19.8
				c-0.9,6.8,0.9,11.7,7.7,12.5c5,0.5,8.8-2.2,10.3-5c0.5-0.9,0.9-2.1,1-3.3c0.8-8.8,1.1-13.2,1.9-22.1c2.8,0.2,4.2,0.4,7,0.6
				C195.3,412.9,194.9,418.1,194.2,428.6z"/>
			<path class="st1" d="M207.1,414.3c0.2-4.2,0.3-7.9,0.2-11.3c2.4,0.1,3.7,0.2,6.1,0.2c0,2.8,0,4.3,0,7.1c0.1,0,0.2,0,0.3,0
				c1.9-4.8,6.2-7.7,10.9-7.7c0.8,0,1.3,0.1,2,0.2c0,2.5,0,3.7,0,6.2c-0.7-0.2-1.4-0.2-2.4-0.2c-5,0-8.6,3.3-9.7,8.2
				c-0.2,0.9-0.4,1.9-0.4,3c-0.2,7.7-0.4,11.5-0.6,19.2c-3-0.1-4.5-0.1-7.5-0.3C206.4,429.2,206.7,424.3,207.1,414.3z"/>
			<path class="st1" d="M266.1,402c0.1,2.6,0.1,5.5,0.5,9.9c0.7,8.4,1,12.5,1.7,20.9c0.7,8.3-0.9,13.5-4.7,16.9
				c-3.9,3.5-9.9,4.9-15.3,5.2c-5.1,0.2-10.8-0.7-14.3-2.6c0.8-2,1.1-3,1.9-5c2.8,1.5,7.2,2.7,12.5,2.5c7.9-0.3,13.4-4.2,12.8-13.3
				c-0.1-1.6-0.2-2.4-0.3-4c-0.1,0-0.1,0-0.2,0c-2.1,3.5-6.4,6.5-12.8,6.7c-10.3,0.4-17.6-7.3-17.7-17.2c-0.1-10,7-19.1,17.2-19.6
				c6.6-0.3,10.5,2.7,12.4,5.6c0.1,0,0.1,0,0.2,0c0-2.2,0-3.3-0.1-5.5C262.5,402.3,263.7,402.2,266.1,402z M259.9,416.8
				c-0.1-1.1-0.2-2.1-0.6-3c-1.6-3.7-5.2-6.6-10.3-6.4c-6.7,0.3-11.5,5.7-11.3,14c0.1,7.1,4.3,12.9,12.4,12.6c4.6-0.2,8.6-3,9.9-7.3
				c0.3-1.1,0.4-2.4,0.4-3.5C260.1,420.7,260,419.4,259.9,416.8z"/>
			<path class="st1" d="M283.5,419.7c1.2,8.8,8,11.7,15.5,10.6c5.3-0.8,8.4-2.1,11-3.6c0.8,1.8,1.2,2.7,2.1,4.4
				c-2.4,1.5-6.9,3.3-13.3,4.4c-10.6,1.7-21.1-4.4-22.2-15.6c-1-10.2,5.3-20.1,16-21.5c12.4-1.7,17.5,7.7,18.7,14.3
				c0.2,1.3,0.3,2.4,0.3,3.1C302.2,417.2,292.8,418.6,283.5,419.7z M304,412.1c-0.6-4.1-3.5-10.2-11.4-9.1c-7.1,1-9.5,7.4-9.5,12
				C291.4,414,295.6,413.4,304,412.1z"/>
			<path class="st1" d="M319.1,406c-0.8-4.2-1.6-7.7-2.5-11c2.4-0.5,3.6-0.7,6-1.2c0.7,2.8,1,4.1,1.7,6.9c0.1,0,0.2,0,0.3-0.1
				c0.7-5.1,4.2-9,8.8-10.1c0.8-0.2,1.3-0.2,2-0.2c0.6,2.4,0.9,3.6,1.4,6c-0.7,0-1.5,0.1-2.4,0.3c-4.9,1.1-7.6,5.3-7.6,10.3
				c0,0.9,0.1,2,0.3,3.1c1.6,7.5,2.4,11.3,4,18.8c-2.9,0.6-4.4,0.9-7.4,1.5C321.9,420.7,321,415.8,319.1,406z"/>
		</g>
	</g>
	<path class="st1" d="M107.7,376c-12.4-12-24.2-24.1-33.7-38.6c-9.3-14.1-16.6-29.5-21.7-45.6c-10.6-33.9-10.5-70-0.7-104.1
		c5.6-19.7,14.6-37.8,25.4-55.1c0.7-1.1-1-2.5-1.9-1.5c-47.9,57.1-48.7,143.2-10.8,205.5c10.2,16.8,23.3,33.1,39.1,44.9
		C106.7,384,110.5,378.8,107.7,376z"/>
	<path class="st1" d="M440.8,174c-7.3-20-17.9-37.9-31.2-54.6c-1-1.3-3.1,0.4-2.2,1.7c40.5,60.3,49.5,139.6,18.7,205.9
		c-8.5,18.4-19.5,35.3-31.9,51.2c-1.6,2.1,1,4.9,3,3C450.8,329.5,466.1,243,440.8,174z"/>
	<path class="st1" d="M426.8,182.8c-6.5-17.7-15.9-33.6-27.6-48.3c-0.9-1.1-2.8,0.3-2,1.5c35.9,53.4,43.9,123.6,16.6,182.4
		c-7.6,16.3-17.2,31.3-28.3,45.4c-1.4,1.8,0.9,4.4,2.6,2.6C435.7,320.5,449.2,243.8,426.8,182.8z"/>
	<path class="st1" d="M65.6,182.8c6.5-17.7,15.9-33.6,27.6-48.3c0.9-1.1,2.8,0.3,2,1.5c-35.9,53.4-43.9,123.6-16.6,182.4
		c7.6,16.3,17.2,31.3,28.3,45.4c1.4,1.8-0.9,4.4-2.6,2.6C56.7,320.5,43.2,243.8,65.6,182.8z"/>
</g>
</svg>
